<svg width="305" height="311" viewBox="0 0 305 311" fill="none" xmlns="http://www.w3.org/2000/svg">
<path opacity="0.3" fill-rule="evenodd" clip-rule="evenodd" d="M298.08 196.173C301.107 155.546 318.705 110.168 281.255 80.8439C240.085 48.6083 246.48 -12.594 190.491 2.3502C139.57 15.942 47.7966 110.835 27.5589 148.559C9.66432 181.915 -13.5953 219.138 10.2487 250.304C33.0994 280.172 87.6839 277.306 132.2 285.334C177.83 293.562 227.005 316.813 265.202 296.282C304.293 275.271 295.39 232.281 298.08 196.173Z" fill="#EBEBEB"/>
<g clip-path="url(#clip0_23_535)">
<path d="M168.179 233.87C157.23 227.553 139.481 227.553 128.533 233.87C119.253 239.234 117.846 247.405 124.295 253.628C123.931 253.723 123.58 253.865 123.252 254.051L88.6841 274.017C87.2179 274.863 87.2179 276.24 88.6841 277.086L90.8535 278.338C91.6678 278.752 92.5729 278.955 93.486 278.929C94.3991 278.903 95.2911 278.648 96.0805 278.189L128.264 257.108C128.396 257.022 128.52 256.924 128.634 256.816C139.588 263.08 157.242 263.062 168.173 256.763C179.103 250.463 179.157 240.194 168.179 233.87Z" fill="#E6E6E6"/>
<path d="M245.134 210.883L201.078 236.373C200.529 236.652 199.921 236.798 199.305 236.798C198.689 236.798 198.081 236.652 197.532 236.373L120.892 192.12C119.915 191.56 119.915 190.642 120.892 190.076L164.949 164.585C165.498 164.306 166.105 164.161 166.722 164.161C167.338 164.161 167.945 164.306 168.495 164.585L245.134 208.838C246.112 209.399 246.112 210.316 245.134 210.883Z" fill="#E6E6E6"/>
<path d="M48.9489 259.093L37.166 252.287C35.7415 251.464 35.7415 250.129 37.166 249.307L119.158 201.966C119.957 201.561 120.842 201.349 121.738 201.349C122.635 201.349 123.519 201.561 124.319 201.966L136.108 208.773C137.532 209.595 137.532 210.93 136.108 211.753L54.1103 259.093C53.3105 259.499 52.4264 259.71 51.5296 259.71C50.6328 259.71 49.7486 259.499 48.9489 259.093Z" fill="#E6E6E6"/>
<path d="M245.253 272.622C257.278 272.622 267.025 267.296 267.025 260.726C267.025 254.156 257.278 248.83 245.253 248.83C233.229 248.83 223.481 254.156 223.481 260.726C223.481 267.296 233.229 272.622 245.253 272.622Z" fill="#E6E6E6"/>
<path d="M254.783 248.913C254.992 246.273 257.34 240.963 260.356 237.756C263.372 234.55 267.871 232.392 270.845 233.685C273.617 234.877 273.009 238.602 269.349 240.796C265.69 242.989 260.254 245.689 258.389 249.843L254.783 254.838V248.913Z" fill="url(#paint0_linear_23_535)"/>
<path opacity="0.1" d="M254.783 248.913C254.992 246.273 257.34 240.963 260.356 237.756C263.372 234.55 267.871 232.392 270.845 233.685C273.617 234.877 273.009 238.602 269.349 240.796C265.69 242.989 260.254 245.689 258.389 249.843L254.783 254.838V248.913Z" fill="black"/>
<path d="M254.294 252.507C254.337 252.508 254.379 252.494 254.414 252.468C254.448 252.442 254.473 252.406 254.485 252.364C256.976 243.502 264.85 236.767 269.337 235.503C269.382 235.485 269.418 235.45 269.438 235.407C269.459 235.364 269.463 235.314 269.45 235.268C269.437 235.222 269.407 235.182 269.367 235.156C269.326 235.13 269.278 235.12 269.23 235.128C264.659 236.421 256.637 243.263 254.11 252.263C254.102 252.287 254.1 252.313 254.103 252.339C254.106 252.364 254.115 252.389 254.127 252.411C254.14 252.433 254.157 252.453 254.178 252.468C254.198 252.484 254.222 252.495 254.247 252.501L254.294 252.507Z" fill="white"/>
<path d="M255.177 258.354C255.719 256.906 257.727 254.605 260.821 252.817C264.242 250.844 268.426 250.147 269.51 248.478C270.816 246.482 269.212 244.366 265.845 244.509C262.478 244.652 256.267 248.723 254.783 255.487L255.177 258.354Z" fill="url(#paint1_linear_23_535)"/>
<path d="M254.658 256.769C254.695 256.769 254.731 256.759 254.762 256.738C254.792 256.718 254.816 256.689 254.831 256.655C258.216 249.164 264.319 246.929 267.073 246.792C267.123 246.792 267.172 246.771 267.207 246.736C267.243 246.7 267.263 246.651 267.263 246.601C267.263 246.55 267.243 246.502 267.207 246.466C267.172 246.43 267.123 246.41 267.073 246.41C264.027 246.559 257.954 248.848 254.497 256.494C254.486 256.518 254.48 256.543 254.48 256.569C254.479 256.595 254.483 256.62 254.493 256.644C254.502 256.668 254.517 256.69 254.535 256.708C254.553 256.727 254.574 256.741 254.598 256.751C254.617 256.76 254.637 256.766 254.658 256.769Z" fill="white"/>
<path d="M38.1369 234.198C38.1369 234.198 37.5409 228.721 34.7874 224.465C32.0339 220.21 28.3148 217.564 24.8223 217.284C21.3297 217.003 18.5106 220.222 22.2475 222.433C25.9845 224.644 32.6239 226.891 35.6814 235.146L38.1369 234.198Z" fill="url(#paint2_linear_23_535)"/>
<path opacity="0.1" d="M38.1369 234.198C38.1369 234.198 37.5409 228.721 34.7874 224.465C32.0339 220.21 28.3148 217.564 24.8223 217.284C21.3297 217.003 18.5106 220.222 22.2475 222.433C25.9845 224.644 32.6239 226.891 35.6814 235.146L38.1369 234.198Z" fill="black"/>
<path d="M37.112 232.774H37.1477C37.1706 232.764 37.1915 232.751 37.209 232.734C37.2266 232.716 37.2405 232.696 37.2499 232.673C37.2593 232.65 37.2641 232.626 37.264 232.601C37.2638 232.576 37.2588 232.552 37.2491 232.529C33.5658 223.446 26.5211 219.656 23.3503 218.917C23.3039 218.912 23.2572 218.924 23.2193 218.951C23.1813 218.978 23.1546 219.019 23.1443 219.064C23.134 219.11 23.1408 219.158 23.1634 219.198C23.186 219.239 23.2228 219.271 23.2669 219.286C26.3959 220.001 33.2737 223.732 36.9034 232.666C36.9212 232.705 36.9514 232.736 36.9892 232.756C37.027 232.775 37.0702 232.782 37.112 232.774Z" fill="white"/>
<path d="M20.3525 232.726C20.6922 233.489 21.5445 233.882 22.2895 234.192C23.0944 234.41 23.8048 234.887 24.3099 235.551C25.1503 236.999 23.7735 239.038 24.6735 240.444C24.8846 240.729 25.1524 240.967 25.4601 241.144C25.7679 241.32 26.1088 241.431 26.4615 241.469C27.0384 241.553 27.6193 241.607 28.2018 241.63C28.4789 241.623 28.7555 241.601 29.0302 241.565C29.8314 241.384 30.6696 241.475 31.4142 241.821C32.5645 242.465 32.9161 243.919 33.6135 245.039C34.047 245.7 34.6181 246.259 35.2878 246.679C35.9574 247.099 36.7098 247.369 37.4934 247.471C38.1607 247.606 38.852 247.561 39.496 247.34L39.6092 247.268C39.6818 247.191 39.7495 247.11 39.8119 247.024V246.988C40.0145 246.237 39.6807 245.456 39.6688 244.682V244.539C39.6688 243.639 39.7284 242.751 39.7463 241.845C39.786 240.188 39.8019 238.531 39.794 236.874C39.794 235.801 39.9132 234.621 39.4602 233.608C38.9536 232.493 37.702 232.47 37.2312 231.373C37.0405 230.938 36.9391 230.473 36.7544 230.032C36.4704 229.387 36.0145 228.832 35.4363 228.428C34.8582 228.024 34.1801 227.788 33.4764 227.743C31.2831 227.63 29.3044 229.4 27.1349 229.239C26.5715 229.163 26.0125 229.058 25.4602 228.923C23.6722 228.59 21.6398 229.096 20.6445 230.592C20.425 230.897 20.2835 231.251 20.2326 231.623C20.1817 231.995 20.2229 232.374 20.3525 232.726Z" fill="url(#paint3_linear_23_535)"/>
<path d="M40.0147 243.549C40.0386 243.544 40.0611 243.533 40.0809 243.519C40.1007 243.504 40.1172 243.486 40.1295 243.465C40.1418 243.443 40.1496 243.42 40.1524 243.395C40.1552 243.371 40.1529 243.346 40.1458 243.323C37.136 231.975 25.1862 230.342 22.4088 230.539C22.3845 230.54 22.3608 230.546 22.339 230.557C22.3171 230.568 22.2976 230.583 22.2815 230.601C22.2655 230.619 22.2532 230.641 22.2454 230.664C22.2376 230.687 22.2344 230.711 22.236 230.735C22.2326 230.76 22.2346 230.786 22.2416 230.81C22.2487 230.834 22.2608 230.856 22.2771 230.875C22.2934 230.894 22.3136 230.91 22.3363 230.921C22.359 230.931 22.3837 230.937 22.4088 230.938C25.1445 230.741 36.838 232.344 39.7941 243.454C39.8135 243.494 39.8463 243.525 39.8868 243.542C39.9272 243.56 39.9726 243.562 40.0147 243.549Z" fill="white"/>
<path d="M26.7354 237.804C26.7739 237.797 26.8093 237.778 26.8368 237.75C27.94 236.794 29.2407 236.094 30.6459 235.698C32.0511 235.302 33.5262 235.222 34.9662 235.462C35.0157 235.467 35.0653 235.453 35.1052 235.423C35.145 235.393 35.172 235.35 35.1808 235.301C35.1841 235.276 35.1826 235.252 35.1763 235.228C35.1699 235.204 35.159 235.182 35.144 235.163C35.129 235.143 35.1103 235.127 35.089 235.115C35.0677 235.103 35.0442 235.095 35.0198 235.092C33.5231 234.847 31.9906 234.935 30.5317 235.35C29.0729 235.765 27.7237 236.497 26.5805 237.494C26.5632 237.511 26.5494 237.532 26.5401 237.554C26.5307 237.577 26.5259 237.601 26.5259 237.625C26.5259 237.649 26.5307 237.674 26.5401 237.696C26.5494 237.719 26.5632 237.739 26.5805 237.756C26.6014 237.775 26.6261 237.788 26.6528 237.797C26.6795 237.805 26.7077 237.807 26.7354 237.804Z" fill="white"/>
<path d="M243.525 202.628L200.959 227.261C200.427 227.528 199.84 227.667 199.245 227.667C198.65 227.667 198.063 227.528 197.532 227.261L123.449 184.498C122.501 183.955 122.501 183.067 123.449 182.525L166.045 157.886C166.576 157.619 167.162 157.48 167.756 157.48C168.35 157.48 168.936 157.619 169.466 157.886L243.525 200.649C244.443 201.198 244.443 202.08 243.525 202.628Z" fill="#37474F"/>
<path d="M220.752 213.922C220.013 214.297 219.196 214.493 218.368 214.493C217.539 214.493 216.723 214.297 215.984 213.922C214.673 213.165 214.673 211.937 215.984 211.181C216.722 210.802 217.539 210.605 218.368 210.605C219.197 210.605 220.014 210.802 220.752 211.181C222.069 211.937 222.069 213.165 220.752 213.922Z" fill="#263238"/>
<path d="M200.929 227.261L243.525 202.628C244.371 202.139 244.461 201.376 243.793 200.84C244.216 201.175 244.564 201.595 244.814 202.074C245.064 202.553 245.209 203.078 245.241 203.617V205.226C245.211 205.823 245.04 206.405 244.741 206.923C244.443 207.441 244.026 207.881 243.525 208.206L200.959 232.839C200.433 233.119 199.844 233.261 199.248 233.25V227.69C199.835 227.69 200.413 227.542 200.929 227.261Z" fill="#455A64"/>
<path d="M123.449 190.064C122.949 189.738 122.533 189.297 122.236 188.78C121.939 188.262 121.768 187.681 121.738 187.084V185.475C121.77 184.935 121.915 184.408 122.165 183.928C122.414 183.449 122.762 183.027 123.187 182.692C122.519 183.24 122.591 183.997 123.449 184.48L197.502 227.243C198.03 227.523 198.62 227.665 199.218 227.654V233.215C198.62 233.226 198.03 233.084 197.502 232.803L123.449 190.064Z" fill="#263238"/>
<path d="M193.819 222.099L233.971 198.855C234.097 198.815 234.208 198.735 234.286 198.628C234.364 198.521 234.406 198.392 234.406 198.259C234.406 198.127 234.364 197.997 234.286 197.89C234.208 197.783 234.097 197.704 233.971 197.663L174.621 163.334C174.304 163.172 173.953 163.088 173.596 163.088C173.24 163.088 172.889 163.172 172.571 163.334L132.401 186.578C132.275 186.618 132.164 186.698 132.086 186.805C132.008 186.912 131.966 187.041 131.966 187.174C131.966 187.306 132.008 187.435 132.086 187.543C132.164 187.65 132.275 187.729 132.401 187.77L191.762 222.099C192.081 222.261 192.433 222.345 192.791 222.345C193.148 222.345 193.5 222.261 193.819 222.099Z" fill="#FAFAFA"/>
<path d="M138.629 187.633L157.808 198.754C158.208 198.957 158.65 199.062 159.099 199.062C159.547 199.062 159.989 198.957 160.389 198.754L194.123 179.283C194.278 179.23 194.414 179.13 194.509 178.996C194.605 178.862 194.657 178.702 194.657 178.538C194.657 178.373 194.605 178.213 194.509 178.079C194.414 177.946 194.278 177.845 194.123 177.793L174.92 166.695C174.52 166.492 174.078 166.387 173.629 166.387C173.181 166.387 172.739 166.492 172.339 166.695L138.629 186.143C138.473 186.195 138.338 186.296 138.242 186.429C138.147 186.563 138.095 186.723 138.095 186.888C138.095 187.052 138.147 187.212 138.242 187.346C138.338 187.479 138.473 187.58 138.629 187.633Z" fill="#EBEBEB"/>
<path d="M152.712 182.334L157.635 183.294C157.943 183.358 158.262 183.329 158.553 183.21L162.725 181.422C163.387 181.136 164.328 181.422 164.316 181.893L164.251 184.873C164.251 185.064 164.406 185.243 164.674 185.356L168.917 187.09C169.591 187.364 169.43 187.966 168.637 188.109L163.661 189.009C163.53 189.022 163.404 189.062 163.291 189.128C163.178 189.194 163.08 189.284 163.005 189.391L161.462 192.258C161.211 192.71 160.168 192.806 159.674 192.418L156.694 189.969C156.455 189.797 156.165 189.71 155.871 189.725L150.668 189.76C149.84 189.76 149.363 189.224 149.857 188.842L152.969 186.458C153.013 186.433 153.052 186.399 153.083 186.359C153.114 186.318 153.137 186.272 153.15 186.223C153.164 186.174 153.167 186.122 153.16 186.072C153.154 186.021 153.137 185.972 153.112 185.928L151.443 183.085C151.181 182.608 151.926 182.179 152.712 182.334Z" fill="#FAFAFA"/>
<path d="M163.661 176.052L174.222 169.955C174.429 169.833 174.662 169.761 174.902 169.744C175.142 169.728 175.383 169.767 175.605 169.86C175.939 170.057 175.861 170.414 175.438 170.658L164.883 176.756C164.675 176.876 164.442 176.947 164.203 176.964C163.963 176.98 163.723 176.942 163.5 176.851C163.166 176.654 163.244 176.297 163.661 176.052Z" fill="#FAFAFA"/>
<path d="M166.331 177.59L176.886 171.493C177.094 171.371 177.326 171.299 177.566 171.282C177.806 171.265 178.047 171.305 178.269 171.398C178.603 171.594 178.531 171.952 178.102 172.196L167.547 178.293C167.339 178.414 167.106 178.485 166.867 178.501C166.627 178.518 166.387 178.479 166.164 178.389C165.825 178.192 165.902 177.834 166.331 177.59Z" fill="#FAFAFA"/>
<path d="M168.989 179.128L179.544 173.031C179.751 172.907 179.984 172.834 180.224 172.818C180.464 172.801 180.705 172.841 180.927 172.935C181.267 173.132 181.189 173.489 180.76 173.734L170.217 179.831C170.009 179.951 169.776 180.023 169.536 180.039C169.297 180.056 169.056 180.017 168.834 179.926C168.488 179.73 168.56 179.372 168.989 179.128Z" fill="#FAFAFA"/>
<path d="M171.647 180.659L182.208 174.568C182.414 174.445 182.646 174.372 182.885 174.355C183.124 174.339 183.364 174.379 183.585 174.473C183.925 174.664 183.847 175.021 183.424 175.272L172.863 181.363C172.656 181.486 172.423 181.559 172.183 181.576C171.943 181.592 171.702 181.552 171.48 181.458C171.146 181.267 171.224 180.91 171.647 180.659Z" fill="#FAFAFA"/>
<path d="M174.311 182.197L184.866 176.106C185.073 175.982 185.306 175.909 185.546 175.893C185.787 175.876 186.027 175.917 186.249 176.011C186.583 176.201 186.511 176.559 186.082 176.809L175.527 182.9C175.32 183.024 175.087 183.097 174.847 183.113C174.607 183.13 174.366 183.09 174.144 182.996C173.793 182.805 173.882 182.447 174.311 182.197Z" fill="#FAFAFA"/>
<path d="M176.97 183.735L187.501 177.644C187.708 177.52 187.941 177.447 188.181 177.431C188.421 177.414 188.662 177.454 188.884 177.548C189.218 177.739 189.146 178.097 188.717 178.347L178.186 184.45C177.979 184.573 177.746 184.646 177.506 184.663C177.265 184.68 177.025 184.639 176.803 184.545C176.469 184.343 176.541 183.985 176.97 183.735Z" fill="#FAFAFA"/>
<path d="M162.296 201.317L163.166 201.823C163.407 201.944 163.672 202.007 163.941 202.007C164.21 202.007 164.475 201.944 164.716 201.823L184.98 190.136C185.409 189.885 185.409 189.486 184.98 189.242L184.104 188.735C183.863 188.615 183.598 188.552 183.329 188.552C183.06 188.552 182.795 188.615 182.554 188.735L162.29 200.423C162.196 200.454 162.115 200.515 162.058 200.596C162 200.676 161.97 200.773 161.97 200.872C161.971 200.971 162.003 201.067 162.061 201.147C162.12 201.227 162.202 201.286 162.296 201.317Z" fill="#E0E0E0"/>
<path d="M198.61 180.349L199.481 180.856C199.91 181.1 199.91 181.5 199.481 181.75L191.345 186.447C191.105 186.567 190.839 186.63 190.57 186.63C190.301 186.63 190.036 186.567 189.796 186.447L188.925 185.94C188.496 185.696 188.496 185.296 188.925 185.046L197.037 180.349C197.28 180.225 197.55 180.16 197.824 180.16C198.097 180.16 198.367 180.225 198.61 180.349Z" fill="#E0E0E0"/>
<path d="M167.678 204.41L186.905 215.502C187.305 215.704 187.747 215.81 188.195 215.81C188.644 215.81 189.086 215.704 189.486 215.502L223.219 196.03C223.375 195.977 223.51 195.877 223.606 195.743C223.702 195.61 223.753 195.45 223.753 195.285C223.753 195.121 223.702 194.961 223.606 194.827C223.51 194.693 223.375 194.593 223.219 194.54L204.016 183.443C203.616 183.24 203.174 183.134 202.726 183.134C202.278 183.134 201.836 183.24 201.436 183.443L167.678 202.926C167.525 202.98 167.392 203.08 167.297 203.213C167.203 203.346 167.153 203.505 167.153 203.668C167.153 203.831 167.203 203.99 167.297 204.123C167.392 204.255 167.525 204.356 167.678 204.41Z" fill="#EBEBEB"/>
<path d="M181.779 199.106L186.708 200.071C187.016 200.135 187.335 200.106 187.626 199.988L191.798 198.2C192.466 197.914 193.407 198.2 193.395 198.665L193.33 201.645C193.33 201.835 193.479 202.014 193.747 202.121L197.997 203.856C198.67 204.136 198.503 204.738 197.716 204.881L192.746 205.769C192.616 205.783 192.49 205.824 192.377 205.89C192.264 205.955 192.167 206.044 192.09 206.15L190.547 209.017C190.302 209.47 189.259 209.565 188.759 209.178L185.779 206.728C185.538 206.556 185.246 206.47 184.95 206.484L179.747 206.52C178.925 206.52 178.442 205.983 178.936 205.602L182.048 203.218C182.136 203.166 182.2 203.081 182.228 202.983C182.256 202.884 182.245 202.778 182.197 202.688L180.522 199.845C180.254 199.386 180.999 198.957 181.779 199.106Z" fill="#FAFAFA"/>
<path d="M192.74 192.83L203.295 186.733C203.502 186.61 203.735 186.538 203.975 186.522C204.215 186.505 204.456 186.545 204.678 186.637C205.017 186.834 204.94 187.192 204.511 187.436L193.956 193.533C193.748 193.653 193.515 193.725 193.275 193.741C193.036 193.758 192.795 193.719 192.573 193.628C192.269 193.432 192.311 193.074 192.74 192.83Z" fill="#FAFAFA"/>
<path d="M195.398 194.367L205.977 188.27C206.184 188.148 206.417 188.076 206.657 188.059C206.897 188.043 207.138 188.082 207.36 188.175C207.694 188.372 207.616 188.729 207.193 188.974L196.632 195.071C196.425 195.194 196.193 195.268 195.953 195.287C195.713 195.306 195.472 195.268 195.249 195.178C194.897 194.969 194.975 194.612 195.398 194.367Z" fill="#FAFAFA"/>
<path d="M198.062 195.899L208.617 189.814C208.824 189.69 209.057 189.617 209.297 189.601C209.537 189.584 209.778 189.625 210 189.719C210.334 189.909 210.262 190.267 209.833 190.517L199.278 196.608C199.07 196.729 198.837 196.8 198.598 196.816C198.358 196.833 198.118 196.794 197.895 196.704C197.556 196.507 197.633 196.149 198.062 195.899Z" fill="#FAFAFA"/>
<path d="M200.72 197.437L211.275 191.346C211.482 191.222 211.715 191.149 211.955 191.133C212.196 191.116 212.436 191.156 212.658 191.25C212.998 191.441 212.92 191.799 212.491 192.049L201.936 198.158C201.729 198.281 201.496 198.354 201.256 198.371C201.016 198.388 200.775 198.347 200.553 198.253C200.22 198.045 200.291 197.687 200.72 197.437Z" fill="#FAFAFA"/>
<path d="M203.379 198.974L213.94 192.883C214.145 192.76 214.377 192.687 214.617 192.67C214.856 192.654 215.096 192.694 215.316 192.788C215.656 192.979 215.579 193.336 215.156 193.587L204.594 199.678C204.388 199.801 204.155 199.874 203.914 199.891C203.674 199.907 203.433 199.867 203.212 199.773C202.878 199.582 202.955 199.225 203.379 198.974Z" fill="#FAFAFA"/>
<path d="M206.043 200.542L216.598 194.451C216.805 194.327 217.037 194.254 217.278 194.238C217.518 194.221 217.759 194.262 217.98 194.355C218.314 194.546 218.243 194.904 217.814 195.154L207.258 201.245C207.052 201.369 206.819 201.442 206.578 201.458C206.338 201.475 206.097 201.434 205.876 201.341C205.536 201.138 205.613 200.762 206.043 200.542Z" fill="#FAFAFA"/>
<path d="M191.363 218.094L192.239 218.601C192.48 218.721 192.745 218.784 193.014 218.784C193.283 218.784 193.548 218.721 193.789 218.601L214.053 206.913C214.147 206.882 214.228 206.822 214.286 206.742C214.344 206.662 214.376 206.565 214.376 206.466C214.376 206.367 214.344 206.271 214.286 206.19C214.228 206.11 214.147 206.05 214.053 206.019L213.177 205.513C212.936 205.392 212.671 205.329 212.402 205.329C212.133 205.329 211.867 205.392 211.627 205.513L191.363 217.2C191.269 217.231 191.187 217.291 191.129 217.371C191.071 217.452 191.04 217.548 191.04 217.647C191.04 217.746 191.071 217.843 191.129 217.923C191.187 218.003 191.269 218.063 191.363 218.094Z" fill="#E0E0E0"/>
<path d="M227.677 197.127L228.553 197.633C228.983 197.878 228.983 198.277 228.553 198.527L220.418 203.224C220.178 203.345 219.912 203.407 219.643 203.407C219.374 203.407 219.109 203.345 218.868 203.224L217.992 202.717C217.898 202.686 217.817 202.626 217.759 202.546C217.701 202.466 217.669 202.369 217.669 202.27C217.669 202.171 217.701 202.075 217.759 201.995C217.817 201.914 217.898 201.854 217.992 201.823L226.134 197.127C226.373 197.006 226.637 196.944 226.906 196.944C227.174 196.944 227.438 197.006 227.677 197.127Z" fill="#E0E0E0"/>
<path d="M148.332 172.047C148.169 172.127 147.989 172.169 147.807 172.169C147.626 172.169 147.446 172.127 147.283 172.047C147.221 172.025 147.168 171.985 147.13 171.932C147.092 171.878 147.072 171.815 147.072 171.749C147.072 171.684 147.092 171.62 147.13 171.567C147.168 171.513 147.221 171.473 147.283 171.451C147.446 171.371 147.626 171.33 147.807 171.33C147.989 171.33 148.169 171.371 148.332 171.451C148.624 171.612 148.624 171.88 148.332 172.047Z" fill="#263238"/>
<path d="M146.657 176.809C146.332 176.974 145.973 177.059 145.608 177.059C145.244 177.059 144.884 176.974 144.559 176.809C144.441 176.761 144.339 176.678 144.268 176.572C144.197 176.466 144.159 176.341 144.159 176.213C144.159 176.085 144.197 175.96 144.268 175.854C144.339 175.748 144.441 175.666 144.559 175.617C144.884 175.453 145.244 175.367 145.608 175.367C145.973 175.367 146.332 175.453 146.657 175.617C146.776 175.666 146.877 175.748 146.948 175.854C147.02 175.96 147.058 176.085 147.058 176.213C147.058 176.341 147.02 176.466 146.948 176.572C146.877 176.678 146.776 176.761 146.657 176.809Z" fill="#263238"/>
<path d="M148.165 174.699C147.778 174.473 147.801 174.103 148.213 173.865L155.114 169.878C155.338 169.763 155.587 169.703 155.838 169.703C156.09 169.703 156.338 169.763 156.563 169.878C156.944 170.098 156.926 170.474 156.515 170.712L149.613 174.693C149.389 174.808 149.141 174.867 148.89 174.869C148.638 174.87 148.39 174.812 148.165 174.699Z" fill="#263238"/>
<path d="M131.423 116.393V117.793L126.584 120.589L119.325 124.761L55.2426 161.802C54.863 162.04 54.5494 162.37 54.3308 162.761C54.0953 163.146 53.9638 163.586 53.9493 164.037V249.205C53.9493 253.836 50.6952 255.714 46.69 253.377C42.6849 251.041 39.4248 245.433 39.4248 240.802V155.627C39.4496 155.179 39.5796 154.744 39.8043 154.355C40.029 153.967 40.3421 153.637 40.7181 153.392L112.053 112.203L118.961 108.222C119.192 108.61 119.319 109.051 119.331 109.503V110.802L43.1379 154.906C42.7803 155.128 42.4834 155.435 42.2737 155.8C42.0132 156.2 41.8669 156.664 41.8505 157.141V242.196C41.8505 245.284 44.02 249.033 46.696 250.576C49.372 252.12 51.5355 250.868 51.5355 247.781V162.612C51.5562 162.166 51.682 161.731 51.9026 161.343C52.1232 160.955 52.4324 160.624 52.805 160.377L131.048 115.201C131.273 115.559 131.402 115.97 131.423 116.393Z" fill="#E0E0E0"/>
<path d="M124.158 112.292V116.393L50.4207 158.983C50.0418 159.224 49.7251 159.551 49.4962 159.937C49.2674 160.323 49.1329 160.758 49.1036 161.206V246.374C49.1036 247.918 48.0248 248.544 46.6898 247.769C45.9868 247.313 45.4013 246.697 44.9808 245.972C44.5604 245.248 44.3169 244.434 44.27 243.597V158.423C44.2854 157.973 44.4146 157.534 44.6455 157.147C44.8677 156.758 45.1805 156.429 45.5574 156.188L123.794 111.017C124.021 111.405 124.146 111.843 124.158 112.292Z" fill="#E0E0E0"/>
<path d="M56.7444 164.138C56.5127 164.522 56.3835 164.959 56.3689 165.408V249.843C56.3702 250.457 56.3303 251.07 56.2497 251.679C56.2259 251.838 56.202 251.993 56.1782 252.144C56.1782 252.287 56.1246 252.424 56.0948 252.567C56.065 252.71 56.0352 252.817 55.9994 252.936C55.9636 253.055 55.9398 253.169 55.904 253.282C55.5092 254.732 54.5811 255.98 53.3055 256.775C51.5711 257.77 49.2467 257.651 46.6899 256.179C41.3259 253.091 37.0049 245.248 37.0049 238.668V154.227C37.0194 153.778 37.1487 153.341 37.3804 152.957L39.8061 154.352C39.5706 154.737 39.4392 155.176 39.4246 155.627V240.796C39.4246 245.427 42.6788 251.059 46.6899 253.371C50.701 255.684 53.9492 253.812 53.9492 249.199V164.013C53.9637 163.562 54.0951 163.123 54.3306 162.738L56.7444 164.138Z" fill="#EBEBEB"/>
<path d="M51.9047 161.343C51.6738 161.727 51.5446 162.164 51.5292 162.612V247.781C51.5292 250.868 49.3598 252.12 46.6897 250.576C44.0196 249.033 41.8442 245.284 41.8442 242.196V157.117C41.8606 156.64 42.0069 156.177 42.2674 155.776L44.6514 157.147C44.4205 157.534 44.2913 157.973 44.2759 158.423V243.591C44.3228 244.428 44.5663 245.242 44.9867 245.966C45.4072 246.691 45.9927 247.307 46.6957 247.763C48.0307 248.538 49.1095 247.912 49.1095 246.368V161.206C49.124 160.755 49.2554 160.315 49.4909 159.93L51.9047 161.343Z" fill="#EBEBEB"/>
<path d="M118.961 108.222L112.065 112.203L40.718 153.392C40.337 153.629 40.023 153.959 39.8061 154.352L37.3804 152.957C37.5971 152.563 37.911 152.231 38.2923 151.992L109.633 110.802L111.01 110.004L112.405 109.217L113.597 108.525L114.306 108.114L115.623 107.357C116.007 107.153 116.434 107.042 116.869 107.034C117.304 107.026 117.735 107.12 118.126 107.31C118.479 107.536 118.767 107.85 118.961 108.222Z" fill="#FAFAFA"/>
<path d="M135.893 118.002L128.997 121.983L116.893 128.968L57.6622 163.173C57.2806 163.413 56.9651 163.745 56.7444 164.138L54.3604 162.738C54.5738 162.359 54.8766 162.037 55.2424 161.802L119.318 124.784L126.578 120.612L131.417 117.817L132.544 117.167L132.669 117.102C133.041 116.924 133.448 116.831 133.861 116.831C134.273 116.831 134.681 116.924 135.053 117.102L135.178 117.179C135.473 117.399 135.717 117.679 135.893 118.002Z" fill="#FAFAFA"/>
<path d="M123.795 111.017L45.5576 156.188C45.1807 156.429 44.8679 156.759 44.6457 157.147L42.2617 155.776C42.4714 155.412 42.7684 155.104 43.1259 154.882L119.319 110.778L120.439 110.129C120.823 109.924 121.25 109.814 121.685 109.805C122.12 109.797 122.551 109.892 122.942 110.081C123.303 110.313 123.597 110.636 123.795 111.017Z" fill="#FAFAFA"/>
<path d="M131.066 115.201L52.8049 160.377C52.4219 160.616 52.1061 160.948 51.887 161.343L49.4673 159.942C49.6958 159.545 50.0246 159.214 50.4209 158.983L124.182 116.393L127.758 114.342C128.142 114.139 128.57 114.029 129.004 114.022C129.439 114.015 129.87 114.11 130.261 114.301C130.602 114.527 130.879 114.837 131.066 115.201Z" fill="#FAFAFA"/>
<path d="M136.245 119.283V203.719C136.245 207.181 135.053 209.607 133.128 210.68L53.1924 256.834C53.9001 256.409 54.5138 255.844 54.9964 255.174C55.479 254.504 55.8203 253.742 55.9995 252.936C56.0353 252.817 56.0651 252.692 56.0949 252.567C56.1247 252.442 56.1485 252.287 56.1783 252.144C56.2081 252.001 56.226 251.84 56.2499 251.679C56.3305 251.07 56.3703 250.457 56.3691 249.843V165.408C56.3836 164.959 56.5129 164.522 56.7445 164.138C56.9652 163.745 57.2808 163.413 57.6624 163.173L116.893 128.974L128.998 121.989L135.893 118.008C136.118 118.396 136.239 118.835 136.245 119.283Z" fill="#F5F5F5"/>
<path d="M64.9276 164.573L76.8476 157.678C77.5628 157.266 78.135 157.594 78.135 158.423V175.009C78.1118 175.457 77.9831 175.893 77.7593 176.281C77.5356 176.67 77.2232 177 76.8476 177.244L64.9276 184.14C64.2124 184.551 63.6343 184.217 63.6343 183.395V166.808C63.6586 166.36 63.7884 165.924 64.0132 165.536C64.2379 165.148 64.5512 164.818 64.9276 164.573Z" fill="#455A64"/>
<path d="M63.6343 190.475L129.004 152.737V155.532L63.6343 193.271V190.475Z" fill="url(#paint4_linear_23_535)"/>
<path opacity="0.4" d="M63.6343 190.475L129.004 152.737V155.532L63.6343 193.271V190.475Z" fill="white"/>
<path d="M64.4091 198.414L77.39 190.922C77.8131 190.672 78.1588 190.875 78.1588 191.369V217.534C78.1449 217.802 78.0681 218.063 77.9345 218.296C77.8009 218.529 77.6144 218.727 77.39 218.875L64.4091 226.367C63.98 226.617 63.6343 226.414 63.6343 225.92V199.755C63.6484 199.486 63.7259 199.225 63.8606 198.992C63.9953 198.759 64.1832 198.561 64.4091 198.414Z" fill="#F0F0F0"/>
<path d="M64.4091 229.15L77.39 221.652C77.8131 221.408 78.1588 221.611 78.1588 222.099V242.578L63.6343 250.981V230.509C63.6456 230.237 63.7218 229.972 63.8566 229.735C63.9914 229.499 64.1808 229.298 64.4091 229.15Z" fill="#F0F0F0"/>
<path d="M81.3593 188.622L94.3342 181.13C94.7633 180.886 95.109 181.083 95.109 181.577V216.145C95.0944 216.414 95.0167 216.675 94.8821 216.908C94.7474 217.141 94.5597 217.339 94.3342 217.486L81.3593 224.978C80.9302 225.222 80.5845 225.026 80.5845 224.531V189.963C80.6 189.694 80.6781 189.433 80.8127 189.2C80.9472 188.968 81.1344 188.769 81.3593 188.622Z" fill="#F0F0F0"/>
<path d="M98.3036 178.848L111.279 171.338C111.708 171.088 112.053 171.29 112.053 171.785V197.949C112.039 198.218 111.962 198.48 111.827 198.713C111.692 198.946 111.504 199.144 111.279 199.29L98.3036 206.8C97.8745 207.05 97.5288 206.848 97.5288 206.353V180.189C97.5429 179.92 97.6204 179.658 97.7551 179.425C97.8898 179.192 98.0777 178.994 98.3036 178.848Z" fill="#F0F0F0"/>
<path d="M115.254 169.061L128.229 161.569C128.658 161.319 129.004 161.522 129.004 162.016V196.584C128.988 196.853 128.91 197.114 128.775 197.347C128.641 197.58 128.454 197.778 128.229 197.925L115.254 205.417C114.825 205.662 114.479 205.465 114.479 204.97V170.402C114.493 170.133 114.571 169.872 114.705 169.639C114.84 169.406 115.028 169.208 115.254 169.061Z" fill="#F0F0F0"/>
<path d="M81.3593 227.767L94.3342 220.275C94.7633 220.025 95.109 220.228 95.109 220.722V232.809L80.5845 241.201V229.108C80.5986 228.839 80.6761 228.578 80.8108 228.345C80.9454 228.112 81.1334 227.914 81.3593 227.767Z" fill="#F0F0F0"/>
<path d="M97.5049 210.936V231.415L112.029 223.029V202.55C112.029 202.056 111.684 201.859 111.255 202.103L98.2797 209.595C98.0542 209.742 97.8664 209.94 97.7318 210.173C97.5972 210.406 97.5194 210.667 97.5049 210.936Z" fill="#F0F0F0"/>
<path d="M115.248 208.201L128.229 200.709C128.658 200.458 129.004 200.661 129.004 201.156V213.243L114.479 221.628V209.542C114.493 209.273 114.57 209.012 114.703 208.779C114.837 208.546 115.023 208.348 115.248 208.201Z" fill="#F0F0F0"/>
<path d="M83.7968 229.15L91.9322 224.453C92.3613 224.203 92.707 224.406 92.707 224.9V231.534C92.6929 231.803 92.6153 232.064 92.4807 232.298C92.346 232.531 92.158 232.728 91.9322 232.875L83.7968 237.559C83.3677 237.804 83.022 237.607 83.022 237.112V230.515C83.0323 230.242 83.1081 229.975 83.243 229.738C83.3778 229.5 83.5677 229.299 83.7968 229.15Z" fill="#E0E0E0"/>
<path d="M117.673 209.607L125.809 204.911C126.232 204.66 126.583 204.863 126.583 205.358V211.955C126.567 212.224 126.489 212.485 126.355 212.717C126.22 212.95 126.033 213.148 125.809 213.296L117.673 217.993C117.244 218.237 116.898 218.04 116.898 217.546V210.948C116.913 210.679 116.99 210.418 117.125 210.185C117.259 209.951 117.447 209.754 117.673 209.607Z" fill="#E0E0E0"/>
<path d="M66.8285 199.815L74.9639 195.112C75.393 194.868 75.7387 195.071 75.7387 195.559V202.163C75.7232 202.432 75.6451 202.693 75.5105 202.926C75.376 203.158 75.1888 203.357 74.9639 203.504L66.8285 208.201C66.4053 208.445 66.0537 208.248 66.0537 207.754V201.138C66.071 200.872 66.15 200.614 66.2846 200.385C66.4191 200.155 66.6053 199.96 66.8285 199.815Z" fill="#E0E0E0"/>
<path d="M66.5722 209.744L75.2261 204.75C75.5122 204.589 75.7387 204.72 75.7387 205.048V205.256C75.7296 205.435 75.6784 205.609 75.5894 205.765C75.5003 205.92 75.3759 206.052 75.2261 206.15L66.5722 211.145C66.2861 211.312 66.0537 211.145 66.0537 210.847V210.638C66.0639 210.459 66.1162 210.285 66.2063 210.129C66.2964 209.974 66.4217 209.842 66.5722 209.744Z" fill="#E0E0E0"/>
<path d="M66.5722 212.539L75.2261 207.545C75.5122 207.384 75.7387 207.515 75.7387 207.843V208.052C75.7296 208.23 75.6784 208.405 75.5894 208.56C75.5003 208.715 75.3759 208.847 75.2261 208.946L66.5722 213.94C66.2861 214.107 66.0537 213.94 66.0537 213.642V213.433C66.0639 213.254 66.1162 213.08 66.2063 212.925C66.2964 212.769 66.4217 212.637 66.5722 212.539Z" fill="#E0E0E0"/>
<path d="M66.5722 215.335L75.2261 210.34C75.5122 210.179 75.7387 210.31 75.7387 210.638V210.847C75.7296 211.026 75.6784 211.2 75.5894 211.355C75.5003 211.51 75.3759 211.643 75.2261 211.741L66.5722 216.735C66.2861 216.902 66.0537 216.765 66.0537 216.437V216.229C66.0639 216.049 66.1162 215.875 66.2063 215.72C66.2964 215.564 66.4217 215.433 66.5722 215.335Z" fill="#E0E0E0"/>
<path d="M66.5722 218.13L75.2261 213.135C75.5122 212.974 75.7387 213.106 75.7387 213.433V213.654C75.7296 213.833 75.6784 214.007 75.5894 214.162C75.5003 214.318 75.3759 214.45 75.2261 214.548L66.5722 219.542C66.2861 219.709 66.0537 219.572 66.0537 219.244V219.018C66.0649 218.84 66.1176 218.667 66.2076 218.512C66.2976 218.358 66.4225 218.227 66.5722 218.13Z" fill="#E0E0E0"/>
<path d="M66.5722 220.925L75.2261 215.931C75.5122 215.77 75.7387 215.901 75.7387 216.229V216.437C75.7296 216.616 75.6784 216.79 75.5894 216.946C75.5003 217.101 75.3759 217.233 75.2261 217.331L66.5722 222.326C66.2861 222.493 66.0537 222.356 66.0537 222.028V221.819C66.0639 221.64 66.1162 221.466 66.2063 221.31C66.2964 221.155 66.4217 221.023 66.5722 220.925Z" fill="#E0E0E0"/>
<path d="M83.7968 190.029L91.9322 185.332C92.3613 185.082 92.707 185.284 92.707 185.779V192.377C92.6924 192.645 92.6147 192.907 92.48 193.14C92.3454 193.373 92.1577 193.571 91.9322 193.718L83.7968 198.414C83.3677 198.659 83.022 198.462 83.022 197.967V191.37C83.0361 191.101 83.1136 190.839 83.2483 190.606C83.383 190.373 83.5709 190.175 83.7968 190.029Z" fill="#E0E0E0"/>
<path d="M83.517 199.946L92.1709 194.951C92.457 194.785 92.6894 194.916 92.6894 195.249V195.452C92.6796 195.631 92.6276 195.806 92.5374 195.961C92.4473 196.117 92.3217 196.249 92.1709 196.346L83.517 201.341C83.2368 201.507 83.0044 201.341 83.0044 201.043V200.84C83.0135 200.661 83.0647 200.487 83.1537 200.332C83.2428 200.176 83.3672 200.044 83.517 199.946Z" fill="#E0E0E0"/>
<path d="M83.517 202.759L92.1709 197.765C92.457 197.598 92.6894 197.729 92.6894 198.063V198.265C92.6796 198.445 92.6276 198.619 92.5374 198.774C92.4473 198.93 92.3217 199.062 92.1709 199.159L83.517 204.154C83.2368 204.321 83.0044 204.183 83.0044 203.856V203.653C83.0135 203.474 83.0647 203.3 83.1537 203.145C83.2428 202.989 83.3672 202.857 83.517 202.759Z" fill="#E0E0E0"/>
<path d="M83.517 205.554L92.1709 200.542C92.457 200.375 92.6894 200.506 92.6894 200.84V201.043C92.6796 201.222 92.6276 201.396 92.5374 201.552C92.4473 201.707 92.3217 201.839 92.1709 201.937L83.517 206.931C83.2368 207.098 83.0044 206.961 83.0044 206.633V206.43C83.0162 206.255 83.0687 206.084 83.1576 205.932C83.2466 205.78 83.3696 205.651 83.517 205.554Z" fill="#E0E0E0"/>
<path d="M83.517 208.35L92.1709 203.355C92.457 203.188 92.6894 203.319 92.6894 203.653V203.856C92.6796 204.035 92.6276 204.21 92.5374 204.365C92.4473 204.52 92.3217 204.652 92.1709 204.75L83.517 209.744C83.2368 209.911 83.0044 209.774 83.0044 209.446V209.244C83.0135 209.065 83.0647 208.891 83.1537 208.735C83.2428 208.58 83.3672 208.448 83.517 208.35Z" fill="#E0E0E0"/>
<path d="M83.517 211.145L92.1709 206.15C92.457 205.983 92.6894 206.115 92.6894 206.448V206.651C92.6796 206.83 92.6276 207.005 92.5374 207.16C92.4473 207.316 92.3217 207.447 92.1709 207.545L83.517 212.539C83.2368 212.706 83.0044 212.569 83.0044 212.241V212.039C83.0135 211.86 83.0647 211.686 83.1537 211.53C83.2428 211.375 83.3672 211.243 83.517 211.145Z" fill="#E0E0E0"/>
<path d="M83.517 213.94L92.1709 208.946C92.457 208.779 92.6894 208.916 92.6894 209.244V209.446C92.6806 209.626 92.6289 209.801 92.5387 209.956C92.4485 210.112 92.3224 210.243 92.1709 210.34L83.517 215.335C83.2368 215.502 83.0044 215.37 83.0044 215.037V214.846C83.0131 214.665 83.064 214.489 83.153 214.332C83.242 214.175 83.3667 214.04 83.517 213.94Z" fill="#E0E0E0"/>
<path d="M83.517 216.735L92.1709 211.741C92.457 211.574 92.6894 211.711 92.6894 212.039V212.241C92.6806 212.421 92.6289 212.596 92.5387 212.751C92.4485 212.907 92.3224 213.039 92.1709 213.135L83.517 218.13C83.2368 218.297 83.0044 218.166 83.0044 217.832V217.629C83.0149 217.451 83.0666 217.277 83.1556 217.122C83.2445 216.967 83.3682 216.834 83.517 216.735Z" fill="#E0E0E0"/>
<path d="M83.517 219.53L92.1709 214.536C92.457 214.369 92.6894 214.506 92.6894 214.834V215.037C92.6806 215.216 92.6289 215.391 92.5387 215.547C92.4485 215.702 92.3224 215.834 92.1709 215.931L83.517 220.925C83.2368 221.092 83.0044 220.961 83.0044 220.627V220.424C83.0149 220.246 83.0666 220.072 83.1556 219.917C83.2445 219.762 83.3682 219.63 83.517 219.53Z" fill="#E0E0E0"/>
<path d="M66.8285 230.568L74.9639 225.866C75.393 225.622 75.7387 225.824 75.7387 226.313V232.917C75.7242 233.185 75.6464 233.447 75.5118 233.68C75.3771 233.913 75.1894 234.111 74.9639 234.258L66.8285 238.954C66.4053 239.198 66.0537 239.002 66.0537 238.507V231.909C66.0683 231.641 66.146 231.379 66.2806 231.146C66.4153 230.913 66.603 230.715 66.8285 230.568Z" fill="#E0E0E0"/>
<path d="M66.5722 240.474L75.2261 235.479C75.5122 235.319 75.7387 235.45 75.7387 235.777V235.986C75.7296 236.165 75.6784 236.339 75.5894 236.494C75.5003 236.65 75.3759 236.782 75.2261 236.88L66.5722 241.875C66.2861 242.041 66.0537 241.904 66.0537 241.577V241.368C66.0639 241.189 66.1162 241.014 66.2063 240.859C66.2964 240.704 66.4217 240.572 66.5722 240.474Z" fill="#E0E0E0"/>
<path d="M66.5722 243.293L75.2261 238.299C75.5122 238.138 75.7387 238.269 75.7387 238.597V238.805C75.7296 238.984 75.6784 239.158 75.5894 239.313C75.5003 239.469 75.3759 239.601 75.2261 239.699L66.5722 244.694C66.2861 244.86 66.0537 244.723 66.0537 244.396V244.187C66.0639 244.008 66.1162 243.833 66.2063 243.678C66.2964 243.523 66.4217 243.391 66.5722 243.293Z" fill="#E0E0E0"/>
<path d="M66.5722 246.094L75.2261 241.07C75.5122 240.909 75.7387 241.04 75.7387 241.368V241.577C75.7296 241.755 75.6784 241.93 75.5894 242.085C75.5003 242.24 75.3759 242.372 75.2261 242.471L66.5722 247.465C66.2861 247.632 66.0537 247.495 66.0537 247.167V246.964C66.0662 246.789 66.1196 246.619 66.2096 246.468C66.2997 246.317 66.4239 246.189 66.5722 246.094Z" fill="#E0E0E0"/>
<path d="M100.723 180.242L108.858 175.546C109.288 175.301 109.633 175.498 109.633 175.993V182.59C109.619 182.859 109.542 183.121 109.407 183.354C109.272 183.587 109.084 183.785 108.858 183.931L100.723 188.622C100.3 188.866 99.9482 188.664 99.9482 188.175V181.583C99.9646 181.315 100.043 181.054 100.178 180.821C100.312 180.589 100.499 180.39 100.723 180.242Z" fill="#E0E0E0"/>
<path d="M100.485 190.177L109.139 185.183C109.419 185.022 109.651 185.183 109.651 185.481V185.69C109.641 185.868 109.589 186.042 109.5 186.197C109.411 186.352 109.287 186.484 109.139 186.584L100.485 191.602C100.199 191.763 99.9663 191.602 99.9663 191.304V191.095C99.9728 190.912 100.023 190.733 100.114 190.573C100.204 190.413 100.331 190.278 100.485 190.177Z" fill="#E0E0E0"/>
<path d="M100.485 192.973L109.139 187.978C109.419 187.817 109.651 187.978 109.651 188.276V188.485C109.641 188.663 109.589 188.837 109.5 188.992C109.411 189.147 109.287 189.28 109.139 189.379L100.485 194.373C100.199 194.534 99.9663 194.373 99.9663 194.075V193.867C99.9765 193.687 100.029 193.513 100.119 193.358C100.209 193.203 100.334 193.071 100.485 192.973Z" fill="#E0E0E0"/>
<path d="M100.485 195.774L109.139 190.779C109.419 190.619 109.651 190.75 109.651 191.077V191.286C109.641 191.465 109.589 191.638 109.5 191.793C109.411 191.948 109.287 192.081 109.139 192.18L100.485 197.169C100.199 197.329 99.9663 197.169 99.9663 196.871V196.662C99.9775 196.484 100.03 196.311 100.12 196.156C100.21 196.002 100.335 195.871 100.485 195.774Z" fill="#E0E0E0"/>
<path d="M100.485 198.563L109.139 193.569C109.419 193.408 109.651 193.539 109.651 193.867V194.075C109.641 194.254 109.589 194.427 109.5 194.583C109.411 194.738 109.287 194.87 109.139 194.969L100.485 199.946C100.199 200.107 99.9663 199.976 99.9663 199.648V199.439C99.9793 199.263 100.033 199.092 100.123 198.94C100.213 198.788 100.337 198.659 100.485 198.563Z" fill="#E0E0E0"/>
<path d="M100.485 201.358L109.121 196.37C109.401 196.209 109.633 196.34 109.633 196.668V196.877C109.623 197.055 109.571 197.229 109.482 197.384C109.393 197.539 109.27 197.671 109.121 197.771L100.485 202.759C100.199 202.92 99.9663 202.789 99.9663 202.461V202.252C99.9765 202.073 100.029 201.899 100.119 201.744C100.209 201.588 100.334 201.456 100.485 201.358Z" fill="#E0E0E0"/>
<path d="M117.673 170.462L125.809 165.765C126.232 165.515 126.583 165.718 126.583 166.212V172.81C126.567 173.078 126.489 173.339 126.355 173.572C126.22 173.805 126.033 174.003 125.809 174.151L117.673 178.848C117.244 179.092 116.898 178.895 116.898 178.401V171.803C116.913 171.534 116.99 171.272 117.125 171.039C117.259 170.806 117.447 170.608 117.673 170.462Z" fill="#E0E0E0"/>
<path d="M117.411 180.391L126.065 175.397C126.351 175.236 126.583 175.367 126.583 175.695V175.903C126.573 176.083 126.521 176.257 126.431 176.412C126.341 176.567 126.215 176.699 126.065 176.797L117.411 181.792C117.131 181.959 116.898 181.822 116.898 181.494V181.285C116.909 181.107 116.961 180.933 117.05 180.778C117.139 180.623 117.262 180.49 117.411 180.391Z" fill="#E0E0E0"/>
<path d="M117.411 183.192L126.065 178.192C126.351 178.031 126.583 178.162 126.583 178.49V178.699C126.573 178.878 126.521 179.052 126.431 179.207C126.341 179.363 126.215 179.495 126.065 179.593L117.411 184.587C117.131 184.754 116.898 184.617 116.898 184.289V184.086C116.908 183.908 116.959 183.733 117.048 183.578C117.137 183.423 117.261 183.291 117.411 183.192Z" fill="#E0E0E0"/>
<path d="M117.411 185.988L126.065 180.987C126.351 180.826 126.583 180.957 126.583 181.285V181.47C126.573 181.649 126.521 181.823 126.431 181.979C126.341 182.134 126.215 182.266 126.065 182.364L117.411 187.358C117.131 187.525 116.898 187.388 116.898 187.06V186.858C116.911 186.683 116.964 186.514 117.053 186.363C117.142 186.212 117.264 186.083 117.411 185.988Z" fill="#E0E0E0"/>
<path d="M117.411 188.783L126.065 183.782C126.351 183.621 126.583 183.782 126.583 184.08V184.289C126.573 184.468 126.521 184.643 126.431 184.798C126.341 184.953 126.215 185.085 126.065 185.183L117.411 190.177C117.131 190.344 116.898 190.177 116.898 189.879V189.677C116.908 189.498 116.959 189.324 117.048 189.169C117.137 189.013 117.261 188.881 117.411 188.783Z" fill="#E0E0E0"/>
<path d="M117.411 191.602L126.065 186.601C126.351 186.441 126.583 186.601 126.583 186.899V187.108C126.573 187.287 126.521 187.462 126.431 187.617C126.341 187.772 126.215 187.904 126.065 188.002L117.411 192.973C117.131 193.14 116.898 192.973 116.898 192.675V192.472C116.911 192.297 116.964 192.128 117.053 191.977C117.142 191.826 117.264 191.698 117.411 191.602Z" fill="#E0E0E0"/>
<path d="M117.411 194.373L126.065 189.379C126.351 189.212 126.583 189.343 126.583 189.677V189.879C126.574 190.059 126.522 190.233 126.431 190.389C126.341 190.544 126.216 190.676 126.065 190.773L117.411 195.774C117.131 195.941 116.898 195.774 116.898 195.476V195.273C116.907 195.094 116.958 194.918 117.047 194.762C117.136 194.606 117.261 194.472 117.411 194.373Z" fill="#E0E0E0"/>
<path d="M117.411 197.169L126.065 192.198C126.351 192.031 126.583 192.162 126.583 192.496V192.699C126.574 192.878 126.522 193.052 126.431 193.208C126.341 193.363 126.216 193.495 126.065 193.593L117.411 198.587C117.131 198.754 116.898 198.587 116.898 198.289V198.086C116.904 197.904 116.954 197.725 117.043 197.565C117.132 197.405 117.258 197.269 117.411 197.169Z" fill="#E0E0E0"/>
<path d="M117.411 199.946L126.065 194.951C126.351 194.785 126.583 194.916 126.583 195.249V195.452C126.574 195.631 126.522 195.806 126.431 195.961C126.341 196.117 126.216 196.249 126.065 196.346L117.411 201.341C117.131 201.507 116.898 201.376 116.898 201.043V200.84C116.908 200.661 116.959 200.487 117.048 200.332C117.137 200.177 117.262 200.044 117.411 199.946Z" fill="#E0E0E0"/>
<path d="M100.723 210.996L108.858 206.299C109.288 206.055 109.633 206.252 109.633 206.746V213.344C109.619 213.613 109.542 213.875 109.407 214.108C109.272 214.341 109.084 214.539 108.858 214.685L100.723 219.387C100.3 219.632 99.9482 219.429 99.9482 218.94V212.337C99.9646 212.069 100.043 211.808 100.178 211.575C100.312 211.342 100.499 211.144 100.723 210.996Z" fill="#E0E0E0"/>
<path d="M100.485 220.931L109.139 215.937C109.419 215.776 109.651 215.907 109.651 216.235V216.443C109.641 216.622 109.589 216.795 109.5 216.95C109.411 217.106 109.287 217.238 109.139 217.337L100.485 222.332C100.199 222.493 99.9663 222.361 99.9663 222.034V221.825C99.9765 221.646 100.029 221.472 100.119 221.316C100.209 221.161 100.334 221.029 100.485 220.931Z" fill="#E0E0E0"/>
<path d="M100.485 223.726L109.139 218.732C109.419 218.571 109.651 218.732 109.651 219.03V219.238C109.641 219.417 109.589 219.591 109.5 219.746C109.411 219.901 109.287 220.033 109.139 220.132L100.485 225.127C100.199 225.288 99.9663 225.157 99.9663 224.829V224.62C99.9765 224.441 100.029 224.267 100.119 224.111C100.209 223.956 100.334 223.824 100.485 223.726Z" fill="#E0E0E0"/>
<path d="M100.485 226.522L109.139 221.527C109.419 221.366 109.651 221.527 109.651 221.825V222.034C109.641 222.212 109.589 222.386 109.5 222.541C109.411 222.696 109.287 222.828 109.139 222.928L100.485 227.922C100.199 228.083 99.9663 227.952 99.9663 227.624V227.416C99.9765 227.236 100.029 227.062 100.119 226.907C100.209 226.751 100.334 226.619 100.485 226.522Z" fill="#E0E0E0"/>
<path d="M83.3795 171.97C83.2603 171.93 83.2007 171.817 83.2007 171.63C83.2079 171.449 83.2441 171.269 83.308 171.1L83.9516 169.049C83.9927 168.864 84.0857 168.695 84.2198 168.561C84.2637 168.537 84.3129 168.524 84.3629 168.524C84.4129 168.524 84.4621 168.537 84.5059 168.561C84.8373 168.699 85.1983 168.752 85.5555 168.715C85.9128 168.677 86.2549 168.551 86.5502 168.346C87.083 168.035 87.5011 167.561 87.7422 166.993C88.0208 166.296 88.1527 165.55 88.1296 164.8V152.778C88.1185 152.431 88.1815 152.086 88.3144 151.765C88.4573 151.469 88.6912 151.227 88.9819 151.074L90.305 150.311C90.603 150.138 90.8176 150.114 90.9427 150.245C91.1003 150.482 91.1679 150.768 91.1334 151.05V163.113C91.1549 164.806 90.7964 166.482 90.0845 168.018C89.4358 169.432 88.363 170.609 87.0151 171.386C85.5807 172.216 84.3688 172.411 83.3795 171.97Z" fill="#455A64"/>
<path d="M94.1137 164.728C93.0448 163.632 92.5104 161.532 92.5104 158.429C92.4496 155.629 92.9966 152.849 94.1137 150.281C95.066 148.085 96.6919 146.248 98.7565 145.036C100.777 143.844 102.333 143.844 103.387 144.929C104.442 146.014 104.991 148.118 104.991 151.223C105.051 154.023 104.505 156.802 103.387 159.37C102.438 161.563 100.816 163.397 98.7565 164.609C96.7301 165.777 95.1825 165.817 94.1137 164.728ZM101.218 158.268C101.824 156.546 102.107 154.728 102.052 152.904C102.052 150.754 101.774 149.292 101.218 148.517C100.664 147.742 99.8472 147.671 98.7565 148.297C97.6003 149.005 96.7244 150.092 96.2772 151.372C95.672 153.093 95.3911 154.912 95.4487 156.736C95.4487 158.882 95.7229 160.348 96.2772 161.117C96.8314 161.885 97.6599 161.963 98.7565 161.325C99.9078 160.623 100.778 159.542 101.218 158.268Z" fill="#455A64"/>
<path d="M106.648 159.352C106.49 159.122 106.423 158.842 106.457 158.566V142.217C106.447 141.868 106.512 141.52 106.648 141.198C106.771 140.922 106.98 140.692 107.244 140.543L112.489 137.509C113.808 136.75 114.801 136.647 115.469 137.199C116.136 137.751 116.464 138.844 116.452 140.477C116.452 141.341 116.318 142.2 116.053 143.022C115.821 143.785 115.447 144.497 114.95 145.12C116.178 145.036 116.792 146.07 116.792 148.219C116.791 149.274 116.633 150.323 116.321 151.33C116.007 152.347 115.521 153.303 114.884 154.155C114.245 155.014 113.433 155.728 112.5 156.253L107.256 159.287C106.976 159.448 106.773 159.472 106.648 159.352ZM112.012 145.382C112.49 145.102 112.876 144.688 113.12 144.19C113.399 143.621 113.536 142.994 113.52 142.36C113.52 141.609 113.394 141.168 113.15 140.96C112.906 140.751 112.524 140.841 112.012 141.133L109.425 142.635V146.902L112.012 145.382ZM112.298 153.047C112.83 152.747 113.249 152.28 113.49 151.718C113.753 151.112 113.885 150.458 113.877 149.799C113.877 149.012 113.728 148.505 113.43 148.285C113.132 148.064 112.709 148.106 112.173 148.416L109.425 149.995V154.71L112.298 153.047Z" fill="#455A64"/>
<path d="M119.444 152.206C118.764 152.406 118.037 152.376 117.376 152.123C117.297 152.089 117.231 152.033 117.183 151.962C117.136 151.892 117.109 151.809 117.107 151.724C117.115 151.575 117.145 151.428 117.197 151.288L117.936 149.071C117.966 148.912 118.048 148.768 118.168 148.66C118.21 148.638 118.256 148.627 118.302 148.627C118.349 148.627 118.395 148.638 118.436 148.66C118.932 148.793 119.452 148.813 119.956 148.72C120.568 148.61 121.155 148.392 121.691 148.076C122.311 147.742 122.841 147.261 123.234 146.675C123.579 146.102 123.753 145.443 123.735 144.774C123.765 144.4 123.68 144.026 123.491 143.701C123.316 143.474 123.059 143.324 122.775 143.284C122.291 143.22 121.804 143.188 121.315 143.189C120.66 143.204 120.006 143.128 119.372 142.962C118.824 142.795 118.359 142.43 118.067 141.937C117.676 141.206 117.499 140.38 117.554 139.553C117.533 137.897 117.961 136.265 118.794 134.833C119.57 133.473 120.693 132.344 122.048 131.561C123.836 130.53 125.189 130.262 126.131 130.744C126.206 130.783 126.27 130.839 126.317 130.909C126.364 130.979 126.392 131.06 126.399 131.144C126.391 131.292 126.361 131.439 126.31 131.579L125.577 133.796C125.547 133.953 125.465 134.096 125.344 134.201C125.303 134.225 125.257 134.237 125.21 134.237C125.163 134.237 125.117 134.225 125.076 134.201C124.349 133.887 123.467 134.028 122.43 134.624C121.832 134.932 121.333 135.403 120.99 135.982C120.648 136.56 120.475 137.224 120.493 137.896C120.466 138.257 120.545 138.617 120.719 138.933C120.856 139.144 121.07 139.294 121.315 139.351C121.724 139.425 122.139 139.459 122.555 139.452H123.055C123.753 139.455 124.446 139.561 125.112 139.768C125.621 139.953 126.037 140.332 126.268 140.823C126.578 141.577 126.715 142.392 126.667 143.207C126.668 144.783 126.258 146.332 125.475 147.701C124.677 149.119 123.501 150.289 122.078 151.08C121.264 151.591 120.375 151.971 119.444 152.206Z" fill="#455A64"/>
<path d="M193.92 94.8533L191.5 93.4527C191.324 93.371 191.13 93.3378 190.937 93.3567C190.744 93.3756 190.56 93.4458 190.403 93.56L159.608 111.38C159.158 111.675 158.783 112.071 158.514 112.537C158.245 113.003 158.089 113.525 158.058 114.062V177.536C158.038 177.728 158.069 177.923 158.149 178.099C158.228 178.275 158.353 178.426 158.511 178.538L160.895 179.932H160.931C161.102 180.001 161.288 180.026 161.472 180.004C161.655 179.982 161.83 179.915 161.98 179.807L170.115 175.111V180.004C170.115 180.868 170.253 181.369 170.479 181.506L172.863 182.894C173.137 183.043 173.536 182.662 173.983 181.702L179.753 169.484L192.728 161.951C193.178 161.656 193.552 161.26 193.822 160.794C194.091 160.329 194.247 159.806 194.277 159.269V95.8486C194.307 95.666 194.29 95.4788 194.227 95.3047C194.165 95.1306 194.059 94.9752 193.92 94.8533Z" fill="url(#paint5_linear_23_535)"/>
<path opacity="0.4" d="M193.86 94.8175C193.689 94.7563 193.505 94.7367 193.325 94.7606C193.145 94.7844 192.973 94.8509 192.823 94.9546L162.022 112.781C161.574 113.059 161.205 113.447 160.949 113.907L158.529 112.507C158.784 112.045 159.153 111.657 159.602 111.38L190.397 93.554C190.604 93.4269 190.84 93.3551 191.083 93.3454C191.226 93.3427 191.368 93.3776 191.494 93.4467L193.86 94.8175Z" fill="white"/>
<path opacity="0.2" d="M170.521 181.53C170.3 181.392 170.163 180.892 170.163 180.028V175.14L172.601 173.722V181.41C172.601 182.233 172.726 182.733 172.923 182.9L170.521 181.53Z" fill="black"/>
<path opacity="0.1" d="M160.943 179.938L158.523 178.544C158.369 178.431 158.246 178.28 158.168 178.105C158.09 177.931 158.058 177.739 158.076 177.548V114.062C158.098 113.511 158.262 112.975 158.553 112.507L160.973 113.907C160.684 114.376 160.521 114.912 160.502 115.463V178.937C160.48 179.128 160.509 179.322 160.586 179.498C160.664 179.674 160.787 179.826 160.943 179.938Z" fill="black"/>
<path d="M166.605 115.719L188.234 103.203C188.949 102.792 189.527 103.126 189.527 103.948V117.698C189.503 118.147 189.373 118.584 189.149 118.973C188.924 119.362 188.611 119.693 188.234 119.939L166.605 132.455C165.896 132.866 165.318 132.532 165.318 131.71V117.954C165.342 117.507 165.472 117.072 165.695 116.683C165.919 116.295 166.231 115.965 166.605 115.719Z" fill="#455A64"/>
<path d="M189.527 123.414C189.496 123.848 189.362 124.268 189.138 124.641C188.913 125.014 188.603 125.329 188.234 125.559L166.605 138.045C165.896 138.457 165.318 138.165 165.318 137.39C165.35 136.957 165.483 136.538 165.707 136.167C165.931 135.795 166.238 135.481 166.605 135.25L188.234 122.764C188.949 122.353 189.527 122.645 189.527 123.414Z" fill="#455A64"/>
<path d="M189.527 129.022C189.496 129.456 189.362 129.877 189.138 130.25C188.913 130.622 188.603 130.937 188.234 131.168L166.605 143.684C165.896 144.095 165.318 143.803 165.318 143.028C165.35 142.595 165.483 142.177 165.707 141.805C165.931 141.433 166.238 141.119 166.605 140.888L188.234 128.372C188.949 127.943 189.527 128.235 189.527 129.022Z" fill="#455A64"/>
<path d="M189.527 134.595C189.496 135.029 189.362 135.449 189.138 135.822C188.913 136.195 188.603 136.51 188.234 136.74L166.605 149.256C165.896 149.667 165.318 149.375 165.318 148.601C165.35 148.168 165.483 147.749 165.707 147.377C165.931 147.006 166.238 146.692 166.605 146.461L188.234 133.945C188.949 133.534 189.527 133.826 189.527 134.595Z" fill="#455A64"/>
<path d="M189.527 140.185C189.496 140.619 189.362 141.04 189.138 141.413C188.913 141.785 188.603 142.1 188.234 142.331L166.605 154.817C165.896 155.228 165.318 154.936 165.318 154.161C165.35 153.729 165.483 153.31 165.707 152.938C165.931 152.567 166.238 152.253 166.605 152.022L188.234 139.506C188.949 139.154 189.527 139.416 189.527 140.185Z" fill="#455A64"/>
<path d="M165.318 159.758C165.318 160.526 165.914 160.819 166.605 160.407L168.87 159.102C169.237 158.871 169.545 158.557 169.768 158.185C169.992 157.814 170.125 157.395 170.157 156.962C170.157 156.188 169.561 155.896 168.87 156.307L166.605 157.612C166.237 157.844 165.929 158.159 165.706 158.531C165.482 158.904 165.349 159.324 165.318 159.758Z" fill="#455A64"/>
<path d="M173.435 155.079C173.435 155.848 174.031 156.14 174.728 155.729L188.234 147.921C188.603 147.69 188.913 147.376 189.137 147.003C189.362 146.63 189.496 146.21 189.527 145.775C189.527 145.007 188.931 144.715 188.234 145.126L174.728 152.933C174.359 153.164 174.05 153.479 173.825 153.851C173.6 154.224 173.467 154.645 173.435 155.079Z" fill="#455A64"/>
<path d="M165.318 165.378C165.318 166.147 165.914 166.439 166.605 166.028L168.87 164.722C169.237 164.491 169.545 164.177 169.768 163.806C169.992 163.434 170.125 163.015 170.157 162.583C170.157 161.808 169.561 161.516 168.87 161.927L166.605 163.232C166.237 163.464 165.929 163.779 165.706 164.152C165.482 164.524 165.349 164.944 165.318 165.378Z" fill="#455A64"/>
<path d="M173.435 160.67C173.435 161.438 174.031 161.73 174.728 161.319L188.234 153.512C188.603 153.281 188.913 152.966 189.137 152.594C189.362 152.221 189.496 151.8 189.527 151.366C189.527 150.597 188.931 150.305 188.234 150.716L174.728 158.524C174.359 158.755 174.05 159.069 173.825 159.442C173.6 159.815 173.467 160.235 173.435 160.67Z" fill="#455A64"/>
<path d="M165.318 170.939C165.318 171.707 165.914 171.999 166.605 171.588L168.87 170.283C169.237 170.052 169.545 169.738 169.768 169.366C169.992 168.995 170.125 168.576 170.157 168.143C170.157 167.369 169.561 167.077 168.87 167.488L166.605 168.793C166.237 169.025 165.929 169.34 165.706 169.712C165.482 170.085 165.349 170.505 165.318 170.939Z" fill="#455A64"/>
<path d="M173.435 166.26C173.435 167.029 174.031 167.321 174.728 166.91L188.234 159.102C188.602 158.872 188.911 158.558 189.136 158.187C189.361 157.815 189.495 157.396 189.527 156.962C189.527 156.188 188.931 155.896 188.234 156.307L174.728 164.114C174.359 164.345 174.05 164.66 173.825 165.032C173.6 165.405 173.467 165.826 173.435 166.26Z" fill="#455A64"/>
<path d="M222.987 111.589L220.603 110.188C220.427 110.107 220.233 110.074 220.04 110.092C219.847 110.111 219.663 110.181 219.506 110.296L188.693 128.11C188.243 128.405 187.868 128.801 187.599 129.267C187.33 129.733 187.174 130.255 187.143 130.792V194.266C187.123 194.458 187.154 194.652 187.234 194.828C187.313 195.004 187.438 195.156 187.596 195.267L190.01 196.662H190.04C190.212 196.732 190.399 196.757 190.583 196.735C190.768 196.713 190.944 196.645 191.095 196.537L199.23 191.84V196.734C199.23 197.598 199.367 198.098 199.588 198.235L201.972 199.624H202.002C202.276 199.773 202.675 199.392 203.116 198.432L208.891 186.214L221.866 178.681C222.316 178.386 222.691 177.99 222.96 177.524C223.229 177.058 223.385 176.536 223.416 175.999V112.584C223.437 112.395 223.409 112.204 223.334 112.03C223.258 111.855 223.139 111.703 222.987 111.589Z" fill="url(#paint6_linear_23_535)"/>
<path opacity="0.4" d="M222.921 111.553C222.75 111.492 222.567 111.472 222.386 111.496C222.206 111.52 222.034 111.587 221.884 111.69L191.077 129.517C190.63 129.795 190.26 130.183 190.004 130.643L187.584 129.242C187.841 128.782 188.21 128.394 188.657 128.116L219.459 110.29C219.665 110.161 219.901 110.089 220.144 110.081C220.286 110.079 220.425 110.114 220.549 110.182L222.921 111.553Z" fill="white"/>
<path opacity="0.2" d="M199.582 198.265C199.361 198.128 199.224 197.627 199.224 196.763V191.876L201.644 190.475V198.158C201.644 198.98 201.769 199.481 201.972 199.648L199.582 198.265Z" fill="black"/>
<path opacity="0.1" d="M190.004 196.674L187.59 195.279C187.435 195.167 187.312 195.016 187.233 194.841C187.155 194.667 187.124 194.474 187.143 194.284V130.81C187.163 130.259 187.325 129.723 187.614 129.254L190.034 130.655C189.745 131.124 189.582 131.66 189.563 132.211V195.685C189.543 195.874 189.573 196.065 189.65 196.239C189.728 196.412 189.85 196.563 190.004 196.674Z" fill="black"/>
<path d="M195.672 132.455L217.301 119.939C218.01 119.528 218.588 119.861 218.588 120.684V134.469C218.564 134.918 218.435 135.354 218.212 135.743C217.988 136.132 217.676 136.464 217.301 136.71L195.672 149.226C194.957 149.638 194.379 149.304 194.379 148.481V134.69C194.403 134.242 194.533 133.806 194.758 133.417C194.983 133.029 195.296 132.699 195.672 132.455Z" fill="#455A64"/>
<path d="M218.588 140.149C218.557 140.583 218.424 141.003 218.201 141.376C217.977 141.748 217.669 142.063 217.301 142.295L195.672 154.781C194.957 155.192 194.379 154.9 194.379 154.125C194.411 153.692 194.545 153.273 194.77 152.901C194.995 152.529 195.304 152.216 195.672 151.986L217.301 139.5C218.01 139.088 218.588 139.38 218.588 140.149Z" fill="#455A64"/>
<path d="M218.588 145.74C218.557 146.173 218.424 146.593 218.201 146.966C217.977 147.339 217.669 147.654 217.301 147.885L195.672 160.372C194.957 160.783 194.379 160.491 194.379 159.716C194.411 159.283 194.545 158.863 194.77 158.492C194.995 158.12 195.304 157.806 195.672 157.576L217.301 145.114C218.01 144.679 218.588 144.971 218.588 145.74Z" fill="#455A64"/>
<path d="M218.588 151.33C218.554 151.761 218.42 152.177 218.197 152.547C217.973 152.916 217.667 153.228 217.301 153.458L195.672 165.974C194.957 166.385 194.379 166.093 194.379 165.318C194.411 164.885 194.545 164.466 194.77 164.094C194.995 163.722 195.304 163.409 195.672 163.179L217.301 150.681C218.01 150.269 218.588 150.561 218.588 151.33Z" fill="#455A64"/>
<path d="M218.588 156.921C218.557 157.354 218.424 157.774 218.201 158.147C217.977 158.52 217.669 158.835 217.301 159.066L195.672 171.582C194.957 171.994 194.379 171.701 194.379 170.927C194.411 170.494 194.545 170.074 194.77 169.702C194.995 169.331 195.304 169.017 195.672 168.787L217.301 156.271C218.01 155.842 218.588 156.152 218.588 156.921Z" fill="#455A64"/>
<path d="M194.379 176.493C194.379 177.262 194.975 177.554 195.672 177.143L197.931 175.838C198.3 175.608 198.609 175.294 198.833 174.922C199.058 174.551 199.192 174.131 199.224 173.698C199.224 172.923 198.628 172.631 197.931 173.042L195.672 174.348C195.303 174.578 194.993 174.893 194.769 175.266C194.544 175.639 194.41 176.059 194.379 176.493Z" fill="#455A64"/>
<path d="M202.502 171.815C202.502 172.584 203.098 172.876 203.796 172.464L217.301 164.657C217.669 164.425 217.977 164.11 218.201 163.738C218.424 163.365 218.557 162.945 218.588 162.511C218.588 161.742 217.992 161.45 217.301 161.862L203.79 169.669C203.422 169.901 203.114 170.216 202.89 170.588C202.667 170.961 202.534 171.381 202.502 171.815Z" fill="#455A64"/>
<path d="M194.379 182.066C194.379 182.835 194.975 183.127 195.672 182.716L197.931 181.41C198.3 181.18 198.609 180.867 198.833 180.495C199.058 180.123 199.192 179.704 199.224 179.271C199.224 178.496 198.628 178.204 197.931 178.615L195.672 179.92C195.303 180.151 194.993 180.465 194.769 180.838C194.544 181.211 194.41 181.632 194.379 182.066Z" fill="#455A64"/>
<path d="M202.502 177.405C202.502 178.174 203.098 178.466 203.796 178.055L217.301 170.247C217.669 170.016 217.977 169.701 218.201 169.328C218.424 168.955 218.557 168.535 218.588 168.102C218.588 167.333 217.992 167.041 217.301 167.452L203.79 175.26C203.422 175.491 203.114 175.806 202.89 176.179C202.667 176.552 202.534 176.972 202.502 177.405Z" fill="#455A64"/>
<path d="M194.379 187.674C194.379 188.443 194.975 188.735 195.672 188.324L197.931 187.019C198.3 186.789 198.609 186.475 198.833 186.103C199.058 185.732 199.192 185.312 199.224 184.879C199.224 184.104 198.628 183.812 197.931 184.223L195.672 185.529C195.303 185.759 194.993 186.074 194.769 186.447C194.544 186.819 194.41 187.24 194.379 187.674Z" fill="#455A64"/>
<path d="M202.502 182.996C202.502 183.765 203.098 184.057 203.796 183.645L217.301 175.838C217.668 175.607 217.976 175.293 218.199 174.921C218.423 174.549 218.556 174.131 218.588 173.698C218.588 172.923 217.992 172.631 217.301 173.042L203.79 180.874C203.425 181.103 203.119 181.414 202.895 181.783C202.672 182.151 202.537 182.566 202.502 182.996Z" fill="#455A64"/>
<path d="M254.479 86.9861L251.273 85.1504H251.243C249.83 84.3577 247.893 84.4769 245.748 85.7106C241.427 88.2079 237.928 94.2752 237.928 99.2637C237.928 101.749 238.798 103.501 240.211 104.318L243.107 105.975L243.799 104.783C244.588 104.61 245.346 104.316 246.046 103.912C250.361 101.421 253.865 95.3539 253.865 90.3654C253.863 89.6925 253.781 89.0223 253.621 88.3688L254.479 86.9861Z" fill="url(#paint7_linear_23_535)"/>
<path d="M237.946 99.2219C237.946 101.713 238.816 103.465 240.229 104.282L243.126 105.939L243.817 104.783C244.605 104.605 245.363 104.309 246.064 103.907C248.533 102.352 250.538 100.162 251.869 97.5651L240.545 91.0091C238.954 93.4624 238.056 96.3001 237.946 99.2219Z" fill="#263238"/>
<path d="M254.485 86.9861L251.302 85.1504H251.272C249.86 84.3517 247.923 84.4709 245.777 85.7106C243.63 87.0324 241.835 88.8545 240.544 91.021L251.868 97.577C253.101 95.3885 253.788 92.9352 253.871 90.425C253.869 89.7521 253.787 89.0819 253.627 88.4284L254.485 86.9861Z" fill="#455A64"/>
<path d="M248.787 87.4331C244.472 89.9243 240.968 95.9916 240.968 101.01C240.968 106.028 244.472 108.019 248.787 105.522C253.102 103.024 256.637 96.9333 256.637 91.9448C256.637 86.9563 253.108 84.9179 248.787 87.4331Z" fill="#37474F"/>
<path d="M249.359 91.5633C249.591 91.4826 249.84 91.4641 250.081 91.5097C250.277 91.5552 250.458 91.6519 250.605 91.7898C250.747 91.9282 250.855 92.0975 250.921 92.2845C250.996 92.4749 251.041 92.6761 251.052 92.8805C251.056 92.98 251.033 93.0787 250.987 93.1666C250.95 93.2449 250.892 93.3111 250.82 93.3573L250.224 93.697C250.128 93.7566 250.057 93.7685 250.009 93.7387C249.951 93.7014 249.905 93.6474 249.878 93.5838C249.837 93.5068 249.781 93.4388 249.713 93.3836C249.646 93.3283 249.568 93.287 249.485 93.2619C249.351 93.2427 249.215 93.2508 249.085 93.2856C248.955 93.3205 248.834 93.3813 248.728 93.4646C248.576 93.5497 248.436 93.6539 248.31 93.7745C248.179 93.8952 248.063 94.0313 247.965 94.1798C247.866 94.3232 247.788 94.4797 247.732 94.6446C247.678 94.8019 247.65 94.967 247.649 95.1334C247.636 95.2847 247.67 95.4363 247.744 95.5685C247.779 95.6145 247.824 95.652 247.876 95.6778C247.928 95.7037 247.984 95.7172 248.042 95.7175C248.221 95.7254 248.399 95.7073 248.573 95.6638L249.359 95.4791C249.637 95.4056 249.924 95.3734 250.212 95.3837C250.429 95.3875 250.638 95.463 250.808 95.5982C250.969 95.7438 251.081 95.9352 251.13 96.1466C251.197 96.4377 251.229 96.7358 251.225 97.0346C251.221 97.3704 251.177 97.7045 251.094 98.0299C251.007 98.376 250.883 98.7117 250.724 99.0312C250.56 99.36 250.36 99.6698 250.128 99.955C249.899 100.242 249.637 100.502 249.348 100.73V101.606C249.346 101.704 249.321 101.799 249.276 101.886C249.246 101.966 249.192 102.035 249.121 102.083L248.436 102.476C248.414 102.496 248.385 102.507 248.355 102.507C248.325 102.507 248.297 102.496 248.275 102.476C248.251 102.448 248.233 102.416 248.221 102.381C248.21 102.347 248.206 102.31 248.209 102.273V101.391C247.982 101.471 247.741 101.508 247.5 101.499C247.288 101.489 247.082 101.423 246.904 101.308C246.73 101.183 246.593 101.014 246.505 100.819C246.396 100.565 246.339 100.291 246.338 100.015C246.332 99.915 246.355 99.8158 246.403 99.7285C246.437 99.6491 246.493 99.581 246.564 99.5318L247.16 99.1921C247.256 99.1385 247.327 99.1206 247.381 99.1445C247.44 99.1821 247.484 99.2389 247.506 99.3054C247.548 99.3939 247.595 99.4796 247.649 99.5617C247.705 99.6393 247.784 99.6976 247.875 99.7285C247.993 99.756 248.115 99.756 248.233 99.7285C248.423 99.6844 248.605 99.6077 248.769 99.5021C248.941 99.4024 249.105 99.2888 249.258 99.1623C249.41 99.0343 249.548 98.8905 249.669 98.7332C249.786 98.5774 249.882 98.4071 249.955 98.2266C250.028 98.0489 250.065 97.8584 250.063 97.6664C250.071 97.5952 250.065 97.523 250.044 97.4544C250.024 97.3857 249.99 97.3219 249.944 97.2671C249.894 97.2274 249.836 97.198 249.775 97.1806C249.713 97.1632 249.649 97.1582 249.586 97.1657C249.384 97.1768 249.185 97.2087 248.99 97.2611C248.752 97.3207 248.483 97.3743 248.173 97.4339C247.931 97.491 247.682 97.5091 247.434 97.4876C247.242 97.4745 247.059 97.3968 246.916 97.2671C246.766 97.1123 246.659 96.9213 246.606 96.7128C246.532 96.4025 246.498 96.084 246.505 95.7651C246.504 95.4251 246.548 95.0865 246.636 94.7579C246.719 94.4235 246.835 94.0981 246.981 93.7864C247.127 93.4755 247.307 93.1817 247.518 92.9103C247.719 92.6457 247.947 92.4021 248.197 92.1832V91.3071C248.2 91.2102 248.222 91.1148 248.263 91.0269C248.297 90.9475 248.353 90.8794 248.424 90.8302L249.109 90.4369C249.13 90.4172 249.158 90.4062 249.187 90.4062C249.215 90.4062 249.243 90.4172 249.264 90.4369C249.29 90.4635 249.31 90.4954 249.322 90.5304C249.334 90.5653 249.339 90.6026 249.336 90.6395L249.359 91.5633Z" fill="#FAFAFA"/>
<path d="M254.479 145.305L251.273 143.469H251.243C249.83 142.67 247.893 142.79 245.748 144.029C241.427 146.52 237.928 152.588 237.928 157.576C237.928 160.068 238.798 161.814 240.211 162.636L243.107 164.287L243.799 163.131C244.587 162.955 245.345 162.662 246.046 162.261C250.361 159.764 253.865 153.696 253.865 148.708C253.863 148.035 253.781 147.365 253.621 146.711L254.479 145.305Z" fill="url(#paint8_linear_23_535)"/>
<path d="M237.946 157.564C237.946 160.056 238.816 161.802 240.229 162.624L243.126 164.275L243.817 163.119C244.605 162.941 245.363 162.646 246.064 162.243C248.535 160.686 250.541 158.491 251.869 155.89L240.545 149.334C238.953 151.793 238.055 154.637 237.946 157.564Z" fill="#263238"/>
<path d="M254.485 145.305L251.303 143.469H251.273C249.86 142.67 247.923 142.79 245.778 144.029C243.633 145.356 241.842 147.182 240.557 149.352L251.881 155.908C253.124 153.699 253.813 151.223 253.889 148.69C253.886 148.017 253.804 147.347 253.645 146.693L254.485 145.305Z" fill="#455A64"/>
<path d="M248.787 145.752C244.472 148.243 240.968 154.31 240.968 159.299C240.968 164.287 244.472 166.308 248.787 163.816C253.102 161.325 256.637 155.246 256.637 150.269C256.637 145.293 253.108 143.26 248.787 145.752Z" fill="#37474F"/>
<path d="M252.769 156.563L244.812 161.158C244.717 161.212 244.645 161.158 244.645 160.997V153.941C244.643 153.872 244.657 153.804 244.686 153.742C244.715 153.68 244.758 153.626 244.812 153.583L252.769 148.988C252.858 148.934 252.936 148.988 252.936 149.149V156.211C252.936 156.279 252.922 156.346 252.893 156.407C252.864 156.468 252.822 156.521 252.769 156.563Z" fill="#FAFAFA"/>
<path d="M250.355 150.847C250.265 150.901 250.188 150.847 250.188 150.687V149.614L247.392 151.229V152.302C247.394 152.371 247.379 152.439 247.349 152.501C247.319 152.563 247.274 152.617 247.22 152.659C247.13 152.713 247.053 152.659 247.053 152.498V151.163C247.052 151.096 247.066 151.029 247.095 150.968C247.124 150.907 247.167 150.854 247.22 150.812L250.355 149.024C250.45 148.97 250.521 149.024 250.521 149.185V150.478C250.526 150.549 250.514 150.619 250.484 150.684C250.455 150.748 250.411 150.804 250.355 150.847Z" fill="#FAFAFA"/>
<path d="M250.355 149.518L247.22 151.306C247.131 151.36 247.053 151.306 247.053 151.145V150.549C247.053 150.481 247.067 150.414 247.096 150.352C247.125 150.29 247.167 150.235 247.22 150.192L250.355 148.404C250.45 148.35 250.522 148.404 250.522 148.565V149.161C250.524 149.229 250.51 149.297 250.481 149.359C250.452 149.421 250.409 149.476 250.355 149.518Z" fill="#FAFAFA"/>
<path d="M249.926 153.923L247.649 155.234C247.583 155.276 247.53 155.234 247.53 155.115V154.686C247.529 154.637 247.539 154.588 247.56 154.544C247.58 154.499 247.611 154.46 247.649 154.429L249.926 153.118C249.997 153.076 250.051 153.118 250.051 153.231V153.661C250.052 153.711 250.041 153.761 250.02 153.807C249.998 153.852 249.966 153.892 249.926 153.923Z" fill="#37474F"/>
<path d="M254.479 116.148L251.273 114.307H251.243C249.83 113.508 247.893 113.627 245.748 114.867C241.427 117.364 237.928 123.426 237.928 128.414C237.928 130.905 238.798 132.658 240.211 133.474L243.107 135.125L243.799 133.969C244.588 133.796 245.346 133.502 246.046 133.099C250.361 130.601 253.865 124.54 253.865 119.552C253.863 118.877 253.781 118.205 253.621 117.549L254.479 116.148Z" fill="url(#paint9_linear_23_535)"/>
<path d="M237.946 128.426C237.946 130.917 238.816 132.669 240.229 133.486L243.126 135.137L243.817 133.981C244.606 133.808 245.364 133.514 246.064 133.111C248.539 131.545 250.544 129.339 251.869 126.727L240.545 120.171C238.949 122.637 238.051 125.49 237.946 128.426Z" fill="#263238"/>
<path d="M254.485 116.148L251.303 114.307H251.273C249.86 113.514 247.923 113.627 245.778 114.867C243.633 116.194 241.842 118.02 240.557 120.189L251.881 126.745C253.116 124.547 253.803 122.084 253.883 119.563C253.881 118.889 253.799 118.216 253.639 117.561L254.485 116.148Z" fill="#455A64"/>
<path d="M248.787 116.589C244.472 119.087 240.968 125.148 240.968 130.136C240.968 135.125 244.472 137.151 248.787 134.654C253.102 132.157 256.637 126.096 256.637 121.107C256.637 116.119 253.108 114.122 248.787 116.589Z" fill="#37474F"/>
<path d="M245.909 124.528C245.909 123.396 246.505 122.144 247.244 121.703C247.983 121.262 248.579 121.852 248.579 122.99C248.579 124.129 247.983 125.374 247.244 125.815C246.505 126.257 245.909 125.666 245.909 124.528Z" fill="white"/>
<path d="M249.628 130.25L244.717 133.087L244.979 129.821C245.092 128.432 245.825 127.007 246.696 126.507L247.643 125.959C248.513 125.458 249.246 126.03 249.36 127.294L249.628 130.25Z" fill="white"/>
<path d="M249.151 121.125C249.151 119.993 249.747 118.741 250.486 118.3C251.225 117.859 251.821 118.449 251.821 119.587C251.821 120.726 251.225 121.971 250.486 122.412C249.747 122.853 249.151 122.263 249.151 121.125Z" fill="white"/>
<path d="M252.858 126.847L249.848 128.587L249.711 127.025C249.61 125.929 249.115 125.237 248.459 125.237C248.69 124.383 249.211 123.635 249.932 123.122L250.879 122.579C251.749 122.073 252.482 122.645 252.596 123.908L252.858 126.847Z" fill="white"/>
<path d="M172.899 237.983C172.899 234.287 170.455 230.592 165.568 227.773C155.799 222.129 139.94 222.129 130.189 227.773C125.302 230.592 122.858 234.287 122.858 237.983V244.795C122.858 248.49 125.302 252.185 130.189 255.01C139.958 260.649 155.817 260.649 165.568 255.01C170.455 252.185 172.899 248.49 172.899 244.795V237.983ZM131.399 229.865C135.762 227.344 141.615 225.961 147.878 225.961C154.142 225.961 159.995 227.344 164.358 229.865C168.303 232.142 170.479 235.026 170.479 237.983C170.479 240.939 168.303 243.823 164.358 246.1C159.995 248.621 154.125 250.01 147.878 250.01C141.632 250.01 135.762 248.621 131.399 246.1C127.454 243.823 125.278 240.939 125.278 237.983C125.278 235.026 127.454 232.13 131.399 229.865Z" fill="url(#paint10_linear_23_535)"/>
<path opacity="0.3" d="M130.184 248.222C139.958 253.86 155.812 253.86 165.568 248.222C175.325 242.584 175.337 233.435 165.568 227.797C155.8 222.159 139.94 222.153 130.184 227.797C120.427 233.441 120.415 242.56 130.184 248.222ZM125.279 238.006C125.279 235.026 127.448 232.166 131.394 229.889C135.756 227.368 141.615 225.985 147.879 225.985C154.143 225.985 159.996 227.368 164.358 229.889C168.304 232.166 170.473 235.05 170.473 238.006C170.473 240.963 168.304 243.847 164.358 246.124C159.996 248.621 154.125 250.01 147.879 250.01C141.633 250.01 135.756 248.621 131.394 246.1C127.448 243.823 125.279 240.939 125.279 237.983V238.006Z" fill="white"/>
<path d="M125.278 237.983C125.293 239.186 125.63 240.363 126.256 241.392C127.245 239.675 128.991 238.06 131.399 236.677C135.756 234.156 141.615 232.768 147.879 232.768C154.143 232.768 159.995 234.156 164.358 236.677C166.451 237.78 168.225 239.404 169.507 241.392C170.129 240.362 170.464 239.185 170.479 237.983C170.479 235.003 168.304 232.142 164.358 229.865C159.995 227.35 154.143 225.961 147.879 225.961C141.615 225.961 135.756 227.35 131.399 229.865C127.448 232.13 125.278 235.026 125.278 237.983Z" fill="url(#paint11_linear_23_535)"/>
<path opacity="0.1" d="M125.278 237.983C125.293 239.186 125.63 240.363 126.256 241.392C127.245 239.675 128.991 238.06 131.399 236.677C135.756 234.156 141.615 232.768 147.879 232.768C154.143 232.768 159.995 234.156 164.358 236.677C166.451 237.78 168.225 239.404 169.507 241.392C170.129 240.362 170.464 239.185 170.479 237.983C170.479 235.003 168.304 232.142 164.358 229.865C159.995 227.35 154.143 225.961 147.879 225.961C141.615 225.961 135.756 227.35 131.399 229.865C127.448 232.13 125.278 235.026 125.278 237.983Z" fill="black"/>
<path opacity="0.4" d="M131.393 232.946C135.756 230.431 141.615 229.043 147.879 229.043C154.143 229.043 159.995 230.431 164.358 232.946C167.612 234.83 169.656 237.118 170.276 239.502C169.68 241.886 167.612 244.199 164.358 246.058C159.995 248.621 154.125 250.01 147.879 250.01C141.633 250.01 135.756 248.621 131.393 246.1C128.139 244.223 126.095 241.928 125.481 239.544C126.113 237.118 128.139 234.83 131.393 232.946Z" fill="white"/>
<path opacity="0.1" d="M141.984 252.024V258.831C137.846 258.318 133.843 257.021 130.189 255.01C125.302 252.185 122.859 248.49 122.859 244.795V237.983C122.86 237.23 122.961 236.48 123.157 235.754C121.965 240.152 124.313 244.807 130.183 248.198C133.838 250.212 137.843 251.51 141.984 252.024Z" fill="black"/>
<path d="M130.928 252.531C130.898 251.923 130.724 251.331 130.422 250.803C130.119 250.275 129.697 249.825 129.188 249.491C129.012 249.363 128.805 249.283 128.589 249.259C128.372 249.236 128.153 249.271 127.954 249.36L119.557 254.182C119.376 254.305 119.233 254.475 119.143 254.673C119.052 254.872 119.018 255.092 119.044 255.308C119.07 255.914 119.238 256.505 119.534 257.034C119.83 257.563 120.246 258.015 120.749 258.354C120.925 258.484 121.133 258.563 121.351 258.585C121.569 258.607 121.789 258.571 121.988 258.479L130.41 253.675C130.59 253.548 130.734 253.375 130.825 253.174C130.916 252.973 130.952 252.751 130.928 252.531Z" fill="#37474F"/>
<path d="M130.41 253.669C130.59 253.543 130.732 253.37 130.823 253.17C130.915 252.97 130.951 252.75 130.929 252.531C130.921 252.079 130.822 251.633 130.637 251.22L119.771 257.43C120.032 257.8 120.365 258.114 120.749 258.354C120.926 258.484 121.134 258.563 121.352 258.585C121.57 258.607 121.79 258.571 121.989 258.479L130.41 253.675V253.669Z" fill="#263238"/>
<path d="M122.167 258.354C122.129 257.562 121.903 256.79 121.51 256.101C121.116 255.412 120.566 254.826 119.903 254.391C119.676 254.226 119.411 254.123 119.133 254.093C118.855 254.063 118.574 254.106 118.317 254.218L90.3828 269.118L94.5548 276.484L121.518 259.796C121.742 259.633 121.921 259.415 122.035 259.162C122.149 258.909 122.194 258.63 122.167 258.354Z" fill="url(#paint12_linear_23_535)"/>
<path opacity="0.1" d="M94.525 276.478L121.488 259.79C121.722 259.628 121.908 259.405 122.026 259.146C122.144 258.887 122.191 258.601 122.162 258.318C122.128 257.47 121.866 256.647 121.405 255.934L92.3794 272.658L94.525 276.478Z" fill="black"/>
<path d="M92.4209 276.234C91.5503 275.663 90.8267 274.895 90.3089 273.992C89.7911 273.089 89.4937 272.076 89.4409 271.037C89.4409 269.13 90.7879 268.361 92.4209 269.32C93.2914 269.89 94.015 270.657 94.5329 271.559C95.0507 272.461 95.3481 273.473 95.4009 274.511C95.4128 276.448 94.0718 277.217 92.4209 276.234Z" fill="url(#paint13_linear_23_535)"/>
<g opacity="0.2">
<path d="M92.4209 276.234C91.5503 275.663 90.8267 274.895 90.3089 273.992C89.7911 273.089 89.4937 272.076 89.4409 271.037C89.4409 269.13 90.7879 268.361 92.4209 269.32C93.2914 269.89 94.015 270.657 94.5329 271.559C95.0507 272.461 95.3481 273.473 95.4009 274.511C95.4128 276.448 94.0718 277.217 92.4209 276.234Z" fill="black"/>
</g>
<path d="M257.072 210.412C257.376 199.088 256.476 196.364 253.454 194.284L252.262 200.84C252.262 200.84 253.639 208.588 253.49 211.157C253.365 213.421 253.144 216.258 252.608 218.088C252.509 218.41 252.298 218.685 252.012 218.863C251.387 219.308 250.829 219.84 250.355 220.442C249.902 220.919 249.514 221.038 249.574 221.187C249.661 221.354 249.807 221.481 249.984 221.544C250.161 221.607 250.355 221.601 250.528 221.527C250.914 221.374 251.28 221.174 251.618 220.931C251.351 221.626 250.975 222.274 250.504 222.85C249.425 224.167 249.377 224.978 251.553 225.002C252.918 225.002 254.008 224.173 255.033 221.169C255.43 220.068 255.75 218.941 255.993 217.796C256.503 215.359 256.863 212.893 257.072 210.412Z" fill="#FFA8A7"/>
<path d="M250.915 193.426C251.842 193.26 252.798 193.4 253.638 193.825C254.479 194.249 255.159 194.935 255.576 195.78C256.839 198.039 257.149 201.931 257.292 205.799C257.292 205.799 254.783 207.903 251.767 206.871L250.915 193.426Z" fill="url(#paint14_linear_23_535)"/>
<path d="M255.152 255.767C255.379 255.857 255.438 256.292 255.474 257.156C255.474 257.812 255.635 258.944 254.878 259.188C254.121 259.433 252.983 259.296 252.494 258.682C251.898 257.907 251.463 257.233 250.587 256.298C249.824 255.481 249.002 254.718 248.698 253.574C248.418 252.537 248.65 252.09 249.353 251.786C250.325 251.375 251.851 252.728 252.613 252.936C253.257 253.115 254.92 255.684 255.152 255.767Z" fill="#263238"/>
<path d="M255.153 254.969V256.03C254.754 256.285 254.292 256.427 253.819 256.44C253.345 256.453 252.877 256.335 252.465 256.101C252.417 256 252.185 254.581 252.185 254.581L255.153 254.969Z" fill="#FFA8A7"/>
<path d="M246.535 261.93C246.723 262.499 246.88 263.078 247.005 263.664C247.136 264.308 247.327 265.381 247.101 265.864C246.874 266.346 245.998 266.662 244.633 266.65C243.501 266.789 242.412 267.169 241.439 267.765C240.17 268.303 238.789 268.522 237.416 268.402C236.224 268.265 234.948 267.562 234.752 267.061C234.555 266.561 234.817 266.036 237.672 264.821C237.672 264.821 241.641 263.527 243.036 262.001L246.535 261.93Z" fill="#263238"/>
<path d="M246.534 260.738V261.978C246.534 262.431 246.01 263.104 244.627 263.05C243.662 263.015 242.982 262.758 243.024 261.96V260.809L246.534 260.738Z" fill="#FFA8A7"/>
<path d="M255.844 240.855C255.608 238.971 255.187 237.114 254.587 235.313C254.587 235.313 254.968 230.545 255.147 226.003C255.344 221.11 255.147 214.953 255.23 213.731C255.23 213.731 239.436 210.537 239.138 216.199C238.84 221.861 239.734 236.26 239.949 238.746C240.163 241.231 240.545 243.424 241.075 247.453C241.606 251.482 243.006 260.821 243.006 260.821C243.552 261.099 244.158 261.238 244.771 261.226C245.383 261.213 245.983 261.05 246.517 260.75C246.517 260.75 247.631 249.426 247.512 246.571C247.423 244.445 247.058 242.339 246.427 240.307C246.427 240.307 246.725 235.64 246.988 231.582C247.25 227.523 247.536 225.574 247.584 223.834L247.923 223.667C247.923 223.667 248.269 230.67 248.46 233.155C248.65 235.64 249.056 238.024 249.759 242.637C250.385 246.643 252.238 255.118 252.238 255.118C254.026 256.095 255.123 254.992 255.123 254.992C255.123 254.992 256.327 244.33 255.844 240.855Z" fill="#37474F"/>
<path d="M247.613 223.786C247.613 223.786 251.446 221.897 253.365 220.21C253.365 220.21 251.577 222.719 249.246 223.828C249.246 223.828 248.412 232.529 248.418 232.356L247.935 223.786H247.613Z" fill="#263238"/>
<path d="M244.204 191.632L245.14 196.775L249.783 196.435L248.811 190.607L244.204 191.632Z" fill="#FFA8A7"/>
<path d="M254.694 196.06C254.229 194.659 252.459 193.14 250.683 193.467C248.053 193.918 245.461 194.568 242.929 195.41C241.302 196.006 239.824 197.395 239.687 202.741C239.687 202.741 239.144 215.21 239.132 217.641C242.525 218.972 246.219 219.337 249.807 218.696C254.694 217.629 255.284 215.603 255.284 215.603C255.284 215.603 255.344 206.663 255.2 202.765C255.051 199.457 255.01 197.02 254.694 196.06Z" fill="#F5F5F5"/>
<path d="M240.616 185.374C240.616 185.374 239.424 187.251 239.585 187.43C239.746 187.609 240.628 187.752 240.628 187.752L240.616 185.374Z" fill="#FFA8A7"/>
<path d="M243.888 180.177C241.433 180.773 240.747 181.857 240.598 185.779C240.449 189.885 240.896 191.143 241.451 191.703C241.82 192.067 243.835 192.091 244.854 191.787C246.123 191.405 248.978 190.321 250.283 188.211C251.815 185.749 252.161 182.453 250.426 181.142C247.995 179.318 244.89 179.944 243.888 180.177Z" fill="#FFA8A7"/>
<path d="M240.628 181.202C241.192 182.024 241.989 182.659 242.917 183.026C243.387 183.562 243.125 185.654 243.954 186.006C243.954 186.006 244.311 184.48 245.593 184.641C246.874 184.802 247.089 186.429 246.302 187.454C245.515 188.479 244.752 188.103 244.752 188.103C244.752 188.103 244.842 190.267 245.831 191.471C246.859 191.671 247.919 191.622 248.924 191.328C250.152 191.036 251.863 189.45 252.56 187.799C254.038 184.313 254.074 181.202 251.845 180.32C251.571 178.728 250.301 178.043 248.865 177.751C245.771 177.113 243.781 179.044 241.403 178.871C240.038 178.758 239.782 179.753 240.628 181.202Z" fill="#263238"/>
<path d="M251.898 180.832L253.353 179.926C253.297 179.823 253.221 179.733 253.129 179.661C253.036 179.588 252.931 179.535 252.817 179.505C252.704 179.476 252.586 179.469 252.47 179.486C252.355 179.504 252.244 179.545 252.144 179.607C252.045 179.669 251.959 179.75 251.892 179.846C251.826 179.943 251.78 180.052 251.757 180.166C251.733 180.281 251.734 180.399 251.759 180.514C251.783 180.628 251.831 180.737 251.898 180.832Z" fill="#263238"/>
<path d="M223.261 204.672C224.024 205.012 233.023 211.663 234.43 210.888C235.836 210.114 243.03 201.698 243.03 201.698C243.638 200.758 243.962 199.662 243.962 198.542C243.962 197.423 243.638 196.327 243.03 195.387C241.624 195.69 240.375 196.493 239.514 197.645C238.322 199.469 233.089 205.989 233.089 205.989C231.801 205.346 230.514 204.69 229.239 204.029C228.184 203.48 227.123 202.938 226.092 202.348C225.801 202.217 225.528 202.049 225.281 201.847C224.769 201.347 224.858 200.125 224.87 199.463C224.866 199.155 224.88 198.846 224.912 198.539C224.959 198.158 225.031 197.234 224.345 197.526C224.218 197.59 224.107 197.684 224.024 197.8C223.916 197.94 223.833 198.097 223.779 198.265C223.648 198.665 223.69 199.106 223.577 199.505C223.562 199.566 223.531 199.622 223.487 199.666C223.458 199.691 223.424 199.71 223.387 199.722C223.35 199.733 223.311 199.736 223.273 199.731C222.283 199.702 221.342 198.313 220.889 197.574C220.724 197.223 220.463 196.926 220.138 196.716C219.851 196.629 219.543 196.641 219.263 196.749C218.984 196.857 218.748 197.055 218.594 197.312C218.166 197.955 217.989 198.734 218.099 199.499C218.188 200.538 218.647 201.511 219.393 202.241C220.532 203.268 221.841 204.091 223.261 204.672Z" fill="#FFA8A7"/>
<path d="M243.835 195.118C242.845 195.232 241.451 195.047 239.508 197.139C237.939 198.929 236.476 200.81 235.127 202.771C235.383 203.8 235.931 204.734 236.703 205.461C237.475 206.188 238.441 206.678 239.484 206.871C239.484 206.871 242.887 203.379 243.835 201.46C244.782 199.541 245.009 196.418 243.835 195.118Z" fill="url(#paint15_linear_23_535)"/>
</g>
<defs>
<linearGradient id="paint0_linear_23_535" x1="254.783" y1="233.304" x2="274.399" y2="234.809" gradientUnits="userSpaceOnUse">
<stop stop-color="#E697E6"/>
<stop offset="1" stop-color="#766CF5"/>
</linearGradient>
<linearGradient id="paint1_linear_23_535" x1="254.783" y1="244.502" x2="271.448" y2="246.197" gradientUnits="userSpaceOnUse">
<stop stop-color="#E697E6"/>
<stop offset="1" stop-color="#766CF5"/>
</linearGradient>
<linearGradient id="paint2_linear_23_535" x1="20.478" y1="217.266" x2="39.9005" y2="219.047" gradientUnits="userSpaceOnUse">
<stop stop-color="#E697E6"/>
<stop offset="1" stop-color="#766CF5"/>
</linearGradient>
<linearGradient id="paint3_linear_23_535" x1="20.2114" y1="227.738" x2="41.8392" y2="229.731" gradientUnits="userSpaceOnUse">
<stop stop-color="#E697E6"/>
<stop offset="1" stop-color="#766CF5"/>
</linearGradient>
<linearGradient id="paint4_linear_23_535" x1="63.6343" y1="152.737" x2="134.547" y2="163.353" gradientUnits="userSpaceOnUse">
<stop stop-color="#E697E6"/>
<stop offset="1" stop-color="#766CF5"/>
</linearGradient>
<linearGradient id="paint5_linear_23_535" x1="158.052" y1="93.3516" x2="198.189" y2="94.8589" gradientUnits="userSpaceOnUse">
<stop stop-color="#E697E6"/>
<stop offset="1" stop-color="#766CF5"/>
</linearGradient>
<linearGradient id="paint6_linear_23_535" x1="187.137" y1="110.087" x2="227.325" y2="111.599" gradientUnits="userSpaceOnUse">
<stop stop-color="#E697E6"/>
<stop offset="1" stop-color="#766CF5"/>
</linearGradient>
<linearGradient id="paint7_linear_23_535" x1="237.928" y1="84.6491" x2="256.19" y2="85.9648" gradientUnits="userSpaceOnUse">
<stop stop-color="#E697E6"/>
<stop offset="1" stop-color="#766CF5"/>
</linearGradient>
<linearGradient id="paint8_linear_23_535" x1="237.928" y1="142.963" x2="256.19" y2="144.279" gradientUnits="userSpaceOnUse">
<stop stop-color="#E697E6"/>
<stop offset="1" stop-color="#766CF5"/>
</linearGradient>
<linearGradient id="paint9_linear_23_535" x1="237.928" y1="113.801" x2="256.19" y2="115.117" gradientUnits="userSpaceOnUse">
<stop stop-color="#E697E6"/>
<stop offset="1" stop-color="#766CF5"/>
</linearGradient>
<linearGradient id="paint10_linear_23_535" x1="122.858" y1="223.54" x2="177.435" y2="230.642" gradientUnits="userSpaceOnUse">
<stop stop-color="#E697E6"/>
<stop offset="1" stop-color="#766CF5"/>
</linearGradient>
<linearGradient id="paint11_linear_23_535" x1="125.278" y1="225.961" x2="171.959" y2="238.655" gradientUnits="userSpaceOnUse">
<stop stop-color="#E697E6"/>
<stop offset="1" stop-color="#766CF5"/>
</linearGradient>
<linearGradient id="paint12_linear_23_535" x1="90.3828" y1="254.084" x2="125.042" y2="258.65" gradientUnits="userSpaceOnUse">
<stop stop-color="#E697E6"/>
<stop offset="1" stop-color="#766CF5"/>
</linearGradient>
<linearGradient id="paint13_linear_23_535" x1="89.4409" y1="268.907" x2="96.0179" y2="269.376" gradientUnits="userSpaceOnUse">
<stop stop-color="#E697E6"/>
<stop offset="1" stop-color="#766CF5"/>
</linearGradient>
<linearGradient id="paint14_linear_23_535" x1="250.915" y1="193.358" x2="257.975" y2="193.661" gradientUnits="userSpaceOnUse">
<stop stop-color="#E697E6"/>
<stop offset="1" stop-color="#766CF5"/>
</linearGradient>
<linearGradient id="paint15_linear_23_535" x1="235.127" y1="195.118" x2="245.611" y2="195.905" gradientUnits="userSpaceOnUse">
<stop stop-color="#E697E6"/>
<stop offset="1" stop-color="#766CF5"/>
</linearGradient>
<clipPath id="clip0_23_535">
<rect width="271" height="226" fill="white" transform="translate(15.5288 84.3499)"/>
</clipPath>
</defs>
</svg>
