<svg width="304" height="318" viewBox="0 0 304 318" fill="none" xmlns="http://www.w3.org/2000/svg">
<path opacity="0.3" fill-rule="evenodd" clip-rule="evenodd" d="M157.462 21.4004C203.005 21.2641 255.077 -19.2915 288.524 11.6065C321.878 42.4186 291.338 97.2969 288.678 142.617C286.293 183.231 298.459 226.59 273.994 259.103C246.888 295.125 202.541 315.882 157.462 316.994C111.381 318.131 65.6664 299.428 35.0321 264.999C5.84704 232.199 3.66803 186.493 2.3046 142.617C0.877651 96.6966 -9.0303 40.6795 27.1824 12.3884C62.8374 -15.467 112.21 21.5357 157.462 21.4004Z" fill="#EBEBEB"/>
<g clip-path="url(#clip0_23_2063)">
<path d="M297.278 233.495H1.20898V233.644H297.278V233.495Z" fill="#EBEBEB"/>
<path d="M267.612 243.053H248V243.202H267.612V243.053Z" fill="#EBEBEB"/>
<path d="M197.337 244.669H192.191V244.818H197.337V244.669Z" fill="#EBEBEB"/>
<path d="M247.408 237.541H236.045V237.689H247.408V237.541Z" fill="#EBEBEB"/>
<path d="M57.8469 238.539H32.2725V238.687H57.8469V238.539Z" fill="#EBEBEB"/>
<path d="M66.8713 238.539H63.123V238.687H66.8713V238.539Z" fill="#EBEBEB"/>
<path d="M134.529 241.046H79.0571V241.194H134.529V241.046Z" fill="#EBEBEB"/>
<path d="M141.546 207H27.2097C26.314 206.998 25.4555 206.64 24.8227 206.004C24.1899 205.368 23.8345 204.507 23.8345 203.608V42.3624C23.8423 41.4689 24.2011 40.6146 24.8331 39.9851C25.465 39.3555 26.3191 39.0015 27.2097 39H141.546C142.442 39 143.302 39.3574 143.936 39.9935C144.57 40.6297 144.927 41.4924 144.927 42.3921V203.608C144.927 204.508 144.57 205.37 143.936 206.006C143.302 206.643 142.442 207 141.546 207ZM27.2097 39.1188C26.3532 39.1204 25.5324 39.4628 24.9274 40.0709C24.3223 40.679 23.9825 41.5032 23.9825 42.3624V203.608C23.9825 204.467 24.3223 205.291 24.9274 205.899C25.5324 206.507 26.3532 206.85 27.2097 206.851H141.546C142.402 206.85 143.224 206.508 143.83 205.9C144.436 205.292 144.777 204.468 144.779 203.608V42.3624C144.777 41.5026 144.436 40.6785 143.83 40.0706C143.224 39.4626 142.402 39.1204 141.546 39.1188H27.2097Z" fill="#EBEBEB"/>
<path d="M269.631 207H155.289C154.393 206.998 153.534 206.641 152.9 206.005C152.267 205.369 151.91 204.507 151.908 203.608V42.3624C151.918 41.4684 152.278 40.6141 152.911 39.9847C153.544 39.3553 154.398 39.0015 155.289 39H269.631C270.521 39.0031 271.373 39.3578 272.004 39.9872C272.635 40.6166 272.993 41.47 273 42.3624V203.608C273 204.505 272.646 205.366 272.014 206.002C271.383 206.638 270.526 206.997 269.631 207ZM155.289 39.1188C154.432 39.1204 153.611 39.4626 153.005 40.0706C152.399 40.6785 152.058 41.5026 152.056 42.3624V203.608C152.058 204.468 152.399 205.292 153.005 205.9C153.611 206.508 154.432 206.85 155.289 206.851H269.631C270.488 206.85 271.309 206.508 271.915 205.9C272.521 205.292 272.863 204.468 272.864 203.608V42.3624C272.863 41.5026 272.521 40.6785 271.915 40.0706C271.309 39.4626 270.488 39.1204 269.631 39.1188H155.289Z" fill="#EBEBEB"/>
<path d="M189.663 174.101H260.802C260.803 175.363 260.319 176.577 259.449 177.489C258.58 178.401 257.393 178.941 256.136 178.996C248.491 179.341 236.732 180.552 233.001 184.794C226.049 192.707 226.724 220.497 235.05 226.931C237.661 228.95 245.27 232.96 245.27 232.96H205.188C205.188 232.96 212.294 228.867 214.775 226.931C223.065 220.444 223.296 192.671 216.309 184.794C212.726 180.754 201.707 179.448 194.305 179.038C193.049 178.966 191.868 178.415 191.004 177.497C190.141 176.578 189.661 175.363 189.663 174.101Z" fill="#F5F5F5"/>
<path d="M251.991 179.251C244.761 179.846 236.104 181.265 233.001 184.794C231.988 186.013 231.187 187.395 230.633 188.881H218.701C218.144 187.396 217.343 186.015 216.333 184.794C213.218 181.283 204.49 179.84 197.384 179.251H251.991Z" fill="#E6E6E6"/>
<path d="M219.968 174.137L220.933 163.046H206.912L205.94 174.137H219.968Z" fill="#EBEBEB"/>
<path d="M219.968 174.137L220.933 163.046H221.685L220.72 174.137H219.968Z" fill="#E0E0E0"/>
<path d="M218.636 173.008L219.406 164.174H208.238L207.468 173.008H218.636Z" fill="#F0F0F0"/>
<path d="M217.777 172.283L218.423 164.905H209.097L208.451 172.283H217.777Z" fill="#FAFAFA"/>
<path d="M224.516 174.101H238.603L237.04 156.178H222.953L224.516 174.101Z" fill="#E6E6E6"/>
<path d="M224.516 174.101H223.841L222.278 156.178H222.953L224.516 174.101Z" fill="#E0E0E0"/>
<path d="M225.789 172.277H237.004L235.76 158.008H224.545L225.789 172.277Z" fill="#F0F0F0"/>
<path d="M226.612 171.101H235.98L234.937 159.184H225.57L226.612 171.101Z" fill="#FAFAFA"/>
<path d="M231.343 164.543C231.192 164.695 231.013 164.816 230.815 164.899C230.618 164.981 230.406 165.024 230.191 165.024C229.977 165.024 229.765 164.981 229.568 164.899C229.37 164.816 229.191 164.695 229.04 164.543C228.888 164.391 228.767 164.211 228.685 164.013C228.602 163.815 228.56 163.602 228.56 163.387C228.56 163.172 228.602 162.96 228.685 162.761C228.767 162.563 228.888 162.383 229.04 162.232C229.346 161.927 229.76 161.755 230.191 161.755C230.623 161.755 231.037 161.927 231.343 162.232C231.647 162.539 231.818 162.954 231.818 163.387C231.818 163.82 231.647 164.235 231.343 164.543Z" fill="#EBEBEB"/>
<path d="M230.657 166.55C230.767 166.438 230.898 166.349 231.043 166.288C231.188 166.227 231.343 166.196 231.5 166.196C231.657 166.196 231.813 166.227 231.958 166.288C232.103 166.349 232.234 166.438 232.344 166.55C232.516 166.716 232.633 166.93 232.682 167.164C232.731 167.398 232.708 167.642 232.616 167.862C232.525 168.083 232.369 168.271 232.169 168.401C231.97 168.532 231.736 168.599 231.497 168.594C231.26 168.598 231.026 168.53 230.828 168.399C230.629 168.268 230.474 168.08 230.384 167.859C230.293 167.639 230.27 167.396 230.319 167.163C230.368 166.929 230.485 166.716 230.657 166.55Z" fill="#F0F0F0"/>
<path d="M111.27 229.295H124.966L117.754 170.358C117.579 169.127 116.976 167.997 116.05 167.17C115.124 166.342 113.936 165.87 112.697 165.838H52.8555L61.6073 229.295H111.27Z" fill="#F5F5F5"/>
<path d="M67.7534 229.295H54.0336L46.8036 170.358C46.7149 169.792 46.7514 169.213 46.9105 168.662C47.0695 168.111 47.3472 167.602 47.724 167.171C48.1007 166.74 48.5673 166.397 49.0908 166.166C49.6142 165.936 50.1817 165.824 50.7531 165.838H55.4902C56.7297 165.87 57.9176 166.342 58.8433 167.17C59.7689 167.997 60.3726 169.127 60.5471 170.358L67.7534 229.295Z" fill="#F0F0F0"/>
<path d="M72.8104 229.224L70.3234 200.709C70.2683 200.09 70.003 199.508 69.5719 199.062C69.1408 198.615 68.57 198.331 67.9549 198.255L66.9305 198.119C66.1078 198.014 65.3457 197.63 64.7713 197.03C64.197 196.43 63.8451 195.651 63.7744 194.822L63.3185 189.624C63.275 189.12 63.3362 188.614 63.4982 188.135C63.6603 187.657 63.9195 187.218 64.2597 186.845C64.5998 186.473 65.0134 186.175 65.4742 185.971C65.9349 185.768 66.4329 185.662 66.9364 185.661H44.0207C43.5171 185.662 43.0192 185.768 42.5584 185.971C42.0977 186.175 41.6841 186.473 41.344 186.845C41.0038 187.218 40.7445 187.657 40.5825 188.135C40.4205 188.614 40.3593 189.12 40.4027 189.624L40.8587 194.822C40.9294 195.651 41.2812 196.43 41.8556 197.03C42.43 197.63 43.1921 198.014 44.0148 198.119L45.0392 198.255C45.6547 198.329 46.2261 198.614 46.6574 199.061C47.0887 199.507 47.3537 200.089 47.4077 200.709L49.8947 229.224C49.9834 230.226 50.4429 231.159 51.1826 231.838C51.9223 232.517 52.8887 232.895 53.8916 232.895H76.8192C75.8135 232.9 74.8426 232.525 74.0998 231.845C73.357 231.165 72.8967 230.229 72.8104 229.224Z" fill="#E6E6E6"/>
<path d="M135.908 193.58C136.098 191.422 137.085 189.414 138.676 187.949C140.267 186.485 142.347 185.671 144.506 185.667H124.551C122.391 185.669 120.31 186.483 118.717 187.947C117.125 189.412 116.137 191.421 115.947 193.58L113.976 216.154H133.937L135.908 193.58Z" fill="#E6E6E6"/>
<path d="M153.388 185.667H144.506C142.346 185.669 140.265 186.483 138.672 187.947C137.08 189.412 136.092 191.421 135.902 193.58L133.931 216.154H86.3939L84.422 193.58C84.2327 191.421 83.2445 189.412 81.6521 187.947C80.0597 186.483 77.9785 185.669 75.8183 185.667H66.9362C66.4327 185.668 65.9347 185.773 65.474 185.977C65.0132 186.181 64.5996 186.479 64.2595 186.851C63.9194 187.224 63.6601 187.663 63.498 188.141C63.336 188.62 63.2748 189.126 63.3183 189.63L63.7742 194.828C63.8449 195.657 64.1968 196.436 64.7711 197.036C65.3455 197.636 66.1076 198.02 66.9303 198.125L67.9547 198.261C68.5698 198.336 69.1406 198.621 69.5717 199.068C70.0028 199.514 70.2681 200.096 70.3232 200.715L72.8102 229.23C72.8963 230.232 73.3541 231.165 74.0931 231.845C74.8321 232.525 75.7986 232.902 76.8012 232.901H143.529C144.532 232.9 145.499 232.523 146.238 231.844C146.978 231.165 147.437 230.232 147.526 229.23L150.007 200.715C150.062 200.096 150.328 199.514 150.759 199.068C151.19 198.621 151.761 198.336 152.376 198.261L153.4 198.131C154.223 198.024 154.985 197.638 155.559 197.037C156.133 196.437 156.485 195.657 156.556 194.828L157.012 189.63C157.056 189.126 156.994 188.619 156.832 188.14C156.67 187.661 156.41 187.221 156.069 186.849C155.728 186.476 155.314 186.179 154.852 185.975C154.391 185.772 153.892 185.667 153.388 185.667Z" fill="#F0F0F0"/>
<path d="M233.718 84.3208C233.718 84.3208 234.416 79.7346 231.077 76.7881C227.737 73.8416 228.033 72.095 228.987 71.8693C229.94 71.6436 230.822 74.5842 232.285 75.3921C232.285 75.3921 232.332 71.198 230.846 69.6535C229.36 68.1089 228.572 64.1287 229.987 64.0574C231.402 63.9861 231.556 66.4337 231.847 68.1445C232.137 69.8554 233.718 72.303 233.718 72.303C233.718 72.303 234.026 68.5485 234.991 67.004C235.956 65.4594 233.386 61.9247 234.399 60.3802C235.411 58.8356 237.152 61.7822 237.004 65.0911C236.856 68.4 234.636 71.9346 235.168 75.3921C235.168 75.3921 236.14 72.9624 237.016 72.7426C237.892 72.5228 238.763 70.9129 239.349 70.3188C239.935 69.7247 240.669 71.7861 239.349 73.699C238.028 75.6119 234.659 80.7267 235.168 84.8673L233.718 84.3208Z" fill="#E6E6E6"/>
<path d="M231.728 82.2356L230.633 89.1149C230.553 89.6141 230.582 90.1248 230.719 90.6116C230.855 91.0985 231.095 91.5498 231.422 91.9345C231.749 92.3191 232.155 92.628 232.613 92.8396C233.071 93.0513 233.569 93.1607 234.073 93.1604H235.257C235.761 93.1606 236.26 93.0511 236.718 92.8395C237.176 92.6279 237.582 92.3192 237.91 91.9346C238.238 91.5501 238.478 91.0989 238.615 90.6121C238.752 90.1253 238.782 89.6145 238.704 89.1149L237.608 82.2356H231.728Z" fill="#E6E6E6"/>
<path d="M248.255 90.6237H171.016V94.604H248.255V90.6237Z" fill="#E0E0E0"/>
<path d="M177.974 75.9445H174.569V90.6178H177.974V75.9445Z" fill="#EBEBEB"/>
<path d="M194.429 75.9445H191.024V90.6178H194.429V75.9445Z" fill="#EBEBEB"/>
<path d="M213.107 75.5712L209.751 76.1514L212.236 90.6115L215.591 90.0312L213.107 75.5712Z" fill="#EBEBEB"/>
<path d="M182.19 77.8812H178.785V90.6238H182.19V77.8812Z" fill="#EBEBEB"/>
<path d="M190.012 77.8812H186.607V90.6238H190.012V77.8812Z" fill="#EBEBEB"/>
<path d="M209.754 77.8812H206.349V90.6238H209.754V77.8812Z" fill="#EBEBEB"/>
<path d="M198.902 77.4299L195.578 78.171L198.334 90.61L201.657 89.869L198.902 77.4299Z" fill="#EBEBEB"/>
<path d="M185.127 75.2198H183.428V90.6238H185.127V75.2198Z" fill="#EBEBEB"/>
<path d="M205.366 75.2198H203.667V90.6238H205.366V75.2198Z" fill="#EBEBEB"/>
<path d="M171.011 124.325L248.249 124.325V120.345L171.011 120.345V124.325Z" fill="#E0E0E0"/>
<path d="M241.291 120.345H244.696V105.671H241.291V120.345Z" fill="#EBEBEB"/>
<path d="M224.835 120.345H228.24V105.671H224.835V120.345Z" fill="#EBEBEB"/>
<path d="M203.682 119.756L207.038 120.336L209.522 105.876L206.167 105.296L203.682 119.756Z" fill="#EBEBEB"/>
<path d="M237.081 120.345H240.486V107.602H237.081V120.345Z" fill="#EBEBEB"/>
<path d="M229.253 120.345H232.658V107.602H229.253V120.345Z" fill="#EBEBEB"/>
<path d="M209.511 120.345H212.916V107.602H209.511V120.345Z" fill="#EBEBEB"/>
<path d="M217.618 119.593L220.942 120.334L223.697 107.895L220.374 107.154L217.618 119.593Z" fill="#EBEBEB"/>
<path d="M234.132 120.345H235.832V104.941H234.132V120.345Z" fill="#EBEBEB"/>
<path d="M213.893 120.345H215.592V104.941H213.893V120.345Z" fill="#EBEBEB"/>
<path d="M178.43 120.208H195.01V108.725H178.43V120.208Z" fill="#EBEBEB"/>
<path d="M138.745 66.8614H44.4052C43.7119 66.8614 43.1499 67.4252 43.1499 68.1208V69.4693C43.1499 70.1649 43.7119 70.7287 44.4052 70.7287H138.745C139.438 70.7287 140 70.1649 140 69.4693V68.1208C140 67.4252 139.438 66.8614 138.745 66.8614Z" fill="#E0E0E0"/>
<path d="M134.251 69.9386H48.9058V145.919H134.251V69.9386Z" fill="#E6E6E6"/>
<path d="M132.006 72.0178H51.0435V143.869H132.006V72.0178Z" fill="#F0F0F0"/>
<path d="M70.0452 72.0178L51.0435 143.715V110.026L61.0743 72.0178H70.0452Z" fill="white"/>
<path d="M76.7718 72.0178L57.6043 143.875H54.5488L73.7163 72.0178H76.7718Z" fill="white"/>
<path d="M132.006 117.362V128.84L128.128 143.875H125.066L132.006 117.362Z" fill="white"/>
<path d="M79.2765 70.7287H77.9146V145.479H79.2765V70.7287Z" fill="#E6E6E6"/>
<path d="M105.71 70.7287H104.348V145.479H105.71V70.7287Z" fill="#E6E6E6"/>
<path d="M120.341 68.1089C120.341 68.1089 122.307 93.8139 133.599 106.913C133.599 106.913 125.374 139.996 125.38 151.533L140.663 148.699L135.157 107.115L137.792 68.1089H120.341Z" fill="#E0E0E0"/>
<path d="M62.7914 68.1089C62.7914 68.1089 60.8255 93.8139 49.5334 106.913C49.5334 106.913 57.7582 139.996 57.7523 151.533L42.4692 148.699L47.9761 107.115L45.3648 68.1089H62.7914Z" fill="#E0E0E0"/>
<path d="M149.243 260.323C212.651 260.323 264.053 257.312 264.053 253.598C264.053 249.884 212.651 246.873 149.243 246.873C85.8356 246.873 34.4336 249.884 34.4336 253.598C34.4336 257.312 85.8356 260.323 149.243 260.323Z" fill="#F5F5F5"/>
<path d="M229.224 236.543C229.224 236.352 228.584 217.574 225.552 214.622C222.633 211.77 219.264 214.515 219.122 214.622L218.743 214.164C218.784 214.135 222.663 210.956 225.967 214.164C229.17 217.289 229.792 235.711 229.816 236.489L229.224 236.543Z" fill="url(#paint0_linear_23_2063)"/>
<path d="M229.49 240.238C229.401 239.317 227.399 217.663 235.553 208.265L235.997 208.651C228.015 217.842 230.076 239.958 230.076 240.178L229.49 240.238Z" fill="url(#paint1_linear_23_2063)"/>
<path d="M229.3 237.873L228.708 237.832C228.708 237.582 230.301 212.459 224.356 206.976L224.759 206.537C230.911 212.216 229.371 236.822 229.3 237.873Z" fill="url(#paint2_linear_23_2063)"/>
<path d="M230.076 237.855H229.484C229.484 237.16 229.685 220.836 234.328 218.168C234.773 217.879 235.28 217.702 235.808 217.651C236.336 217.601 236.868 217.678 237.359 217.877C240.172 219.065 241.563 224.049 241.623 224.263L241.031 224.418C241.031 224.37 239.663 219.481 237.117 218.424C236.707 218.26 236.264 218.199 235.826 218.244C235.388 218.29 234.967 218.441 234.6 218.685C230.271 221.18 230.082 237.689 230.076 237.855Z" fill="url(#paint3_linear_23_2063)"/>
<path d="M228.282 237.867L227.69 237.838C227.69 237.707 228.383 224.982 224.972 220.509C224.149 219.44 223.267 218.935 222.337 218.994C220.116 219.148 218.251 222.416 218.233 222.451L217.712 222.16C217.795 222.012 219.761 218.596 222.29 218.4C223.427 218.323 224.492 218.905 225.44 220.147C228.987 224.798 228.312 237.339 228.282 237.867Z" fill="url(#paint4_linear_23_2063)"/>
<path d="M228.921 239.602C228.827 238.366 226.677 209.246 230.467 204.095L230.946 204.451C227.281 209.418 229.484 239.257 229.508 239.56L228.921 239.602Z" fill="url(#paint5_linear_23_2063)"/>
<path d="M238.366 220.871C238.366 220.871 236.098 221.709 236.773 223.687C237.448 225.665 244.619 228.927 244.619 228.927C244.619 228.927 247.621 226.164 244.862 221.679C242.102 217.194 238.425 219.457 238.366 220.871Z" fill="url(#paint6_linear_23_2063)"/>
<path opacity="0.2" d="M238.366 220.871C238.366 220.871 236.098 221.709 236.773 223.687C237.448 225.665 244.619 228.927 244.619 228.927C244.619 228.927 247.621 226.164 244.862 221.679C242.102 217.194 238.425 219.457 238.366 220.871Z" fill="white"/>
<path d="M228.507 217.105C228.507 217.105 230.923 217.004 231.059 219.089C231.195 221.174 225.83 226.954 225.83 226.954C225.83 226.954 221.999 225.564 222.822 220.354C223.645 215.145 227.909 215.816 228.507 217.105Z" fill="url(#paint7_linear_23_2063)"/>
<path opacity="0.2" d="M228.507 217.105C228.507 217.105 230.923 217.004 231.059 219.089C231.195 221.174 225.83 226.954 225.83 226.954C225.83 226.954 221.999 225.564 222.822 220.354C223.645 215.145 227.909 215.816 228.507 217.105Z" fill="white"/>
<path d="M226.464 207.119C226.464 207.119 228.074 206.947 227.944 205.966C227.814 204.986 221.685 202.449 218.073 206.56C218.073 206.56 220.388 210.552 223.734 210.6C227.08 210.648 226.464 207.119 226.464 207.119Z" fill="url(#paint8_linear_23_2063)"/>
<path opacity="0.2" d="M226.464 207.119C226.464 207.119 228.074 206.947 227.944 205.966C227.814 204.986 221.685 202.449 218.073 206.56C218.073 206.56 220.388 210.552 223.734 210.6C227.08 210.648 226.464 207.119 226.464 207.119Z" fill="white"/>
<path d="M229.466 204.743C229.466 204.743 228.01 205.449 227.601 204.547C227.192 203.644 231.053 198.244 236.282 199.794C236.282 199.794 236.424 204.41 233.605 206.228C230.787 208.046 229.466 204.743 229.466 204.743Z" fill="url(#paint9_linear_23_2063)"/>
<path opacity="0.2" d="M229.466 204.743C229.466 204.743 228.01 205.449 227.601 204.547C227.192 203.644 231.053 198.244 236.282 199.794C236.282 199.794 236.424 204.41 233.605 206.228C230.787 208.046 229.466 204.743 229.466 204.743Z" fill="white"/>
<path d="M221.845 220.075C221.845 220.075 222.953 219.178 221.756 218.739C220.56 218.299 214.651 218.424 214.609 224.269C214.609 224.269 221.46 225.41 222.307 223.182C223.154 220.954 221.845 220.075 221.845 220.075Z" fill="url(#paint10_linear_23_2063)"/>
<path opacity="0.2" d="M221.845 220.075C221.845 220.075 222.953 219.178 221.756 218.739C220.56 218.299 214.651 218.424 214.609 224.269C214.609 224.269 221.46 225.41 222.307 223.182C223.154 220.954 221.845 220.075 221.845 220.075Z" fill="white"/>
<path d="M235.814 206.964C235.814 206.964 234.706 206.061 235.902 205.622C237.099 205.182 243.008 205.307 243.044 211.158C243.044 211.158 236.193 212.299 235.346 210.071C234.499 207.844 235.814 206.964 235.814 206.964Z" fill="url(#paint11_linear_23_2063)"/>
<path opacity="0.2" d="M235.814 206.964C235.814 206.964 234.706 206.061 235.902 205.622C237.099 205.182 243.008 205.307 243.044 211.158C243.044 211.158 236.193 212.299 235.346 210.071C234.499 207.844 235.814 206.964 235.814 206.964Z" fill="white"/>
<path d="M232.19 211.675C232.19 211.675 232.095 210.576 232.977 211.01C233.86 211.444 236.921 214.758 233.741 217.907C233.741 217.907 229.466 214.729 230.236 213.071C231.006 211.414 232.19 211.675 232.19 211.675Z" fill="url(#paint12_linear_23_2063)"/>
<path opacity="0.2" d="M232.19 211.675C232.19 211.675 232.095 210.576 232.977 211.01C233.86 211.444 236.921 214.758 233.741 217.907C233.741 217.907 229.466 214.729 230.236 213.071C231.006 211.414 232.19 211.675 232.19 211.675Z" fill="white"/>
<path d="M220.85 213.232C220.85 213.232 221.514 212.358 220.542 212.251C219.571 212.145 215.213 213.309 216.226 217.675C216.226 217.675 221.555 217.277 221.762 215.459C221.969 213.642 220.85 213.232 220.85 213.232Z" fill="url(#paint13_linear_23_2063)"/>
<path opacity="0.2" d="M220.85 213.232C220.85 213.232 221.514 212.358 220.542 212.251C219.571 212.145 215.213 213.309 216.226 217.675C216.226 217.675 221.555 217.277 221.762 215.459C221.969 213.642 220.85 213.232 220.85 213.232Z" fill="white"/>
<path d="M238.792 254.061H220.566L218.606 234.048H240.758L238.792 254.061Z" fill="#263238"/>
<path d="M241.723 231.838H217.629V236.251H241.723V231.838Z" fill="#263238"/>
<path opacity="0.2" d="M241.723 231.838H217.629V236.251H241.723V231.838Z" fill="white"/>
<path d="M196.851 254.049H141.883C141.094 254.063 140.311 253.907 139.587 253.593C138.863 253.28 138.213 252.815 137.682 252.23C137.15 251.645 136.749 250.953 136.504 250.201C136.26 249.448 136.178 248.652 136.263 247.865L150.475 85.0218C150.647 83.3482 151.423 81.7957 152.658 80.6574C153.893 79.5191 155.501 78.8739 157.178 78.8436H212.128C212.917 78.8287 213.7 78.9828 214.425 79.2954C215.15 79.6081 215.801 80.0721 216.333 80.6567C216.865 81.2413 217.267 81.933 217.512 82.6857C217.757 83.4383 217.839 84.2347 217.753 85.0218L203.542 247.865C203.373 249.539 202.599 251.092 201.366 252.231C200.133 253.371 198.527 254.017 196.851 254.049Z" fill="url(#paint14_linear_23_2063)"/>
<path opacity="0.4" d="M196.851 254.049H141.883C141.094 254.063 140.311 253.907 139.587 253.593C138.863 253.28 138.213 252.815 137.682 252.23C137.15 251.645 136.749 250.953 136.504 250.201C136.26 249.448 136.178 248.652 136.263 247.865L150.475 85.0218C150.647 83.3482 151.423 81.7957 152.658 80.6574C153.893 79.5191 155.501 78.8739 157.178 78.8436H212.128C212.917 78.8287 213.7 78.9828 214.425 79.2954C215.15 79.6081 215.801 80.0721 216.333 80.6567C216.865 81.2413 217.267 81.933 217.512 82.6857C217.757 83.4383 217.839 84.2347 217.753 85.0218L203.542 247.865C203.373 249.539 202.599 251.092 201.366 252.231C200.133 253.371 198.527 254.017 196.851 254.049Z" fill="white"/>
<path d="M190.93 254.049H135.961C135.173 254.063 134.39 253.907 133.666 253.593C132.941 253.28 132.292 252.815 131.76 252.23C131.229 251.645 130.827 250.953 130.583 250.201C130.338 249.448 130.256 248.652 130.342 247.865L144.553 85.0218C144.725 83.3482 145.502 81.7957 146.737 80.6574C147.972 79.5191 149.58 78.8739 151.256 78.8436H206.207C206.996 78.8287 207.779 78.9828 208.504 79.2954C209.229 79.6081 209.879 80.0721 210.412 80.6567C210.944 81.2413 211.346 81.933 211.591 82.6857C211.836 83.4383 211.918 84.2347 211.832 85.0218L197.621 247.865C197.452 249.539 196.678 251.092 195.445 252.231C194.212 253.371 192.606 254.017 190.93 254.049Z" fill="#263238"/>
<path d="M190.93 254.049H135.961C135.173 254.063 134.39 253.907 133.666 253.593C132.941 253.28 132.292 252.815 131.76 252.23C131.229 251.645 130.827 250.953 130.583 250.201C130.338 249.448 130.256 248.652 130.342 247.865L144.553 85.0218C144.725 83.3482 145.502 81.7957 146.737 80.6574C147.972 79.5191 149.58 78.8739 151.256 78.8436H206.207C206.996 78.8287 207.779 78.9828 208.504 79.2954C209.229 79.6081 209.879 80.0721 210.412 80.6567C210.944 81.2413 211.346 81.933 211.591 82.6857C211.836 83.4383 211.918 84.2347 211.832 85.0218L197.621 247.865C197.452 249.539 196.678 251.092 195.445 252.231C194.212 253.371 192.606 254.017 190.93 254.049Z" fill="url(#paint15_linear_23_2063)"/>
<path d="M209.588 84.7426L195.376 247.895C195.258 249.238 194.423 250.271 193.493 250.271H133.901C133.048 250.271 132.491 249.315 132.598 248.085L146.874 84.5287C146.969 83.4594 147.591 82.5267 148.331 82.5267H163.223C163.644 82.5267 163.993 82.9248 164.1 83.4951L164.526 85.6931C164.633 86.2871 164.982 86.6555 165.402 86.6555H190.758C191.005 86.6187 191.236 86.5093 191.421 86.3413C191.607 86.1732 191.738 85.9539 191.8 85.7109L192.611 83.501C192.671 83.2543 192.802 83.0306 192.987 82.8575C193.172 82.6843 193.404 82.5694 193.653 82.5267H208.332C209.132 82.5267 209.688 83.5545 209.588 84.7426Z" fill="#263238"/>
<path d="M208.889 92.7208L196.679 232.711H133.936L146.146 92.7208H208.889Z" fill="url(#paint16_linear_23_2063)"/>
<path opacity="0.6" d="M153.376 89.103H154.152L154.282 87.606H153.506L153.376 89.103Z" fill="white"/>
<path opacity="0.6" d="M152.109 89.103H152.885L153.062 87.1069H152.287L152.109 89.103Z" fill="white"/>
<path opacity="0.6" d="M150.848 89.103H151.623L151.842 86.6079H151.067L150.848 89.103Z" fill="white"/>
<path opacity="0.6" d="M149.586 89.103H150.362L150.623 86.1089H149.847L149.586 89.103Z" fill="white"/>
<path opacity="0.6" d="M202.15 88.5564H201.688L201.825 87.0594H202.281L202.15 88.5564Z" fill="white"/>
<path opacity="0.6" d="M202.417 89.103H206.082L206.307 86.5129H202.648L202.417 89.103Z" fill="white"/>
<path opacity="0.6" d="M178.376 82.7406C178.317 83.4297 177.884 83.9881 177.405 83.9881C176.925 83.9881 176.594 83.4297 176.653 82.7406C176.712 82.0515 177.15 81.4931 177.624 81.4931C178.098 81.4931 178.435 82.0515 178.376 82.7406Z" fill="#263238"/>
<path opacity="0.6" d="M180.117 82.7406C180.082 83.1802 179.803 83.5366 179.495 83.5366C179.187 83.5366 178.98 83.1802 179.016 82.7406C179.051 82.301 179.335 81.9386 179.637 81.9386C179.939 81.9386 180.159 82.301 180.117 82.7406Z" fill="#263238"/>
<path opacity="0.7" d="M208.889 92.7208L207.195 112.141L206.905 115.491L205.549 131.05L205.336 133.467L203.412 155.525L203.204 157.943L201.357 179.121L201.09 182.168L196.685 232.711H133.936L146.146 92.7208H208.889Z" fill="white"/>
<path d="M149.006 127.242L147.342 130.307L150.67 132.428L149.006 127.242Z" fill="url(#paint17_linear_23_2063)"/>
<path d="M153.862 188.531L156.005 186.137L153.145 182.929L153.862 188.531Z" fill="url(#paint18_linear_23_2063)"/>
<path d="M178.471 98.4891L178.311 94.6337L174.823 96.1188L178.471 98.4891Z" fill="url(#paint19_linear_23_2063)"/>
<path d="M142.996 187.051L141.338 190.111L144.66 192.232L142.996 187.051Z" fill="url(#paint20_linear_23_2063)"/>
<path d="M145.021 173.917L143.766 177.244L141.184 175.046L143.257 171.469L145.021 173.917Z" fill="url(#paint21_linear_23_2063)"/>
<path d="M170.85 221.133L173.509 221.37L173.177 225.612L170.021 224.436L170.85 221.133Z" fill="url(#paint22_linear_23_2063)"/>
<path d="M149.243 149.139L150.907 149.608C150.907 149.608 148.414 151.984 149.575 153.85C150.735 155.715 148.746 157.384 148.746 157.384L147.248 155.97C147.635 155.527 147.901 154.989 148.017 154.41C148.133 153.832 148.097 153.233 147.911 152.673C147.248 150.79 149.243 149.139 149.243 149.139Z" fill="url(#paint23_linear_23_2063)"/>
<path d="M171.928 135.737L173.592 136.206C173.592 136.206 171.099 138.582 172.259 140.448C173.42 142.313 171.43 143.982 171.43 143.982L169.968 142.568C170.354 142.124 170.618 141.586 170.735 141.008C170.851 140.43 170.815 139.831 170.631 139.271C169.968 137.382 171.928 135.737 171.928 135.737Z" fill="url(#paint24_linear_23_2063)"/>
<path d="M149.409 113.388L147.881 116.59L151.292 118.42L149.409 113.388Z" fill="url(#paint25_linear_23_2063)"/>
<path d="M179.259 115.016L177.731 118.218L181.142 120.048L179.259 115.016Z" fill="url(#paint26_linear_23_2063)"/>
<path d="M164.875 109.931L165.799 106.295L162.181 105.707L164.875 109.931Z" fill="url(#paint27_linear_23_2063)"/>
<path d="M164.188 124.396L164.674 120.683L167.605 121.669L166.397 125.97L164.188 124.396Z" fill="url(#paint28_linear_23_2063)"/>
<path d="M199.006 119.044L199.492 115.331L202.417 116.317L201.209 120.618L199.006 119.044Z" fill="url(#paint29_linear_23_2063)"/>
<path d="M196.573 140.929L197.058 137.216L199.989 138.202L198.781 142.503L196.573 140.929Z" fill="url(#paint30_linear_23_2063)"/>
<path d="M188.324 136.331L186.643 136.598C186.643 136.598 188.514 133.277 187.004 131.982C185.494 130.687 187.033 128.257 187.033 128.257L188.762 128.964C188.762 128.964 187.797 130.883 188.839 132.392C189.882 133.901 188.324 136.331 188.324 136.331Z" fill="url(#paint31_linear_23_2063)"/>
<path d="M174.344 180.362L172.68 183.428L176.002 185.549L174.344 180.362Z" fill="url(#paint32_linear_23_2063)"/>
<path d="M163.975 192.232L162.312 195.297L165.633 197.418L163.975 192.232Z" fill="url(#paint33_linear_23_2063)"/>
<path d="M182.787 165.802L185.446 166.034L185.115 170.281L181.958 169.099L182.787 165.802Z" fill="url(#paint34_linear_23_2063)"/>
<path d="M192.724 201.588L195.376 201.82L195.045 206.061L191.889 204.885L192.724 201.588Z" fill="url(#paint35_linear_23_2063)"/>
<path d="M179.602 205.39L181.266 205.865C181.266 205.865 178.773 208.242 179.933 210.107C181.094 211.972 179.104 213.671 179.104 213.671L177.612 212.257C178.005 211.805 178.272 211.256 178.385 210.666C178.499 210.077 178.455 209.468 178.258 208.901C177.612 207.042 179.602 205.39 179.602 205.39Z" fill="url(#paint36_linear_23_2063)"/>
<path d="M194.275 188.358L193.227 188.703C193.227 188.703 193.677 185.56 192.374 184.473C191.071 183.386 191.521 181.075 191.521 181.075L192.824 181.61C192.74 182.719 193.041 183.823 193.677 184.735C194.719 186.048 194.275 188.358 194.275 188.358Z" fill="url(#paint37_linear_23_2063)"/>
<path d="M195.003 103.836L193.955 104.186C193.955 104.186 194.405 101.044 193.102 99.9564C191.8 98.8693 192.244 96.5584 192.244 96.5584L193.547 97.0931C193.466 98.2027 193.769 99.3064 194.405 100.218C195.43 101.525 195.003 103.836 195.003 103.836Z" fill="url(#paint38_linear_23_2063)"/>
<path d="M153.767 223.034L152.204 223.937C152.204 223.937 153.388 220.022 151.665 219.356C149.942 218.691 150.99 215.756 150.99 215.756H152.766C152.766 215.756 152.204 217.978 153.489 219.036C154.774 220.093 153.767 223.034 153.767 223.034Z" fill="url(#paint39_linear_23_2063)"/>
<path d="M153.086 98.4891C153.086 99.4634 152.53 100.271 151.843 100.271C151.156 100.271 150.593 99.4812 150.593 98.4891C150.593 97.497 151.15 96.7069 151.843 96.7069C152.535 96.7069 153.086 97.5149 153.086 98.4891Z" fill="url(#paint40_linear_23_2063)"/>
<path d="M166.883 166.455C166.883 167.436 166.29 168.238 165.633 168.238C164.976 168.238 164.39 167.448 164.39 166.455C164.39 165.463 164.946 164.673 165.633 164.673C166.32 164.673 166.883 165.481 166.883 166.455Z" fill="url(#paint41_linear_23_2063)"/>
<path d="M199.527 161.4C200.214 161.4 200.771 160.607 200.771 159.63C200.771 158.652 200.214 157.859 199.527 157.859C198.84 157.859 198.284 158.652 198.284 159.63C198.284 160.607 198.84 161.4 199.527 161.4Z" fill="url(#paint42_linear_23_2063)"/>
<path d="M205.609 99.7782C205.609 100.758 205.052 101.56 204.359 101.56C203.666 101.56 203.116 100.77 203.116 99.7782C203.116 98.7861 203.672 97.996 204.359 97.996C205.046 97.996 205.609 98.804 205.609 99.7782Z" fill="url(#paint43_linear_23_2063)"/>
<path d="M140.095 209.709L141.415 206.329L137.904 204.933L140.095 209.709Z" fill="url(#paint44_linear_23_2063)"/>
<path d="M189.787 226.188L189.088 229.925L192.73 230.061L189.787 226.188Z" fill="url(#paint45_linear_23_2063)"/>
<path d="M138.638 228.962C138.573 227.988 139.082 227.127 139.769 227.044C140.456 226.96 141.06 227.673 141.119 228.648C141.178 229.622 140.675 230.477 139.988 230.566C139.301 230.655 138.697 229.931 138.638 228.962Z" fill="url(#paint46_linear_23_2063)"/>
<g opacity="0.5">
<path d="M149.006 127.242L147.342 130.307L150.67 132.428L149.006 127.242Z" fill="white"/>
<path d="M153.862 188.531L156.006 186.137L153.146 182.929L153.862 188.531Z" fill="white"/>
<path d="M178.471 98.4891L178.311 94.6337L174.824 96.1188L178.471 98.4891Z" fill="white"/>
<path d="M142.996 187.051L141.338 190.111L144.66 192.232L142.996 187.051Z" fill="white"/>
<path d="M145.021 173.917L143.766 177.244L141.184 175.046L143.257 171.469L145.021 173.917Z" fill="white"/>
<path d="M170.85 221.133L173.509 221.37L173.178 225.612L170.021 224.436L170.85 221.133Z" fill="white"/>
<path d="M149.243 149.139L150.907 149.608C150.907 149.608 148.414 151.984 149.575 153.85C150.735 155.715 148.746 157.384 148.746 157.384L147.248 155.97C147.635 155.527 147.901 154.989 148.017 154.41C148.133 153.832 148.097 153.233 147.911 152.673C147.248 150.79 149.243 149.139 149.243 149.139Z" fill="white"/>
<path d="M171.928 135.737L173.592 136.206C173.592 136.206 171.099 138.582 172.26 140.448C173.42 142.313 171.431 143.982 171.431 143.982L169.968 142.568C170.354 142.124 170.619 141.586 170.735 141.008C170.851 140.43 170.816 139.831 170.631 139.271C169.968 137.382 171.928 135.737 171.928 135.737Z" fill="white"/>
<path d="M149.409 113.388L147.881 116.59L151.292 118.42L149.409 113.388Z" fill="white"/>
<path d="M179.259 115.016L177.731 118.218L181.142 120.048L179.259 115.016Z" fill="white"/>
<path d="M164.876 109.931L165.8 106.295L162.182 105.707L164.876 109.931Z" fill="white"/>
<path d="M164.189 124.396L164.675 120.683L167.606 121.669L166.398 125.97L164.189 124.396Z" fill="white"/>
<path d="M199.006 119.044L199.492 115.331L202.417 116.317L201.209 120.618L199.006 119.044Z" fill="white"/>
<path d="M196.573 140.929L197.058 137.216L199.989 138.202L198.781 142.503L196.573 140.929Z" fill="white"/>
<path d="M188.324 136.331L186.643 136.598C186.643 136.598 188.514 133.277 187.004 131.982C185.494 130.687 187.033 128.257 187.033 128.257L188.762 128.964C188.762 128.964 187.797 130.883 188.839 132.392C189.882 133.901 188.324 136.331 188.324 136.331Z" fill="white"/>
<path d="M174.344 180.362L172.68 183.428L176.002 185.549L174.344 180.362Z" fill="white"/>
<path d="M163.975 192.232L162.312 195.297L165.633 197.418L163.975 192.232Z" fill="white"/>
<path d="M182.788 165.802L185.447 166.034L185.115 170.281L181.959 169.099L182.788 165.802Z" fill="white"/>
<path d="M192.724 201.588L195.377 201.82L195.045 206.061L191.889 204.885L192.724 201.588Z" fill="white"/>
<path d="M179.602 205.39L181.266 205.865C181.266 205.865 178.773 208.242 179.934 210.107C181.095 211.972 179.105 213.671 179.105 213.671L177.613 212.257C178.006 211.805 178.273 211.256 178.386 210.666C178.499 210.077 178.455 209.468 178.258 208.901C177.613 207.042 179.602 205.39 179.602 205.39Z" fill="white"/>
<path d="M194.275 188.358L193.227 188.703C193.227 188.703 193.677 185.56 192.375 184.473C191.072 183.386 191.522 181.075 191.522 181.075L192.825 181.61C192.74 182.719 193.042 183.823 193.677 184.735C194.719 186.048 194.275 188.358 194.275 188.358Z" fill="white"/>
<path d="M195.004 103.836L193.956 104.186C193.956 104.186 194.406 101.044 193.103 99.9564C191.8 98.8693 192.244 96.5584 192.244 96.5584L193.547 97.0931C193.466 98.2027 193.77 99.3064 194.406 100.218C195.43 101.525 195.004 103.836 195.004 103.836Z" fill="white"/>
<path d="M153.767 223.034L152.204 223.937C152.204 223.937 153.388 220.022 151.665 219.356C149.942 218.691 150.99 215.756 150.99 215.756H152.766C152.766 215.756 152.204 217.978 153.489 219.036C154.774 220.093 153.767 223.034 153.767 223.034Z" fill="white"/>
<path d="M153.086 98.4891C153.086 99.4634 152.53 100.271 151.843 100.271C151.156 100.271 150.593 99.4812 150.593 98.4891C150.593 97.497 151.15 96.7069 151.843 96.7069C152.535 96.7069 153.086 97.5149 153.086 98.4891Z" fill="white"/>
<path d="M166.883 166.455C166.883 167.436 166.291 168.238 165.634 168.238C164.976 168.238 164.39 167.448 164.39 166.455C164.39 165.463 164.947 164.673 165.634 164.673C166.321 164.673 166.883 165.481 166.883 166.455Z" fill="white"/>
<path d="M199.528 161.4C200.214 161.4 200.771 160.607 200.771 159.63C200.771 158.652 200.214 157.859 199.528 157.859C198.841 157.859 198.284 158.652 198.284 159.63C198.284 160.607 198.841 161.4 199.528 161.4Z" fill="white"/>
<path d="M205.609 99.7782C205.609 100.758 205.052 101.56 204.359 101.56C203.666 101.56 203.116 100.77 203.116 99.7782C203.116 98.7861 203.672 97.996 204.359 97.996C205.046 97.996 205.609 98.804 205.609 99.7782Z" fill="white"/>
<path d="M140.095 209.709L141.415 206.329L137.904 204.933L140.095 209.709Z" fill="white"/>
<path d="M189.787 226.188L189.088 229.925L192.73 230.061L189.787 226.188Z" fill="white"/>
<path d="M138.638 228.962C138.573 227.988 139.082 227.127 139.769 227.044C140.456 226.96 141.06 227.673 141.119 228.648C141.178 229.622 140.675 230.477 139.988 230.566C139.301 230.655 138.697 229.931 138.638 228.962Z" fill="white"/>
</g>
<path d="M179.181 209.639H154.904C154.088 209.665 153.277 209.516 152.523 209.202C151.77 208.887 151.093 208.415 150.536 207.816C149.98 207.218 149.558 206.506 149.298 205.731C149.038 204.955 148.947 204.132 149.03 203.318C149.228 201.586 150.052 199.987 151.346 198.823C152.641 197.659 154.315 197.012 156.053 197.003H180.33C181.145 196.977 181.956 197.126 182.709 197.44C183.462 197.754 184.139 198.225 184.695 198.823C185.252 199.421 185.674 200.132 185.934 200.907C186.194 201.682 186.286 202.504 186.204 203.318C186.007 205.051 185.184 206.651 183.889 207.816C182.595 208.981 180.92 209.629 179.181 209.639Z" fill="url(#paint47_linear_23_2063)"/>
<path d="M152.559 111.048C152.572 110.565 152.766 110.104 153.104 109.76C153.441 109.415 153.896 109.21 154.377 109.188C154.597 109.179 154.817 109.226 155.014 109.325C155.212 109.424 155.382 109.571 155.508 109.752L155.188 110.079C155.095 109.944 154.97 109.834 154.825 109.759C154.679 109.684 154.517 109.647 154.353 109.651C153.994 109.671 153.656 109.825 153.405 110.084C153.155 110.343 153.011 110.687 153.003 111.048C152.967 111.213 152.968 111.385 153.006 111.551C153.044 111.716 153.118 111.871 153.223 112.004C153.328 112.138 153.46 112.246 153.612 112.322C153.763 112.398 153.929 112.44 154.098 112.444C154.273 112.442 154.446 112.402 154.603 112.326C154.761 112.25 154.9 112.14 155.01 112.004L155.271 112.337C155.121 112.521 154.932 112.67 154.718 112.772C154.504 112.875 154.27 112.929 154.033 112.931C153.092 112.907 152.458 112.123 152.559 111.048Z" fill="black"/>
<path d="M155.709 111.048C155.724 110.564 155.92 110.104 156.258 109.759C156.596 109.414 157.051 109.21 157.533 109.188C157.76 109.192 157.982 109.246 158.186 109.346C158.389 109.447 158.568 109.591 158.709 109.769C158.851 109.946 158.951 110.153 159.004 110.374C159.056 110.595 159.06 110.825 159.013 111.048C159 111.53 158.806 111.991 158.469 112.336C158.131 112.68 157.677 112.885 157.196 112.907C156.969 112.903 156.746 112.849 156.542 112.748C156.339 112.648 156.16 112.504 156.018 112.327C155.876 112.149 155.775 111.943 155.722 111.722C155.668 111.501 155.664 111.27 155.709 111.048ZM158.569 111.048C158.606 110.883 158.606 110.712 158.569 110.548C158.533 110.383 158.46 110.229 158.358 110.095C158.255 109.962 158.124 109.853 157.974 109.776C157.824 109.7 157.66 109.657 157.492 109.651C157.134 109.672 156.798 109.828 156.55 110.087C156.302 110.345 156.16 110.689 156.153 111.048C156.117 111.213 156.117 111.384 156.154 111.549C156.191 111.714 156.263 111.868 156.367 112.002C156.471 112.135 156.602 112.244 156.753 112.32C156.903 112.397 157.068 112.439 157.237 112.444C157.593 112.421 157.928 112.265 158.175 112.007C158.422 111.748 158.563 111.406 158.569 111.048Z" fill="black"/>
<path d="M162.542 109.23L162.211 112.865H161.844L160.221 110.156L159.978 112.865H159.534L159.866 109.23H160.227L161.849 111.939L162.098 109.23H162.542Z" fill="black"/>
<path d="M165.468 111.024H165.894L165.77 112.444C165.432 112.74 164.999 112.905 164.55 112.907C164.322 112.905 164.098 112.852 163.893 112.752C163.689 112.653 163.508 112.509 163.366 112.331C163.223 112.153 163.121 111.946 163.068 111.724C163.015 111.502 163.011 111.271 163.058 111.048C163.072 110.562 163.27 110.1 163.611 109.755C163.951 109.41 164.41 109.207 164.893 109.188C165.117 109.178 165.339 109.224 165.54 109.323C165.74 109.422 165.913 109.569 166.042 109.752L165.734 110.073C165.634 109.939 165.504 109.83 165.353 109.756C165.203 109.683 165.037 109.647 164.87 109.651C164.508 109.666 164.165 109.819 163.911 110.078C163.657 110.338 163.511 110.684 163.502 111.048C163.472 111.214 163.478 111.384 163.519 111.548C163.561 111.712 163.636 111.865 163.741 111.997C163.846 112.129 163.977 112.237 164.127 112.314C164.277 112.391 164.441 112.435 164.609 112.444C164.878 112.448 165.141 112.367 165.361 112.212L165.468 111.024Z" fill="black"/>
<path d="M168.659 112.865L168.067 111.749H167.872H167.102L167.001 112.853H166.557L166.889 109.218H168.103C168.27 109.196 168.441 109.214 168.6 109.271C168.759 109.328 168.902 109.423 169.018 109.546C169.134 109.67 169.218 109.819 169.265 109.982C169.312 110.145 169.319 110.317 169.287 110.483C169.28 110.731 169.201 110.971 169.06 111.175C168.919 111.378 168.722 111.536 168.493 111.63L169.121 112.853L168.659 112.865ZM168.866 110.489C168.914 109.972 168.641 109.675 168.073 109.675H167.315L167.167 111.309H167.925C168.041 111.323 168.159 111.313 168.271 111.278C168.383 111.244 168.486 111.187 168.575 111.111C168.663 111.034 168.735 110.94 168.785 110.834C168.836 110.728 168.863 110.612 168.866 110.495V110.489Z" fill="black"/>
<path d="M171.88 111.956H170.228L169.802 112.865H169.375L171.116 109.23H171.555L172.638 112.865H172.17L171.88 111.956ZM171.762 111.541L171.253 109.758L170.418 111.541H171.762Z" fill="black"/>
<path d="M173.823 109.693H172.757L172.798 109.242H175.374L175.333 109.693H174.267L173.977 112.877H173.521L173.823 109.693Z" fill="black"/>
<path d="M175.587 111.297L175.777 109.23H176.221L176.031 111.273C175.96 112.081 176.244 112.461 176.801 112.461C177.358 112.461 177.719 112.099 177.79 111.273L177.979 109.23H178.406L178.222 111.297C178.122 112.349 177.577 112.907 176.76 112.907C175.942 112.907 175.492 112.349 175.587 111.297Z" fill="black"/>
<path d="M179.324 109.23H179.768L179.478 112.414H181.159L181.124 112.865H178.992L179.324 109.23Z" fill="black"/>
<path d="M183.711 111.956H182.059L181.633 112.865H181.177L182.918 109.23H183.356L184.439 112.865H183.972L183.711 111.956ZM183.593 111.541L183.083 109.758L182.254 111.541H183.593Z" fill="black"/>
<path d="M185.654 109.693H184.588L184.629 109.242H187.205L187.14 109.693H186.074L185.784 112.877H185.364L185.654 109.693Z" fill="black"/>
<path d="M187.69 109.23H188.135L187.803 112.865H187.359L187.69 109.23Z" fill="black"/>
<path d="M188.65 111.048C188.667 110.564 188.865 110.104 189.203 109.76C189.542 109.416 189.998 109.212 190.479 109.188C190.706 109.192 190.929 109.246 191.132 109.346C191.335 109.447 191.514 109.591 191.655 109.769C191.797 109.946 191.897 110.153 191.95 110.374C192.003 110.595 192.006 110.825 191.96 111.048C191.947 111.53 191.752 111.991 191.415 112.336C191.078 112.68 190.623 112.885 190.142 112.907C189.915 112.904 189.691 112.85 189.487 112.75C189.283 112.65 189.103 112.507 188.96 112.329C188.818 112.151 188.716 111.945 188.662 111.723C188.609 111.502 188.604 111.271 188.65 111.048ZM191.516 111.048C191.551 110.883 191.55 110.713 191.513 110.549C191.476 110.384 191.404 110.23 191.301 110.097C191.199 109.964 191.068 109.855 190.919 109.778C190.77 109.701 190.606 109.658 190.438 109.651C190.08 109.672 189.743 109.827 189.494 110.086C189.245 110.345 189.102 110.688 189.094 111.048C189.058 111.213 189.059 111.384 189.097 111.549C189.135 111.714 189.208 111.869 189.312 112.002C189.416 112.135 189.548 112.244 189.699 112.32C189.849 112.397 190.015 112.439 190.183 112.444C190.54 112.421 190.874 112.265 191.121 112.007C191.368 111.748 191.509 111.406 191.516 111.048Z" fill="black"/>
<path d="M195.483 109.23L195.158 112.865H194.79L193.168 110.156L192.925 112.865H192.469L192.801 109.23H193.168L194.79 111.939L195.033 109.23H195.483Z" fill="black"/>
<path d="M195.844 112.45L196.022 112.069C196.149 112.204 196.303 112.31 196.473 112.381C196.643 112.453 196.826 112.488 197.011 112.485C197.55 112.485 197.804 112.242 197.828 111.927C197.911 111.042 195.975 111.6 196.099 110.251C196.136 109.945 196.291 109.664 196.531 109.47C196.771 109.276 197.077 109.183 197.384 109.212C197.735 109.202 198.078 109.316 198.355 109.533L198.171 109.949C197.936 109.759 197.644 109.654 197.342 109.651C196.815 109.651 196.567 109.913 196.537 110.246C196.454 111.137 198.39 110.578 198.272 111.915C198.233 112.224 198.075 112.506 197.832 112.699C197.588 112.893 197.278 112.982 196.969 112.949C196.758 112.946 196.549 112.901 196.356 112.815C196.162 112.729 195.988 112.605 195.844 112.45Z" fill="black"/>
<path d="M156.129 200.37V200.861H154.116V202.422H155.75V202.914H154.116V205H153.512V200.37H156.129ZM157.372 201.951C157.479 201.743 157.629 201.581 157.824 201.466C158.023 201.351 158.265 201.293 158.548 201.293V201.918H158.389C157.711 201.918 157.372 202.285 157.372 203.02V205H156.768V201.359H157.372V201.951ZM162.476 203.04C162.476 203.155 162.47 203.277 162.456 203.406H159.547C159.569 203.764 159.691 204.046 159.912 204.249C160.138 204.449 160.41 204.548 160.729 204.548C160.99 204.548 161.207 204.488 161.38 204.369C161.557 204.245 161.681 204.081 161.752 203.877H162.403C162.306 204.227 162.111 204.513 161.819 204.734C161.526 204.951 161.163 205.06 160.729 205.06C160.384 205.06 160.074 204.982 159.799 204.827C159.529 204.672 159.316 204.453 159.161 204.17C159.006 203.882 158.929 203.55 158.929 203.173C158.929 202.797 159.004 202.467 159.155 202.183C159.305 201.9 159.516 201.683 159.786 201.532C160.06 201.377 160.375 201.3 160.729 201.3C161.075 201.3 161.38 201.375 161.646 201.526C161.912 201.676 162.115 201.884 162.257 202.15C162.403 202.411 162.476 202.708 162.476 203.04ZM161.852 202.914C161.852 202.684 161.801 202.487 161.699 202.323C161.597 202.154 161.458 202.028 161.281 201.944C161.108 201.856 160.915 201.811 160.703 201.811C160.397 201.811 160.136 201.909 159.919 202.104C159.706 202.298 159.584 202.569 159.553 202.914H161.852ZM166.505 203.04C166.505 203.155 166.498 203.277 166.485 203.406H163.575C163.597 203.764 163.719 204.046 163.94 204.249C164.166 204.449 164.439 204.548 164.757 204.548C165.019 204.548 165.236 204.488 165.408 204.369C165.586 204.245 165.71 204.081 165.78 203.877H166.432C166.334 204.227 166.139 204.513 165.847 204.734C165.555 204.951 165.191 205.06 164.757 205.06C164.412 205.06 164.102 204.982 163.827 204.827C163.557 204.672 163.345 204.453 163.19 204.17C163.035 203.882 162.957 203.55 162.957 203.173C162.957 202.797 163.032 202.467 163.183 202.183C163.334 201.9 163.544 201.683 163.814 201.532C164.089 201.377 164.403 201.3 164.757 201.3C165.103 201.3 165.408 201.375 165.674 201.526C165.94 201.676 166.144 201.884 166.285 202.15C166.432 202.411 166.505 202.708 166.505 203.04ZM165.88 202.914C165.88 202.684 165.829 202.487 165.727 202.323C165.625 202.154 165.486 202.028 165.309 201.944C165.136 201.856 164.943 201.811 164.731 201.811C164.425 201.811 164.164 201.909 163.947 202.104C163.734 202.298 163.613 202.569 163.582 202.914H165.88ZM171.741 200.37V200.861H170.479V205H169.874V200.861H168.605V200.37H171.741ZM172.998 201.951C173.105 201.743 173.255 201.581 173.45 201.466C173.649 201.351 173.891 201.293 174.174 201.293V201.918H174.015C173.337 201.918 172.998 202.285 172.998 203.02V205H172.394V201.359H172.998V201.951ZM175.093 200.768C174.978 200.768 174.88 200.728 174.801 200.649C174.721 200.569 174.681 200.471 174.681 200.356C174.681 200.241 174.721 200.144 174.801 200.064C174.88 199.984 174.978 199.944 175.093 199.944C175.204 199.944 175.297 199.984 175.372 200.064C175.452 200.144 175.492 200.241 175.492 200.356C175.492 200.471 175.452 200.569 175.372 200.649C175.297 200.728 175.204 200.768 175.093 200.768ZM175.385 201.359V205H174.781V201.359H175.385ZM176.098 203.166C176.098 202.794 176.174 202.469 176.324 202.19C176.475 201.906 176.681 201.687 176.942 201.532C177.208 201.377 177.502 201.3 177.826 201.3C178.144 201.3 178.421 201.368 178.656 201.506C178.891 201.643 179.066 201.816 179.181 202.024V201.359H179.792V205H179.181V204.322C179.061 204.535 178.882 204.712 178.643 204.854C178.408 204.991 178.133 205.06 177.819 205.06C177.496 205.06 177.203 204.98 176.942 204.821C176.681 204.661 176.475 204.438 176.324 204.15C176.174 203.862 176.098 203.534 176.098 203.166ZM179.181 203.173C179.181 202.899 179.125 202.659 179.015 202.456C178.904 202.252 178.753 202.097 178.563 201.991C178.377 201.88 178.171 201.825 177.945 201.825C177.719 201.825 177.513 201.878 177.327 201.984C177.141 202.09 176.993 202.245 176.882 202.449C176.772 202.653 176.716 202.892 176.716 203.166C176.716 203.445 176.772 203.689 176.882 203.897C176.993 204.101 177.141 204.258 177.327 204.369C177.513 204.475 177.719 204.528 177.945 204.528C178.171 204.528 178.377 204.475 178.563 204.369C178.753 204.258 178.904 204.101 179.015 203.897C179.125 203.689 179.181 203.448 179.181 203.173ZM181.327 200.084V205H180.722V200.084H181.327Z" fill="white"/>
<path d="M191.994 159.812C195.038 144.851 188.398 130.859 177.165 128.559C165.932 126.259 154.359 136.523 151.316 151.483C148.272 166.444 154.911 180.436 166.145 182.736C177.378 185.036 188.951 174.773 191.994 159.812Z" fill="url(#paint48_linear_23_2063)"/>
<path opacity="0.3" d="M191.994 159.812C195.038 144.851 188.398 130.859 177.165 128.559C165.932 126.259 154.359 136.523 151.316 151.483C148.272 166.444 154.911 180.436 166.145 182.736C177.378 185.036 188.951 174.773 191.994 159.812Z" fill="white"/>
<path d="M139.105 157.248L146.057 152.352L150.688 154.937L163.975 152.442L163.383 157.586L150.557 158.115C150.557 158.115 144.506 161.81 143.321 161.97C142.137 162.131 139.105 157.248 139.105 157.248Z" fill="#E4897B"/>
<path d="M192.345 155.269C192.315 155.614 192.28 155.964 192.244 156.309L158.664 158.881H158.427V157.812V153.493V151.622L159.138 151.479L191.664 144.743C192.433 148.195 192.662 151.746 192.345 155.269Z" fill="url(#paint49_linear_23_2063)"/>
<path opacity="0.2" d="M192.345 155.269C192.315 155.614 192.28 155.964 192.244 156.309L158.664 158.881H158.427V157.812V153.493V151.622L159.138 151.479L191.664 144.743C192.433 148.195 192.662 151.746 192.345 155.269Z" fill="black"/>
<path d="M156.917 151.408L159.209 150.98L158.575 160.277L156.017 159.951L156.917 151.408Z" fill="url(#paint50_linear_23_2063)"/>
<path opacity="0.5" d="M156.917 151.408L159.209 150.98L158.575 160.277L156.017 159.951L156.917 151.408Z" fill="white"/>
<path d="M122.822 142.45L122.917 142.438L122.911 142.426L122.922 142.42L122.917 142.396L122.822 142.45Z" fill="#263238"/>
<path d="M159.067 134.869L158.729 134.917L134.481 136.628L123.112 142.212L122.911 142.224L126.629 164.549L149.687 162.921L162.252 156.802L159.067 134.869Z" fill="#263238"/>
<path opacity="0.2" d="M125.842 143.792L126.842 144.6L128.074 144.226L127.618 145.432L128.346 146.489L127.067 146.43L126.292 147.451L125.954 146.21L124.74 145.782L125.812 145.081L125.842 143.792Z" fill="white"/>
<path opacity="0.2" d="M139.105 144.713V146.002L140.165 146.727L138.946 147.125L138.584 148.36L137.826 147.321L136.547 147.362L137.299 146.317L136.867 145.105L138.087 145.497L139.105 144.713Z" fill="white"/>
<path opacity="0.2" d="M139.644 158.572V159.861L140.704 160.586L139.491 160.99L139.129 162.226L138.371 161.186L137.086 161.222L137.838 160.176L137.406 158.964L138.626 159.362L139.644 158.572Z" fill="white"/>
<path opacity="0.2" d="M133.8 155.513L133.806 156.796L134.866 157.527L133.646 157.925L133.285 159.16L132.527 158.121L131.242 158.162L131.994 157.117L131.562 155.905L132.788 156.297L133.8 155.513Z" fill="white"/>
<path opacity="0.2" d="M140.142 154.634L140.148 155.388L140.763 155.816L140.053 156.048L139.84 156.772L139.396 156.166L138.644 156.184L139.088 155.578L138.833 154.865L139.55 155.097L140.142 154.634Z" fill="white"/>
<path opacity="0.2" d="M129.738 160.586V161.341L130.36 161.762L129.649 162L129.436 162.719L128.992 162.113L128.24 162.137L128.678 161.525L128.429 160.812L129.146 161.044L129.738 160.586Z" fill="white"/>
<path opacity="0.2" d="M128.358 153.297L128.364 154.051L128.98 154.473L128.27 154.711L128.056 155.436L127.612 154.824L126.866 154.848L127.304 154.236L127.05 153.529L127.766 153.76L128.358 153.297Z" fill="white"/>
<path opacity="0.2" d="M143.541 141.362V142.117L144.162 142.545L143.452 142.776L143.239 143.501L142.794 142.895L142.042 142.919L142.481 142.307L142.232 141.594L142.948 141.826L143.541 141.362Z" fill="white"/>
<path opacity="0.2" d="M130.348 147.434L131.206 148.907L132.9 149.032L131.769 150.303L132.172 151.954L130.62 151.271L129.175 152.168L129.347 150.475L128.05 149.37L129.708 149.008L130.348 147.434Z" fill="white"/>
<path opacity="0.2" d="M141.628 149.75L143.209 150.362L144.613 149.406L144.518 151.105L145.856 152.145L144.216 152.584L143.648 154.182L142.724 152.756L141.03 152.703L142.102 151.384L141.628 149.75Z" fill="white"/>
<path opacity="0.2" d="M145.294 156.802L146.152 158.275L147.846 158.4L146.715 159.671L147.117 161.323L145.566 160.64L144.121 161.531L144.293 159.838L142.996 158.739L144.654 158.376L145.294 156.802Z" fill="white"/>
<path opacity="0.2" d="M148.432 141.422L149.018 142.135L149.61 141.648L149.492 142.895L149.959 143.881L149.302 143.941L149 145.04L148.71 143.828L148.053 143.519L148.532 142.711L148.432 141.422Z" fill="white"/>
<path opacity="0.2" d="M155.295 141.101L155.419 142.39L156.029 143.02L155.443 143.537L155.372 144.802L154.892 143.834L154.235 143.994L154.525 142.877L154.188 141.707L154.851 141.986L155.295 141.101Z" fill="white"/>
<path opacity="0.2" d="M156.87 154.925L156.988 156.208L157.598 156.838L157.012 157.354L156.941 158.62L156.461 157.652L155.804 157.812L156.094 156.695L155.763 155.525L156.42 155.804L156.87 154.925Z" fill="white"/>
<path opacity="0.2" d="M153.595 152.406L153.714 153.689L154.323 154.319L153.737 154.836L153.666 156.107L153.187 155.133L152.535 155.293L152.819 154.176L152.482 153.006L153.145 153.285L153.595 152.406Z" fill="white"/>
<path opacity="0.2" d="M156.757 150.939L156.828 151.687L157.184 152.055L156.84 152.358L156.799 153.101L156.515 152.537L156.136 152.626L156.301 151.972L156.106 151.289L156.497 151.45L156.757 150.939Z" fill="white"/>
<path opacity="0.2" d="M151.991 157.859L152.062 158.614L152.417 158.982L152.074 159.279L152.032 160.028L151.748 159.457L151.369 159.552L151.535 158.899L151.339 158.21L151.724 158.376L151.991 157.859Z" fill="white"/>
<path opacity="0.2" d="M150.605 150.695L150.676 151.45L151.031 151.818L150.688 152.121L150.646 152.863L150.362 152.293L149.983 152.388L150.149 151.735L149.954 151.046L150.344 151.212L150.605 150.695Z" fill="white"/>
<path opacity="0.2" d="M157.255 137.341L157.326 138.095L157.681 138.463L157.338 138.76L157.302 139.509L157.018 138.939L156.633 139.028L156.799 138.38L156.604 137.691L156.994 137.857L157.255 137.341Z" fill="white"/>
<path opacity="0.2" d="M151.073 144.642L151.647 146.038L152.524 146.002L152.068 147.38L152.429 148.996L151.57 148.455L150.913 149.489L150.842 147.778L150.078 146.798L150.895 146.281L151.073 144.642Z" fill="white"/>
<path opacity="0.2" d="M157.059 145.907L157.924 146.376L158.552 145.283L158.664 146.994L159.446 147.915L158.646 148.497L158.504 150.154L157.9 148.812L157.03 148.919L157.456 147.499L157.059 145.907Z" fill="white"/>
<path opacity="0.2" d="M159.593 152.62L160.168 154.01L161.044 153.98L160.588 155.358L160.949 156.974L160.091 156.434L159.434 157.467L159.362 155.756L158.599 154.776L159.41 154.259L159.593 152.62Z" fill="white"/>
<path opacity="0.2" d="M145.957 140.661L159.072 134.97L162.264 156.98L149.705 163.176L145.957 140.661Z" fill="black"/>
<path opacity="0.2" d="M122.816 142.319L134.481 136.628L158.895 134.905L145.951 140.513L122.816 142.319Z" fill="white"/>
<path d="M157.93 159.178L154.786 136.497L130.982 138.178L128.814 139.515L150.599 138.57L154.934 160.521L157.93 159.178Z" fill="url(#paint51_linear_23_2063)"/>
<path d="M146.33 135.79L135.488 141.226L138.407 163.717L134.961 163.96L131.005 141.618L143.168 136.016L146.33 135.79Z" fill="url(#paint52_linear_23_2063)"/>
<path opacity="0.2" d="M154.797 136.693L150.605 138.618L154.939 160.598L157.936 159.273L154.797 136.693Z" fill="black"/>
<path opacity="0.1" d="M131.017 141.713L135.494 141.279L138.407 163.717L134.961 163.96L131.017 141.713Z" fill="black"/>
<path d="M139.319 138.065C139.319 138.065 132.503 133.622 129.791 135.048C127.642 136.17 128.169 139.052 133.835 139.39C131.739 139.729 129.27 140.24 127.819 140.917L132.089 141.125C134.59 140.245 137.158 139.572 139.769 139.111C139.908 139.585 139.943 140.084 139.869 140.572L142.747 140.115C142.747 140.115 141.835 139.36 141.095 138.808C144.393 138.244 151.434 136.669 151.931 133.461C152.547 129.297 142.493 132.772 139.319 138.065ZM129.844 135.873C130.437 134.745 138.934 138.452 138.934 138.452C135.138 139.259 129.24 137.02 129.85 135.873H129.844ZM140.065 138.19C140.065 138.19 148.39 131.269 150.605 132.523C152.819 133.776 142.729 138.255 140.071 138.208L140.065 138.19Z" fill="url(#paint53_linear_23_2063)"/>
<path opacity="0.1" d="M139.319 138.065C139.319 138.065 132.503 133.622 129.791 135.048C127.642 136.17 128.169 139.052 133.835 139.39C131.739 139.729 129.27 140.24 127.819 140.917L132.089 141.125C134.59 140.245 137.158 139.572 139.769 139.111C139.908 139.585 139.943 140.084 139.869 140.572L142.747 140.115C142.747 140.115 141.835 139.36 141.095 138.808C144.393 138.244 151.434 136.669 151.931 133.461C152.547 129.297 142.493 132.772 139.319 138.065ZM129.844 135.873C130.437 134.745 138.934 138.452 138.934 138.452C135.138 139.259 129.24 137.02 129.85 135.873H129.844ZM140.065 138.19C140.065 138.19 148.39 131.269 150.605 132.523C152.819 133.776 142.729 138.255 140.071 138.208L140.065 138.19Z" fill="black"/>
<path d="M152.932 157.36L160.665 153.832L164.739 157.23H178.258L176.736 162.172L164.047 160.325C164.047 160.325 157.415 162.838 156.23 162.808C155.046 162.778 152.932 157.36 152.932 157.36Z" fill="#E4897B"/>
<path d="M192.309 155.632C192.309 155.863 192.268 156.083 192.244 156.309C191.857 159.748 190.986 163.114 189.656 166.307L171.709 163.158L171.513 163.123L171.833 161.442L172.65 157.212L172.887 155.958H173.568L192.309 155.632Z" fill="url(#paint54_linear_23_2063)"/>
<path d="M171.513 154.907H173.841L171.513 163.931L169.062 163.141L171.513 154.907Z" fill="url(#paint55_linear_23_2063)"/>
<path opacity="0.7" d="M171.513 154.907H173.841L171.513 163.931L169.062 163.141L171.513 154.907Z" fill="white"/>
<path d="M117.179 82.3705L109.173 80.9804C107.984 80.7739 106.854 81.5735 106.648 82.7664L105.262 90.7975C105.056 91.9904 105.854 93.1249 107.043 93.3314L115.048 94.7215C116.237 94.9279 117.367 94.1283 117.573 92.9354L118.959 84.9043C119.165 83.7114 118.368 82.5769 117.179 82.3705Z" fill="url(#paint56_linear_23_2063)"/>
<path opacity="0.6" d="M115.918 86.0079C115.296 84.4396 113.549 84.6951 112.489 85.6456C111.826 84.398 110.257 83.5664 109.144 84.8317C107.267 86.9644 109.902 89.703 111.181 90.8139C111.323 90.9446 111.447 91.0515 111.548 91.1347L111.992 90.9565C113.573 90.3386 116.972 88.6515 115.918 86.0079Z" fill="white"/>
<path d="M112.53 93.297C112.53 93.297 110.274 96.7248 106.455 97.2535C106.455 97.2535 108.658 96.4456 109.167 92.5545L112.53 93.297Z" fill="url(#paint57_linear_23_2063)"/>
<path d="M61.3552 181.876C60.8859 164.333 62.2755 160.114 66.9414 156.892L68.782 167.048C68.782 167.048 66.6561 179.051 66.8862 183.03C67.0794 186.538 67.42 190.933 68.2482 193.768C68.3999 194.266 68.7269 194.693 69.1685 194.968C70.1331 195.657 70.9946 196.481 71.7269 197.415C72.4264 198.153 73.0245 198.338 72.9325 198.569C72.7983 198.826 72.572 199.024 72.299 199.121C72.0261 199.219 71.7264 199.209 71.46 199.095C70.8632 198.857 70.2976 198.547 69.7759 198.172C70.1883 199.248 70.7692 200.252 71.4969 201.145C73.1626 203.185 73.2362 204.441 69.8771 204.478C67.7697 204.478 66.0855 203.194 64.5026 198.541C63.8907 196.835 63.3956 195.089 63.0209 193.315C62.2331 189.54 61.6769 185.72 61.3552 181.876Z" fill="#FFA8A7"/>
<path d="M70.8618 155.562C69.4303 155.306 67.9545 155.522 66.6565 156.18C65.3585 156.838 64.3087 157.901 63.6651 159.209C61.7141 162.709 61.2355 168.738 61.0147 174.73C61.0147 174.73 64.8891 177.989 69.5458 176.392L70.8618 155.562Z" fill="url(#paint58_linear_23_2063)"/>
<path d="M64.3185 252.137C63.9687 252.276 63.8767 252.95 63.8215 254.289C63.8215 255.304 63.573 257.058 64.7418 257.437C65.9106 257.815 67.6683 257.603 68.423 256.652C69.3433 255.452 70.0151 254.409 71.3679 252.959C72.5459 251.694 73.8159 250.512 74.2852 248.74C74.7178 247.133 74.3589 246.441 73.2729 245.97C71.7728 245.333 69.4169 247.429 68.2389 247.752C67.245 248.029 64.6774 252.008 64.3185 252.137Z" fill="#263238"/>
<path d="M64.3188 250.9V252.544C64.9348 252.94 65.6471 253.16 66.3787 253.18C67.1102 253.199 67.8332 253.017 68.4693 252.654C68.5429 252.498 68.9019 250.3 68.9019 250.3L64.3188 250.9Z" fill="#FFA8A7"/>
<path d="M77.6264 261.684C77.336 262.566 77.0933 263.463 76.8993 264.371C76.6969 265.368 76.4024 267.03 76.7521 267.778C77.1018 268.526 78.4546 269.015 80.5621 268.996C82.3106 269.211 83.9927 269.8 85.4949 270.723C87.4537 271.557 89.5868 271.896 91.7068 271.711C93.5474 271.499 95.5169 270.409 95.8205 269.634C96.1242 268.858 95.7193 268.045 91.3111 266.162C91.3111 266.162 85.182 264.158 83.0285 261.795L77.6264 261.684Z" fill="#263238"/>
<path d="M77.626 259.837V261.758C77.626 262.46 78.4358 263.503 80.5709 263.42C82.0618 263.364 83.1109 262.967 83.0465 261.73V259.948L77.626 259.837Z" fill="#FFA8A7"/>
<path d="M63.2509 229.037C63.6157 226.118 64.2661 223.242 65.1927 220.45C65.1927 220.45 64.6037 213.064 64.3276 206.029C64.0239 198.449 64.3276 188.911 64.1988 187.018C64.1988 187.018 88.5865 182.07 89.0467 190.841C89.5068 199.612 88.1264 221.918 87.7951 225.769C87.4638 229.619 86.8748 233.016 86.0557 239.258C85.2367 245.499 83.074 259.967 83.074 259.967C82.2313 260.398 81.2955 260.613 80.3499 260.594C79.4042 260.574 78.478 260.321 77.6535 259.856C77.6535 259.856 75.9325 242.314 76.1166 237.891C76.2548 234.598 76.8178 231.336 77.7915 228.188C77.7915 228.188 77.3314 220.958 76.9264 214.671C76.5215 208.383 76.0798 205.364 76.0061 202.668L75.4816 202.41C75.4816 202.41 74.9478 213.258 74.6533 217.108C74.3588 220.958 73.733 224.651 72.6471 231.798C71.6808 238.002 68.8187 251.131 68.8187 251.131C66.0578 252.645 64.3645 250.937 64.3645 250.937C64.3645 250.937 62.5054 234.42 63.2509 229.037Z" fill="#37474F"/>
<path d="M75.9604 202.594C75.9604 202.594 70.0429 199.667 67.0796 197.055C67.0796 197.055 69.8405 200.942 73.4388 202.659C73.4388 202.659 74.7273 216.139 74.718 215.871L75.4635 202.594H75.9604Z" fill="#263238"/>
<path d="M81.2246 152.783L79.7798 160.751L72.6107 160.225L74.1108 151.195L81.2246 152.783Z" fill="#FFA8A7"/>
<path d="M65.0273 159.643C65.7451 157.474 68.4784 155.119 71.2209 155.627C75.2819 156.326 79.2844 157.332 83.1939 158.637C85.7063 159.56 87.9886 161.711 88.2003 169.993C88.2003 169.993 89.0377 189.308 89.0562 193.075C83.818 195.137 78.1128 195.703 72.5737 194.709C65.0273 193.057 64.1162 189.918 64.1162 189.918C64.1162 189.918 64.0242 176.068 64.2451 170.03C64.4751 164.906 64.5396 161.13 65.0273 159.643Z" fill="#F5F5F5"/>
<path d="M86.7647 143.089C86.7647 143.089 88.6053 145.997 88.3568 146.274C88.1083 146.551 86.7463 146.773 86.7463 146.773L86.7647 143.089Z" fill="#FFA8A7"/>
<path d="M81.7122 135.038C85.5038 135.961 86.5621 137.641 86.7922 143.717C87.0222 150.078 86.332 152.026 85.4762 152.894C84.9056 153.457 81.795 153.494 80.2213 153.023C78.261 152.432 73.8529 150.752 71.8374 147.484C69.4723 143.67 68.9385 138.565 71.6166 136.534C75.3714 133.708 80.1661 134.678 81.7122 135.038Z" fill="#FFA8A7"/>
<path d="M86.7463 136.626C85.8746 137.899 84.6442 138.883 83.2123 139.451C82.4853 140.282 82.8902 143.523 81.611 144.067C81.611 144.067 81.0589 141.704 79.0802 141.953C77.1016 142.202 76.7703 144.723 77.9851 146.311C79.1999 147.899 80.3779 147.317 80.3779 147.317C80.3779 147.317 80.2398 150.669 78.7121 152.534C77.1252 152.844 75.4874 152.768 73.9358 152.312C72.04 151.86 69.3988 149.404 68.322 146.847C66.0397 141.445 65.9845 136.626 69.4264 135.259C69.8497 132.794 71.8099 131.732 74.0278 131.28C78.8042 130.292 81.8779 133.284 85.5499 133.016C87.6574 132.84 88.0531 134.382 86.7463 136.626Z" fill="#263238"/>
<path d="M69.3435 136.053L67.098 134.65C67.1841 134.491 67.3018 134.351 67.4439 134.238C67.586 134.126 67.7495 134.045 67.9243 133.998C68.0991 133.952 68.2815 133.942 68.4603 133.969C68.639 133.996 68.8104 134.059 68.9639 134.155C69.1173 134.251 69.2496 134.377 69.3525 134.526C69.4555 134.675 69.5269 134.844 69.5625 135.022C69.598 135.2 69.597 135.383 69.5593 135.56C69.5216 135.738 69.4482 135.906 69.3435 136.053Z" fill="#263238"/>
<path d="M113.564 172.985C112.386 173.511 98.4891 183.815 96.3172 182.614C94.1453 181.414 83.0374 168.377 83.0374 168.377C82.0984 166.921 81.5989 165.223 81.5989 163.489C81.5989 161.754 82.0984 160.056 83.0374 158.6C85.209 159.071 87.1376 160.313 88.4671 162.099C90.3077 164.924 98.3879 175.025 98.3879 175.025C100.376 174.028 102.364 173.012 104.333 171.987C105.962 171.138 107.6 170.298 109.192 169.384C109.641 169.181 110.062 168.92 110.444 168.608C111.235 167.833 111.097 165.94 111.079 164.915C111.085 164.437 111.064 163.959 111.014 163.484C110.941 162.893 110.83 161.462 111.889 161.914C112.086 162.014 112.256 162.159 112.386 162.339C112.552 162.555 112.68 162.799 112.763 163.059C112.965 163.678 112.901 164.361 113.076 164.98C113.098 165.074 113.145 165.161 113.214 165.229C113.259 165.268 113.312 165.298 113.369 165.315C113.426 165.333 113.486 165.338 113.545 165.331C115.073 165.284 116.527 163.133 117.226 161.988C117.481 161.445 117.883 160.984 118.386 160.659C118.829 160.525 119.304 160.543 119.736 160.71C120.167 160.877 120.531 161.184 120.769 161.582C121.431 162.579 121.703 163.785 121.533 164.97C121.397 166.581 120.688 168.088 119.536 169.218C117.777 170.81 115.756 172.084 113.564 172.985Z" fill="#FFA8A7"/>
<path d="M81.7948 158.184C83.3225 158.36 85.4759 158.074 88.4761 161.314C90.8981 164.088 93.1567 167.001 95.2402 170.039C94.8442 171.634 93.9994 173.08 92.8066 174.207C91.6138 175.333 90.1233 176.091 88.5129 176.391C88.5129 176.391 83.258 170.981 81.7948 168.008C80.3315 165.035 79.9818 160.197 81.7948 158.184Z" fill="url(#paint59_linear_23_2063)"/>
</g>
<defs>
<linearGradient id="paint0_linear_23_2063" x1="218.743" y1="212.732" x2="231.001" y2="213.261" gradientUnits="userSpaceOnUse">
<stop stop-color="#E697E6"/>
<stop offset="1" stop-color="#766CF5"/>
</linearGradient>
<linearGradient id="paint1_linear_23_2063" x1="229.21" y1="208.265" x2="236.735" y2="208.414" gradientUnits="userSpaceOnUse">
<stop stop-color="#E697E6"/>
<stop offset="1" stop-color="#766CF5"/>
</linearGradient>
<linearGradient id="paint2_linear_23_2063" x1="224.356" y1="206.537" x2="230.084" y2="206.624" gradientUnits="userSpaceOnUse">
<stop stop-color="#E697E6"/>
<stop offset="1" stop-color="#766CF5"/>
</linearGradient>
<linearGradient id="paint3_linear_23_2063" x1="229.484" y1="217.636" x2="242.906" y2="218.384" gradientUnits="userSpaceOnUse">
<stop stop-color="#E697E6"/>
<stop offset="1" stop-color="#766CF5"/>
</linearGradient>
<linearGradient id="paint4_linear_23_2063" x1="217.712" y1="218.393" x2="229.483" y2="218.99" gradientUnits="userSpaceOnUse">
<stop stop-color="#E697E6"/>
<stop offset="1" stop-color="#766CF5"/>
</linearGradient>
<linearGradient id="paint5_linear_23_2063" x1="228.229" y1="204.095" x2="231.243" y2="204.116" gradientUnits="userSpaceOnUse">
<stop stop-color="#E697E6"/>
<stop offset="1" stop-color="#766CF5"/>
</linearGradient>
<linearGradient id="paint6_linear_23_2063" x1="236.647" y1="219.031" x2="246.972" y2="219.94" gradientUnits="userSpaceOnUse">
<stop stop-color="#E697E6"/>
<stop offset="1" stop-color="#766CF5"/>
</linearGradient>
<linearGradient id="paint7_linear_23_2063" x1="222.707" y1="216.191" x2="231.925" y2="216.855" gradientUnits="userSpaceOnUse">
<stop stop-color="#E697E6"/>
<stop offset="1" stop-color="#766CF5"/>
</linearGradient>
<linearGradient id="paint8_linear_23_2063" x1="218.073" y1="204.291" x2="228.803" y2="205.85" gradientUnits="userSpaceOnUse">
<stop stop-color="#E697E6"/>
<stop offset="1" stop-color="#766CF5"/>
</linearGradient>
<linearGradient id="paint9_linear_23_2063" x1="227.571" y1="199.516" x2="237.115" y2="200.579" gradientUnits="userSpaceOnUse">
<stop stop-color="#E697E6"/>
<stop offset="1" stop-color="#766CF5"/>
</linearGradient>
<linearGradient id="paint10_linear_23_2063" x1="214.609" y1="218.584" x2="223.329" y2="219.665" gradientUnits="userSpaceOnUse">
<stop stop-color="#E697E6"/>
<stop offset="1" stop-color="#766CF5"/>
</linearGradient>
<linearGradient id="paint11_linear_23_2063" x1="235.062" y1="205.467" x2="243.781" y2="206.547" gradientUnits="userSpaceOnUse">
<stop stop-color="#E697E6"/>
<stop offset="1" stop-color="#766CF5"/>
</linearGradient>
<linearGradient id="paint12_linear_23_2063" x1="230.143" y1="210.909" x2="235.675" y2="211.276" gradientUnits="userSpaceOnUse">
<stop stop-color="#E697E6"/>
<stop offset="1" stop-color="#766CF5"/>
</linearGradient>
<linearGradient id="paint13_linear_23_2063" x1="216.074" y1="212.245" x2="222.351" y2="212.858" gradientUnits="userSpaceOnUse">
<stop stop-color="#E697E6"/>
<stop offset="1" stop-color="#766CF5"/>
</linearGradient>
<linearGradient id="paint14_linear_23_2063" x1="136.23" y1="78.8426" x2="226.517" y2="82.7439" gradientUnits="userSpaceOnUse">
<stop stop-color="#E697E6"/>
<stop offset="1" stop-color="#766CF5"/>
</linearGradient>
<linearGradient id="paint15_linear_23_2063" x1="130.309" y1="78.8426" x2="220.596" y2="82.7439" gradientUnits="userSpaceOnUse">
<stop stop-color="#E697E6"/>
<stop offset="1" stop-color="#766CF5"/>
</linearGradient>
<linearGradient id="paint16_linear_23_2063" x1="133.936" y1="92.7208" x2="216.863" y2="96.8424" gradientUnits="userSpaceOnUse">
<stop stop-color="#E697E6"/>
<stop offset="1" stop-color="#766CF5"/>
</linearGradient>
<linearGradient id="paint17_linear_23_2063" x1="147.342" y1="127.242" x2="151.02" y2="127.461" gradientUnits="userSpaceOnUse">
<stop stop-color="#E697E6"/>
<stop offset="1" stop-color="#766CF5"/>
</linearGradient>
<linearGradient id="paint18_linear_23_2063" x1="153.145" y1="182.929" x2="156.31" y2="183.079" gradientUnits="userSpaceOnUse">
<stop stop-color="#E697E6"/>
<stop offset="1" stop-color="#766CF5"/>
</linearGradient>
<linearGradient id="paint19_linear_23_2063" x1="174.823" y1="94.6337" x2="178.838" y2="94.9862" gradientUnits="userSpaceOnUse">
<stop stop-color="#E697E6"/>
<stop offset="1" stop-color="#766CF5"/>
</linearGradient>
<linearGradient id="paint20_linear_23_2063" x1="141.338" y1="187.051" x2="145.009" y2="187.27" gradientUnits="userSpaceOnUse">
<stop stop-color="#E697E6"/>
<stop offset="1" stop-color="#766CF5"/>
</linearGradient>
<linearGradient id="paint21_linear_23_2063" x1="141.184" y1="171.469" x2="145.424" y2="171.731" gradientUnits="userSpaceOnUse">
<stop stop-color="#E697E6"/>
<stop offset="1" stop-color="#766CF5"/>
</linearGradient>
<linearGradient id="paint22_linear_23_2063" x1="170.021" y1="221.133" x2="173.869" y2="221.411" gradientUnits="userSpaceOnUse">
<stop stop-color="#E697E6"/>
<stop offset="1" stop-color="#766CF5"/>
</linearGradient>
<linearGradient id="paint23_linear_23_2063" x1="147.248" y1="149.139" x2="151.299" y2="149.306" gradientUnits="userSpaceOnUse">
<stop stop-color="#E697E6"/>
<stop offset="1" stop-color="#766CF5"/>
</linearGradient>
<linearGradient id="paint24_linear_23_2063" x1="169.968" y1="135.737" x2="173.98" y2="135.9" gradientUnits="userSpaceOnUse">
<stop stop-color="#E697E6"/>
<stop offset="1" stop-color="#766CF5"/>
</linearGradient>
<linearGradient id="paint25_linear_23_2063" x1="147.881" y1="113.388" x2="151.649" y2="113.625" gradientUnits="userSpaceOnUse">
<stop stop-color="#E697E6"/>
<stop offset="1" stop-color="#766CF5"/>
</linearGradient>
<linearGradient id="paint26_linear_23_2063" x1="177.731" y1="115.016" x2="181.499" y2="115.253" gradientUnits="userSpaceOnUse">
<stop stop-color="#E697E6"/>
<stop offset="1" stop-color="#766CF5"/>
</linearGradient>
<linearGradient id="paint27_linear_23_2063" x1="162.181" y1="105.707" x2="166.169" y2="106.024" gradientUnits="userSpaceOnUse">
<stop stop-color="#E697E6"/>
<stop offset="1" stop-color="#766CF5"/>
</linearGradient>
<linearGradient id="paint28_linear_23_2063" x1="164.188" y1="120.683" x2="167.964" y2="120.91" gradientUnits="userSpaceOnUse">
<stop stop-color="#E697E6"/>
<stop offset="1" stop-color="#766CF5"/>
</linearGradient>
<linearGradient id="paint29_linear_23_2063" x1="199.006" y1="115.331" x2="202.776" y2="115.556" gradientUnits="userSpaceOnUse">
<stop stop-color="#E697E6"/>
<stop offset="1" stop-color="#766CF5"/>
</linearGradient>
<linearGradient id="paint30_linear_23_2063" x1="196.573" y1="137.216" x2="200.349" y2="137.442" gradientUnits="userSpaceOnUse">
<stop stop-color="#E697E6"/>
<stop offset="1" stop-color="#766CF5"/>
</linearGradient>
<linearGradient id="paint31_linear_23_2063" x1="186.34" y1="128.257" x2="189.507" y2="128.358" gradientUnits="userSpaceOnUse">
<stop stop-color="#E697E6"/>
<stop offset="1" stop-color="#766CF5"/>
</linearGradient>
<linearGradient id="paint32_linear_23_2063" x1="172.68" y1="180.362" x2="176.351" y2="180.581" gradientUnits="userSpaceOnUse">
<stop stop-color="#E697E6"/>
<stop offset="1" stop-color="#766CF5"/>
</linearGradient>
<linearGradient id="paint33_linear_23_2063" x1="162.312" y1="192.232" x2="165.983" y2="192.45" gradientUnits="userSpaceOnUse">
<stop stop-color="#E697E6"/>
<stop offset="1" stop-color="#766CF5"/>
</linearGradient>
<linearGradient id="paint34_linear_23_2063" x1="181.958" y1="165.802" x2="185.807" y2="166.08" gradientUnits="userSpaceOnUse">
<stop stop-color="#E697E6"/>
<stop offset="1" stop-color="#766CF5"/>
</linearGradient>
<linearGradient id="paint35_linear_23_2063" x1="191.889" y1="201.588" x2="195.737" y2="201.867" gradientUnits="userSpaceOnUse">
<stop stop-color="#E697E6"/>
<stop offset="1" stop-color="#766CF5"/>
</linearGradient>
<linearGradient id="paint36_linear_23_2063" x1="177.612" y1="205.39" x2="181.658" y2="205.556" gradientUnits="userSpaceOnUse">
<stop stop-color="#E697E6"/>
<stop offset="1" stop-color="#766CF5"/>
</linearGradient>
<linearGradient id="paint37_linear_23_2063" x1="191.446" y1="181.075" x2="194.684" y2="181.19" gradientUnits="userSpaceOnUse">
<stop stop-color="#E697E6"/>
<stop offset="1" stop-color="#766CF5"/>
</linearGradient>
<linearGradient id="paint38_linear_23_2063" x1="192.171" y1="96.5584" x2="195.406" y2="96.6734" gradientUnits="userSpaceOnUse">
<stop stop-color="#E697E6"/>
<stop offset="1" stop-color="#766CF5"/>
</linearGradient>
<linearGradient id="paint39_linear_23_2063" x1="150.674" y1="215.756" x2="154.515" y2="215.908" gradientUnits="userSpaceOnUse">
<stop stop-color="#E697E6"/>
<stop offset="1" stop-color="#766CF5"/>
</linearGradient>
<linearGradient id="paint40_linear_23_2063" x1="150.593" y1="96.7069" x2="153.347" y2="96.8857" gradientUnits="userSpaceOnUse">
<stop stop-color="#E697E6"/>
<stop offset="1" stop-color="#766CF5"/>
</linearGradient>
<linearGradient id="paint41_linear_23_2063" x1="164.39" y1="164.673" x2="167.143" y2="164.852" gradientUnits="userSpaceOnUse">
<stop stop-color="#E697E6"/>
<stop offset="1" stop-color="#766CF5"/>
</linearGradient>
<linearGradient id="paint42_linear_23_2063" x1="198.284" y1="157.859" x2="201.03" y2="158.039" gradientUnits="userSpaceOnUse">
<stop stop-color="#E697E6"/>
<stop offset="1" stop-color="#766CF5"/>
</linearGradient>
<linearGradient id="paint43_linear_23_2063" x1="203.116" y1="97.996" x2="205.869" y2="98.1748" gradientUnits="userSpaceOnUse">
<stop stop-color="#E697E6"/>
<stop offset="1" stop-color="#766CF5"/>
</linearGradient>
<linearGradient id="paint44_linear_23_2063" x1="137.904" y1="204.933" x2="141.78" y2="205.197" gradientUnits="userSpaceOnUse">
<stop stop-color="#E697E6"/>
<stop offset="1" stop-color="#766CF5"/>
</linearGradient>
<linearGradient id="paint45_linear_23_2063" x1="189.088" y1="226.188" x2="193.096" y2="226.538" gradientUnits="userSpaceOnUse">
<stop stop-color="#E697E6"/>
<stop offset="1" stop-color="#766CF5"/>
</linearGradient>
<linearGradient id="paint46_linear_23_2063" x1="138.632" y1="227.037" x2="141.384" y2="227.217" gradientUnits="userSpaceOnUse">
<stop stop-color="#E697E6"/>
<stop offset="1" stop-color="#766CF5"/>
</linearGradient>
<linearGradient id="paint47_linear_23_2063" x1="149" y1="197" x2="187.424" y2="207.505" gradientUnits="userSpaceOnUse">
<stop stop-color="#E697E6"/>
<stop offset="1" stop-color="#766CF5"/>
</linearGradient>
<linearGradient id="paint48_linear_23_2063" x1="145.805" y1="178.572" x2="165.229" y2="120.908" gradientUnits="userSpaceOnUse">
<stop stop-color="#E697E6"/>
<stop offset="1" stop-color="#766CF5"/>
</linearGradient>
<linearGradient id="paint49_linear_23_2063" x1="158.427" y1="144.743" x2="194.401" y2="152.786" gradientUnits="userSpaceOnUse">
<stop stop-color="#E697E6"/>
<stop offset="1" stop-color="#766CF5"/>
</linearGradient>
<linearGradient id="paint50_linear_23_2063" x1="156.017" y1="150.98" x2="159.553" y2="151.093" gradientUnits="userSpaceOnUse">
<stop stop-color="#E697E6"/>
<stop offset="1" stop-color="#766CF5"/>
</linearGradient>
<linearGradient id="paint51_linear_23_2063" x1="128.814" y1="136.497" x2="160.703" y2="140.085" gradientUnits="userSpaceOnUse">
<stop stop-color="#E697E6"/>
<stop offset="1" stop-color="#766CF5"/>
</linearGradient>
<linearGradient id="paint52_linear_23_2063" x1="131.005" y1="135.79" x2="147.959" y2="136.646" gradientUnits="userSpaceOnUse">
<stop stop-color="#E697E6"/>
<stop offset="1" stop-color="#766CF5"/>
</linearGradient>
<linearGradient id="paint53_linear_23_2063" x1="127.819" y1="131.618" x2="153.183" y2="137.596" gradientUnits="userSpaceOnUse">
<stop stop-color="#E697E6"/>
<stop offset="1" stop-color="#766CF5"/>
</linearGradient>
<linearGradient id="paint54_linear_23_2063" x1="171.513" y1="155.632" x2="193.848" y2="159.671" gradientUnits="userSpaceOnUse">
<stop stop-color="#E697E6"/>
<stop offset="1" stop-color="#766CF5"/>
</linearGradient>
<linearGradient id="paint55_linear_23_2063" x1="169.062" y1="154.907" x2="174.349" y2="155.167" gradientUnits="userSpaceOnUse">
<stop stop-color="#E697E6"/>
<stop offset="1" stop-color="#766CF5"/>
</linearGradient>
<linearGradient id="paint56_linear_23_2063" x1="107.021" y1="80.6065" x2="120.347" y2="84.1963" gradientUnits="userSpaceOnUse">
<stop stop-color="#E697E6"/>
<stop offset="1" stop-color="#766CF5"/>
</linearGradient>
<linearGradient id="paint57_linear_23_2063" x1="106.455" y1="92.5545" x2="113.098" y2="93.3517" gradientUnits="userSpaceOnUse">
<stop stop-color="#E697E6"/>
<stop offset="1" stop-color="#766CF5"/>
</linearGradient>
<linearGradient id="paint58_linear_23_2063" x1="70.8618" y1="155.457" x2="59.9601" y2="155.924" gradientUnits="userSpaceOnUse">
<stop stop-color="#E697E6"/>
<stop offset="1" stop-color="#766CF5"/>
</linearGradient>
<linearGradient id="paint59_linear_23_2063" x1="95.2402" y1="158.184" x2="79.0518" y2="159.396" gradientUnits="userSpaceOnUse">
<stop stop-color="#E697E6"/>
<stop offset="1" stop-color="#766CF5"/>
</linearGradient>
<clipPath id="clip0_23_2063">
<rect width="241" height="240" fill="white" transform="translate(32 39)"/>
</clipPath>
</defs>
</svg>
