<svg width="20" height="20" viewBox="0 0 20 20" fill="none" xmlns="http://www.w3.org/2000/svg">
<g id="More Circle">
<path id="Stroke 1" fill-rule="evenodd" clip-rule="evenodd" d="M10 0.750183C15.108 0.750183 19.25 4.89218 19.25 10.0002C19.25 15.1082 15.108 19.2502 10 19.2502C4.891 19.2502 0.75 15.1082 0.75 10.0002C0.75 4.89218 4.891 0.750183 10 0.750183Z" stroke="#767676" stroke-width="1.5" stroke-linecap="round" stroke-linejoin="round"/>
<path id="Fill 3" d="M5.52027 11.1974C4.85927 11.1974 4.32227 10.6604 4.32227 10.0004C4.32227 9.34037 4.85927 8.80237 5.52027 8.80237C6.18127 8.80237 6.71827 9.34037 6.71827 10.0004C6.71827 10.6604 6.18127 11.1974 5.52027 11.1974Z" fill="#767676"/>
<path id="Fill 5" d="M9.99976 11.1974C9.33876 11.1974 8.80176 10.6604 8.80176 10.0004C8.80176 9.34037 9.33876 8.80237 9.99976 8.80237C10.6608 8.80237 11.1978 9.34037 11.1978 10.0004C11.1978 10.6604 10.6608 11.1974 9.99976 11.1974Z" fill="#767676"/>
<path id="Fill 7" d="M14.4792 11.1974C13.8182 11.1974 13.2812 10.6604 13.2812 10.0004C13.2812 9.34037 13.8182 8.80237 14.4792 8.80237C15.1402 8.80237 15.6772 9.34037 15.6772 10.0004C15.6772 10.6604 15.1402 11.1974 14.4792 11.1974Z" fill="#767676"/>
</g>
</svg>
