<svg class="svg-icon" style="width: 1em;height: 1em;vertical-align: middle;fill: currentColor;overflow: hidden;" viewBox="0 0 1024 1024" version="1.1" xmlns="http://www.w3.org/2000/svg"><path d="M300.8 230.4a19.2 19.2 0 0 1 19.2-19.2H768c24.7296 0 44.8 20.0704 44.8 44.8v256a19.2 19.2 0 0 1-38.4 0V256a6.4 6.4 0 0 0-6.4-6.4H320a19.2 19.2 0 0 1-19.2-19.2z"  /><path d="M256 326.4a6.4 6.4 0 0 0-6.4 6.4v435.2c0 3.5328 2.8672 6.4 6.4 6.4h217.6a19.2 19.2 0 0 1 0 38.4H256A44.8 44.8 0 0 1 211.2 768V332.8c0-24.7296 20.0704-44.8 44.8-44.8h480v185.6a19.2 19.2 0 0 1-38.4 0v-147.2H256z"  /><path d="M339.2 486.4a19.2 19.2 0 0 1 19.2-19.2h230.4a19.2 19.2 0 0 1 0 38.4h-230.4a19.2 19.2 0 0 1-19.2-19.2zM358.4 595.2a19.2 19.2 0 0 0 0 38.4h89.6a19.2 19.2 0 0 0 0-38.4H358.4zM739.3024 678.6816a19.2 19.2 0 0 0-28.0832-26.1632L665.088 701.952l-24.32-24.32a19.2 19.2 0 1 0-27.1616 27.136l38.4 38.4a19.2 19.2 0 0 0 27.6224-0.4864l59.648-64z"  /><path d="M665.6 844.8a153.6 153.6 0 1 0 0-307.2 153.6 153.6 0 0 0 0 307.2z m0-38.4a115.2 115.2 0 1 1 0-230.4 115.2 115.2 0 0 1 0 230.4z"  /></svg>