<svg width="18" height="21" viewBox="0 0 18 21" fill="none" xmlns="http://www.w3.org/2000/svg">
<g id="Bookmark">
<path id="Path_33968" fill-rule="evenodd" clip-rule="evenodd" d="M8.66432 16.6316L2.73297 19.881C2.2594 20.1271 1.67597 19.9529 1.41489 19.4874V19.4874C1.33936 19.3432 1.29861 19.1833 1.2959 19.0206V4.62241C1.2959 1.87641 3.17233 0.778015 5.87256 0.778015H12.2158C14.8337 0.778015 16.7925 1.80319 16.7925 4.43934V19.0206C16.7925 19.2803 16.6893 19.5294 16.5056 19.7131C16.3219 19.8968 16.0728 20 15.8131 20C15.6474 19.9974 15.4845 19.9566 15.3371 19.881L9.36913 16.6316C9.14921 16.5128 8.88423 16.5128 8.66432 16.6316Z" stroke="#767676" stroke-width="1.5" stroke-linecap="round" stroke-linejoin="round"/>
<path id="Line_209" d="M5.36914 7.32266H12.6643" stroke="#767676" stroke-width="1.5" stroke-linecap="round" stroke-linejoin="round"/>
</g>
</svg>
