<svg width="188" height="44" viewBox="0 0 188 44" fill="none" xmlns="http://www.w3.org/2000/svg">
<path fill-rule="evenodd" clip-rule="evenodd" d="M151.501 23.7871V23.5681C151.533 22.9202 151.741 22.2925 152.102 21.7496C152.705 21.0975 153.117 20.2983 153.296 19.436C153.296 18.7695 153.296 18.0935 153.354 17.427C153.655 14.2184 156.827 12 159.961 12H160.039C163.172 12 166.345 14.2184 166.656 17.427C166.714 18.0935 166.656 18.7695 166.704 19.436C166.885 20.3003 167.297 21.1019 167.897 21.7591C168.262 22.2972 168.47 22.9227 168.499 23.5681V23.7776C168.521 24.648 168.221 25.4968 167.655 26.1674C166.907 26.9515 165.892 27.4393 164.802 27.5384C161.607 27.8812 158.383 27.8812 155.188 27.5384C154.099 27.435 153.086 26.9479 152.335 26.1674C151.778 25.4963 151.482 24.6526 151.501 23.7871Z" stroke="black" stroke-width="1.5" stroke-linecap="round" stroke-linejoin="round"/>
<path d="M157.555 30.8518C158.054 31.4784 158.787 31.884 159.592 31.9787C160.397 32.0734 161.207 31.8495 161.843 31.3564C162.039 31.2106 162.215 31.041 162.367 30.8518" stroke="black" stroke-width="1.5" stroke-linecap="round" stroke-linejoin="round"/>
<circle cx="165" cy="12" r="4" fill="url(#paint0_linear_1229_339)"/>
<defs>
<linearGradient id="paint0_linear_1229_339" x1="161" y1="8" x2="169.797" y2="8.81662" gradientUnits="userSpaceOnUse">
<stop stop-color="#E697E6"/>
<stop offset="1" stop-color="#766CF5"/>
</linearGradient>
</defs>
</svg>
